<svg width="24" height="24" viewBox="0 0 24 24" fill="none" xmlns="http://www.w3.org/2000/svg">
<g clip-path="url(#clip0_3683_4737)">
<path d="M18.3228 12.7504C18.3565 16.3824 21.509 17.5911 21.5439 17.6065C21.5173 17.6917 21.0402 19.3288 19.8831 21.0199C18.8827 22.482 17.8446 23.9386 16.2091 23.9688C14.6021 23.9984 14.0854 23.0159 12.2481 23.0159C10.4114 23.0159 9.83728 23.9386 8.31608 23.9984C6.73745 24.0582 5.5353 22.4175 4.52672 20.9608C2.46572 17.9811 0.890685 12.5409 3.00555 8.86873C4.05617 7.0451 5.93371 5.8903 7.97161 5.86069C9.52179 5.83112 10.9849 6.9036 11.9326 6.9036C12.8797 6.9036 14.6577 5.61385 16.527 5.80327C17.3095 5.83584 19.5061 6.11936 20.9165 8.18392C20.8028 8.25437 18.2956 9.71399 18.3228 12.7504ZM15.3026 3.83196C16.1407 2.81747 16.7048 1.4052 16.551 0C15.3429 0.0485541 13.8821 0.805021 13.0155 1.81896C12.239 2.71684 11.5589 4.15397 11.7424 5.53135C13.0889 5.63553 14.4645 4.8471 15.3026 3.83196Z" fill="black"/>
</g>
<defs>
<clipPath id="clip0_3683_4737">
<rect width="19.5456" height="24" fill="white" transform="translate(2)"/>
</clipPath>
</defs>
</svg>
