<svg width="110" height="54" viewBox="0 0 110 54" fill="none" xmlns="http://www.w3.org/2000/svg">
<path fill-rule="evenodd" clip-rule="evenodd" d="M30.8761 18.4851C34.2733 7.9933 42.2672 0 55.6564 0C68.0463 0 77.2391 8.19341 80.5368 18.6852C77.039 8.89263 67.2471 1.79865 55.6564 1.79865C44.1653 1.79865 34.4728 8.79316 30.8761 18.4851ZM80.4368 34.4728C77.1385 44.9646 67.6473 53.0574 55.6559 53.0574C42.9658 53.0574 34.3728 45.0646 30.9756 34.6729C34.5729 44.3648 44.2654 51.2599 55.6559 51.2599C67.147 51.2593 76.9401 44.2648 80.4368 34.4728Z" fill="white"/>
<path fill-rule="evenodd" clip-rule="evenodd" d="M62.3508 17.9859C61.8505 18.1861 61.2519 17.9859 60.7517 18.3856C60.7517 18.2855 60.6516 18.086 60.4515 18.1861H60.2514C60.7517 17.7858 59.9524 17.3868 60.7517 17.3868C61.352 17.3862 61.8511 17.7858 62.3508 17.9859ZM110.113 30.676V28.0781L109.413 28.6778H104.717V21.7828L105.316 20.9835H101.32L101.919 21.7828V29.9756L101.32 30.676H110.113ZM94.0256 27.1787H90.8285L92.4276 23.781L94.0256 27.1787ZM98.6223 30.676L93.9255 20.9835H90.6284L91.0286 21.7828L86.6314 30.676H90.2282L89.629 29.9762L90.1281 28.9774H94.7254L95.2245 29.9762L94.5253 30.676H98.6223ZM84.2336 27.878C84.2336 26.2794 82.9347 25.4796 81.1354 24.8804C80.0366 24.4808 78.3374 24.2806 78.3374 23.482C78.3374 23.0823 78.8377 22.8822 79.6363 22.8822C80.6363 22.8822 82.3343 23.2819 83.7333 23.8816V20.6839L82.9347 21.3831C82.136 21.0836 80.737 20.784 79.7364 20.784C76.4393 20.784 75.4405 22.1824 75.4405 23.4814C75.4405 25.28 76.5393 26.0793 78.4374 26.7791C79.8365 27.2794 81.1354 27.2794 81.1354 28.0781C81.1354 28.7773 80.3367 28.8767 79.9365 28.8767C78.9377 28.8767 77.0384 28.4777 75.4405 27.3789V30.9756L76.2391 30.1757C76.9389 30.4759 78.637 30.9756 80.036 30.9756C82.9347 30.9762 84.2336 29.6772 84.2336 27.878ZM68.6461 24.1812C68.6461 24.8804 67.9469 25.3801 67.0469 25.3801H65.1488V22.9817H67.3465C68.0457 22.9817 68.6461 23.3813 68.6461 24.1812ZM71.9426 30.676L69.3447 26.8792C70.6437 26.3789 71.5436 25.3801 71.5436 23.9817C71.5436 22.2825 70.5436 20.9835 67.7467 20.9835H61.7504L62.3508 21.7828V29.9756L61.7504 30.6754H65.7474L65.1482 29.9756V27.1787H66.3471L68.2453 29.9756L67.6461 30.6754H71.9426V30.676ZM58.0543 30.676V28.0781L57.355 28.6778H52.3587V26.7791H55.5564L56.2562 27.3789V24.2806L55.5564 24.8804H52.3587V22.9817H57.355L58.0543 23.6815V20.9835H48.9615L49.5613 21.7828V29.9756L48.9615 30.676H58.0543ZM46.5637 20.9835H43.0659L43.6656 21.7828L41.2678 27.0787L38.8694 21.7828L39.5692 20.9835H35.4722L39.9688 30.676H41.967L46.5637 20.9835ZM32.9743 30.676L32.3746 29.9756V21.7828L32.9743 20.9835H28.8773L29.4771 21.7828V29.9756L28.8773 30.676H32.9743ZM25.0805 20.9835H21.6833L22.2825 21.7828V26.579L17.2867 20.9835H14.2892L14.8883 21.7828V29.9756L14.2892 30.676H17.6864L17.0872 29.9756V24.9805L22.2825 30.676H24.4808V21.7828L25.0805 20.9835ZM10.9914 20.9835H6.89504L7.49478 21.7828V27.0793C7.49478 28.2782 6.69551 28.7773 5.49602 28.7773C4.29711 28.7773 3.49784 28.2782 3.49784 27.0793V21.7828L4.09759 20.9835H0L0.599747 21.7828V27.1787C0.599747 29.8767 2.09882 30.8755 5.49602 30.8755C8.79375 30.8755 10.2922 29.8767 10.2922 27.1787V21.7828L10.9914 20.9835ZM63.5503 18.2855C63.4502 18.3856 63.3502 18.485 63.1501 18.485V18.0854C63.2501 18.086 63.3502 18.1861 63.5503 18.2855ZM73.7419 33.8725C73.5418 33.5735 73.7419 33.1733 73.7419 33.1733H59.1531L60.7522 34.5723C61.1525 34.7724 61.5521 35.0726 61.751 35.6711C62.2513 36.9701 61.5521 35.8713 61.5521 37.8688C61.5521 39.6681 61.0518 39.3679 61.0518 39.3679C61.0518 39.3679 60.9518 41.4656 59.8529 42.7645C59.1531 43.4643 59.6528 44.0635 59.6528 44.0635C59.6528 44.0635 59.4527 44.2636 59.0525 45.7627C58.9536 46.263 59.6528 47.0616 60.1525 46.8615C60.5515 46.6626 59.1525 46.5625 60.7517 45.8627C61.352 45.6626 60.8517 45.1635 60.8517 45.1635C60.8517 45.1635 61.8505 45.0635 62.3508 43.5644C63.3496 43.7645 63.05 43.1642 65.0488 42.6656C65.6479 42.5656 65.748 42.3655 65.6479 41.8658C65.5479 41.3667 66.3477 41.9658 68.3459 39.8676C69.945 38.2685 69.3447 37.8688 70.4447 37.2697C71.6436 36.6693 71.7437 37.3697 72.1427 36.8695C73.0426 35.6706 72.7431 35.7706 73.1427 34.9713L73.3416 34.5711C73.3416 34.5729 73.942 34.0726 73.7419 33.8725ZM49.4612 16.9866C48.8621 16.1873 49.2617 15.0879 49.8614 13.989C50.3611 13.2898 51.56 12.8902 52.5588 13.2898C53.7577 12.3905 54.0573 13.3898 55.0567 12.8902C56.3563 12.3905 55.6564 14.4887 56.9554 14.9884C57.4557 13.5894 55.7565 12.4899 56.8554 11.7907C57.6552 11.291 58.2544 10.9914 58.5545 10.3917C59.0536 9.49237 59.1537 8.79256 59.5533 8.69251C60.352 8.39293 60.1537 7.59366 60.1537 7.59366C60.1537 7.59366 61.0524 7.89324 61.7516 7.19402C61.2525 6.89385 60.4527 6.69433 60.6528 6.09458C60.9529 5.49484 62.6515 6.7938 63.2507 5.69495C62.1519 5.29531 61.053 4.29593 60.4527 3.99635C59.9536 4.49604 59.7534 4.29593 59.1537 3.89688C58.1549 3.09761 58.1549 3.79682 57.5557 3.29713C57.0555 4.29593 57.7559 4.19587 57.9548 4.39598C58.5551 5.0952 57.3556 3.79624 57.4557 5.59489C57.4557 5.99453 56.8554 6.09458 56.3568 5.0952C56.0567 4.59551 54.0579 4.69556 53.7583 4.19587C54.0579 3.69618 56.4569 1.698 60.1537 2.19769C54.7577 -0.000595093 47.463 2.29775 47.463 3.09702C46.6638 3.59672 46.9633 4.0964 46.5637 4.19587C45.964 4.49604 45.2647 6.39416 45.2647 6.39416C45.2647 6.39416 45.6644 6.59369 44.4655 7.99271C43.4661 9.09214 43.1665 10.7902 43.1665 10.7902C43.1665 10.7902 43.8657 11.9891 43.6662 13.3881C43.5667 14.4869 43.5667 13.6877 44.0664 14.3875C44.266 14.8872 44.5661 16.4857 44.7656 15.8859C45.0652 14.687 44.1659 13.5882 44.266 12.3887C44.366 12.5888 44.6656 11.9891 44.6656 12.4888C44.6656 13.9872 46.4642 16.6852 46.4642 16.6852C46.4642 16.6852 45.765 17.3844 46.4642 17.3844L46.2647 17.7841C46.2647 17.7841 46.7644 17.7841 47.1641 18.0842C47.4636 18.3838 47.7638 18.684 48.0634 18.684H53.2592C53.2592 18.684 53.6589 17.0854 53.9584 16.8853C54.2586 16.5857 53.3593 16.8853 53.0597 16.5858C52.7595 16.2862 52.6595 16.7859 52.46 17.0854C52.3605 17.385 52.1604 17.7847 51.7607 17.9848C51.3605 18.0848 50.4618 18.1849 50.2617 18.1849C50.0616 18.1849 49.4612 16.9866 49.4612 16.9866ZM56.2562 16.0872C56.3563 15.7877 56.8554 15.9872 57.255 15.9872C57.6546 15.9872 57.5552 16.6864 58.1537 16.5869C58.8535 16.3868 58.8535 17.1867 59.7529 17.0866C60.6516 17.0866 59.5527 17.4863 59.5527 17.4863C59.5527 17.4863 58.9536 17.1861 58.654 17.3862C58.4539 17.4863 58.654 17.2861 58.3538 17.0866C57.8536 16.5869 57.9536 17.0866 57.1549 16.3868C56.5552 15.8871 55.956 16.4869 56.2562 16.0872Z" fill="white"/>
</svg>
