<svg width="110" height="110" viewBox="0 0 110 110" fill="none" xmlns="http://www.w3.org/2000/svg">
<g clip-path="url(#clip0_3807_30155)">
<path d="M41.15 15L60.4124 38.0812C60.4696 37.9798 60.5198 37.8998 60.5556 37.8155C62.8088 33.1324 65.0601 28.4499 67.3096 23.7678C68.2777 21.7502 69.2129 19.7154 70.1896 17.7035C70.491 17.1018 70.8372 16.5233 71.2251 15.9731C71.4109 15.7275 71.6497 15.5267 71.9239 15.3858C72.1195 15.2837 72.3475 15.2624 72.5586 15.3266C72.7698 15.3908 72.9471 15.5352 73.0525 15.7287C73.6683 16.8219 74.2913 17.9121 74.8842 19.0152C75.8409 20.8 77.1198 22.3546 78.36 23.9393C79.6835 25.6255 81.2729 27.0858 83.066 28.2632C83.8027 28.7247 84.5999 29.0825 85.4348 29.3263C85.6979 29.4033 85.953 29.5052 86.1967 29.6306C86.559 29.8293 86.5691 30.1693 86.1967 30.328C85.7569 30.522 85.2931 30.6565 84.8175 30.7281C80.6142 31.2639 76.4982 31.0496 72.5842 29.2248C71.0479 28.5061 69.6223 27.5722 68.3507 26.4513L67.9626 26.1112L67.7378 26.5242C65.4864 30.7381 63.5846 35.1177 61.5294 39.4258C59.0418 44.6528 56.4711 49.8426 53.9806 55.0682C51.6018 60.0565 49.2918 65.0706 46.9216 70.0718C46.4552 71.0516 45.9147 71.9946 45.3047 72.8924C44.0744 74.7072 42.3129 75.7017 40.1403 75.9746C37.6785 76.2832 35.3255 75.806 33.0469 74.9301C30.0953 73.7955 27.6048 72.0294 25.7573 69.4316C24.6861 67.9241 24.0502 66.2523 23.9972 64.3933C23.9285 61.9212 24.8937 59.8893 26.6954 58.2232C28.1189 56.9072 29.8604 56.3542 31.7294 56.0798C35.6463 55.5083 39.0333 56.7357 42.1224 59.062C44.0229 60.4909 45.551 62.2199 46.5349 64.3933C46.7869 64.9505 46.9344 65.5535 47.1335 66.148C47.175 66.0708 47.2323 65.9708 47.2767 65.8622C48.9714 62.2804 50.6666 58.699 52.3623 55.1182C52.4611 54.9096 52.4009 54.791 52.272 54.6366C48.116 49.6726 43.9627 44.7062 39.8124 39.7373C37.2651 36.6938 34.7154 33.6516 32.1633 30.6109C31.0625 29.2944 29.9673 27.9736 28.878 26.6485C28.6918 26.4213 28.5328 26.1712 28.3323 25.8912L41.15 15Z" fill="white"/>
<path d="M81.3803 76.068C80.5826 75.8922 79.8207 75.7465 79.0688 75.5579C75.9095 74.7643 72.7516 73.9641 69.5952 73.1573C69.3517 73.0944 69.1183 72.9944 68.8791 72.9258C67.7557 72.615 66.7556 71.9664 66.0148 71.0682C63.6518 68.2876 61.2658 65.5269 58.9114 62.7391C57.6124 61.2016 56.3593 59.6241 55.079 58.0708C55.0037 58.0039 54.9544 57.9127 54.9397 57.8132C54.9251 57.7136 54.946 57.6121 54.9988 57.5264C57.6196 52.1242 60.2347 46.7162 62.844 41.3025C62.867 41.2539 62.897 41.2082 62.9472 41.1196C63.4169 41.6712 63.868 42.1985 64.3149 42.73C69.4276 48.8029 74.5356 54.8796 79.6388 60.9601C80.437 61.8752 80.8987 63.0344 80.9478 64.2466C81.0337 66.8058 81.1368 69.3635 81.2342 71.9227C81.2829 73.1792 81.3307 74.4357 81.3774 75.6922C81.3875 75.8022 81.3803 75.9137 81.3803 76.068Z" fill="white"/>
<path d="M32.7131 82.7723C32.7131 81.7892 32.703 80.8075 32.7131 79.8259C32.7245 78.9228 32.7618 78.8957 33.6411 78.9299C34.7868 78.9728 35.9325 78.96 37.0668 79.0728C38.7625 79.2415 40.1158 80.7247 40.196 82.4365C40.2222 82.9492 40.1885 83.4633 40.0958 83.9683C39.8008 85.5258 39.0775 86.2546 37.485 86.4932C36.055 86.6951 34.6051 86.7158 33.1699 86.5546C32.8835 86.526 32.7603 86.4117 32.7618 86.126C32.7618 85.0071 32.7618 83.8883 32.7618 82.7694L32.7131 82.7723ZM37.9934 83.0838C37.9161 82.5308 37.8788 82.0621 37.7771 81.6092C37.7236 81.3782 37.6025 81.1683 37.4291 81.0062C36.8863 80.5318 36.2333 80.4503 35.5673 80.6746C35.4736 80.7179 35.3917 80.7831 35.3286 80.8647C35.2655 80.9463 35.2231 81.0419 35.205 81.1433C35.2136 82.2865 35.2637 83.4439 35.3138 84.5942C35.3116 84.6489 35.3216 84.7034 35.3432 84.7538C35.3647 84.8042 35.3973 84.8492 35.4384 84.8854C35.4796 84.9217 35.5283 84.9484 35.5811 84.9635C35.6338 84.9786 35.6893 84.9818 35.7435 84.9728C36.1416 84.9371 36.5398 84.8971 36.9322 84.8299C37.1158 84.8058 37.2888 84.7304 37.4312 84.6123C37.5737 84.4942 37.6797 84.3383 37.737 84.1626C37.8645 83.7897 37.9218 83.3967 37.9934 83.0838Z" fill="white"/>
<path d="M47.8896 82.9165C48.4152 83.308 48.8606 83.7481 48.8706 84.4026C48.8708 84.8649 48.7943 85.324 48.6444 85.7615C48.5921 85.879 48.515 85.9839 48.4184 86.069C48.3217 86.1541 48.2078 86.2174 48.0844 86.2545C47.3105 86.4448 46.5235 86.5781 45.73 86.6531C44.8879 86.7203 44.0372 86.676 43.1908 86.6674C42.7096 86.6674 42.6021 86.5502 42.6064 86.0744C42.6208 84.7384 42.6465 83.4009 42.6594 82.0649C42.668 81.1747 42.6594 80.2859 42.6594 79.3957C42.6594 79.1099 42.7583 78.967 43.0891 78.9884C44.4138 79.0499 45.74 79.1056 47.0661 79.1313C48.6859 79.157 49.3476 80.9389 48.5083 82.0949C48.3121 82.3564 48.1116 82.6193 47.8896 82.9165ZM45.0769 84.4555H45.0841C45.0719 84.6936 45.0748 84.9322 45.0926 85.1699C45.1011 85.2351 45.123 85.2979 45.157 85.3542C45.191 85.4106 45.2364 85.4592 45.2903 85.4971C45.6082 85.6572 46.194 85.4214 46.3601 85.097C46.5993 84.6341 46.479 83.8353 46.0622 83.5252C45.9663 83.463 45.8585 83.4212 45.7456 83.4025C45.6328 83.3838 45.5172 83.3886 45.4063 83.4166C45.2631 83.4638 45.1471 83.7239 45.0884 83.911C45.0579 84.091 45.054 84.2744 45.0769 84.4555ZM45.0311 81.1161C45.0494 81.347 45.0824 81.5766 45.1299 81.8034C45.1489 81.9023 45.1961 81.9936 45.2658 82.0663C45.3355 82.1391 45.4248 82.1903 45.5229 82.2136C45.6211 82.237 45.7239 82.2317 45.819 82.1982C45.9142 82.1647 45.9976 82.1045 46.0593 82.0249C46.2167 81.8647 46.3267 81.6642 46.3773 81.4456C46.4278 81.2271 46.4169 80.9988 46.3458 80.786C46.2388 80.5301 46.0431 80.3211 45.7944 80.1973C45.3977 80.0015 45.1084 80.2087 45.0597 80.6517C45.0411 80.7932 45.0411 80.9418 45.0311 81.1118V81.1161Z" fill="white"/>
<path d="M83.0746 83.365C83.2894 83.8608 83.5228 84.391 83.7477 84.924C83.917 85.2971 84.0671 85.6786 84.1974 86.0671C84.3205 86.4715 84.1902 86.6572 83.7606 86.6744C83.3269 86.6916 82.8925 86.6686 82.4631 86.6058C82.3198 86.5858 82.1609 86.4129 82.0807 86.27C81.7341 85.6541 81.4233 85.0168 81.0782 84.3981C80.945 84.1595 80.8218 83.8265 80.458 83.918C80.0943 84.0094 80.0699 84.3467 80.0599 84.6625C80.0442 85.154 80.0356 85.6456 79.9854 86.1328C79.9667 86.2 79.9312 86.2614 79.8824 86.3113C79.8336 86.3613 79.773 86.3982 79.7062 86.4186C79.3096 86.4544 78.9114 86.4701 78.5132 86.4658C78.0177 86.4658 77.7456 86.2514 77.737 85.7599C77.7155 84.4467 77.7227 83.135 77.7184 81.8232C77.7184 81.3431 77.7098 80.8644 77.7055 80.3857C77.7055 80.1571 77.7055 79.9299 77.7055 79.7013C77.6978 79.5737 77.7402 79.4482 77.8235 79.3511C77.9069 79.2541 78.0248 79.1931 78.1523 79.1812C78.3404 79.1351 78.532 79.1045 78.7252 79.0897C79.8995 79.0354 81.071 78.9111 82.2497 79.1111C83.7448 79.364 84.6557 81.4331 83.6045 82.9192C83.4971 83.0821 83.3023 83.1807 83.0746 83.365ZM80.196 81.6046C80.196 82.1933 80.3306 82.4105 80.6986 82.4076C81.1097 82.4076 81.5121 82.0876 81.5035 81.7718C81.4906 81.3288 81.0739 80.8487 80.6944 80.8444C80.3148 80.8401 80.1974 81.0259 80.196 81.6046Z" fill="white"/>
<path d="M57.8358 82.9249C57.8071 83.3292 57.7656 83.6393 57.7713 83.9351C57.7842 84.5624 57.8286 85.1897 57.8501 85.817C57.8673 86.3185 57.7813 86.4543 57.4634 86.48C56.6643 86.5472 56.4323 86.4543 56.4108 85.9184C56.3692 84.8467 56.3764 83.7751 56.3922 82.6991C56.4065 81.6503 56.4681 80.6014 56.4867 79.5555C56.4867 79.284 56.5311 79.1082 56.8476 79.1125C56.9622 79.1086 57.0762 79.0947 57.1884 79.0711C58.2654 78.8939 59.0502 79.244 59.6331 80.2142C60.1 80.993 60.7058 81.6917 61.2643 82.4147C61.3588 82.5362 61.535 82.5948 61.6725 82.6834C61.7504 82.5422 61.8078 82.3906 61.8429 82.2333C61.903 81.4145 61.9388 80.5929 61.9861 79.7727C62.0148 79.324 62.1923 79.1868 62.7022 79.2011C63.212 79.2154 63.3309 79.344 63.3108 79.8155C63.2464 81.3331 63.1676 82.8506 63.1089 84.3681C63.0874 84.9039 63.1089 85.4412 63.1089 85.9784C63.1089 86.55 62.9242 86.7515 62.347 86.7272C61.9695 86.7184 61.5943 86.6666 61.2285 86.5729C61.0033 86.4967 60.8045 86.3579 60.6557 86.1728C60.3277 85.7784 60.0599 85.334 59.7362 84.9353C59.2607 84.3509 58.7624 83.7922 58.2654 83.2206C58.1324 83.1081 57.9884 83.009 57.8358 82.9249Z" fill="white"/>
<path d="M71.2651 85.1699C71.2651 85.5014 71.2722 85.8329 71.2651 86.1702C71.2579 86.5074 71.0818 86.6889 70.7452 86.7417C70.2599 86.8374 69.7573 86.7918 69.2973 86.6103C69.0766 86.517 68.8306 86.5014 68.5999 86.566C67.53 86.9561 66.5949 86.6346 65.7041 86.0701C64.7617 85.4743 64.2361 84.5769 64.0012 83.5138C63.3324 80.4773 66.3571 77.941 69.1083 78.8398C69.8243 79.0756 70.5662 79.2528 71.0674 79.8915C71.3281 80.2216 71.3438 80.4473 71.0832 80.7731C71.0328 80.8353 70.9777 80.8936 70.9185 80.9475C70.4731 81.3604 70.2368 81.349 69.7957 80.8975C69.5895 80.6778 69.3344 80.5096 69.051 80.4065C68.7676 80.3034 68.4639 80.2683 68.1644 80.3041C67.8649 80.3398 67.578 80.4454 67.327 80.6123C67.076 80.7792 66.8678 81.0027 66.7194 81.2647C66.5307 81.6153 66.4143 82.0001 66.3772 82.3964C66.2725 83.2069 66.4184 84.03 66.7954 84.7555C67.0402 85.2099 67.4126 85.4886 67.9597 85.4528C68.1164 85.4564 68.2692 85.4041 68.3907 85.3054C68.5123 85.2067 68.5945 85.068 68.6228 84.9141C68.6586 84.7584 68.6815 84.5998 68.713 84.444C68.7304 84.3921 68.7372 84.3372 68.7331 84.2826C68.729 84.2279 68.7141 84.1747 68.6891 84.1259C68.6642 84.0771 68.6298 84.0337 68.5879 83.9983C68.5461 83.9629 68.4975 83.9361 68.4452 83.9196C68.0886 83.7767 68.0771 83.4909 68.1144 83.1823C68.1516 82.8736 68.3277 82.5964 68.6371 82.5879C69.3901 82.5714 70.1435 82.5943 70.8941 82.6564C71.0044 82.6636 71.172 82.9322 71.1806 83.0851C71.2121 83.7796 71.1935 84.4769 71.1935 85.1728L71.2651 85.1699Z" fill="white"/>
<path d="M29.286 83.365C29.286 83.8222 29.286 84.2309 29.286 84.6395C29.286 84.9939 29.4694 85.1968 29.8389 85.1925C30.3315 85.1925 30.8227 85.1725 31.314 85.1682C31.9183 85.1682 31.9541 85.2097 31.9083 85.8098C31.9029 85.9696 31.9139 86.1295 31.9412 86.2871C31.9756 86.5629 31.8782 86.6829 31.5818 86.6672C30.3816 86.6043 29.1801 86.5557 27.9799 86.5014L27.7737 86.4943C26.9903 86.4943 26.9044 86.4157 26.8686 85.6155C26.8142 84.3823 26.7784 83.1492 26.7254 81.916C26.6872 81.0253 26.6394 80.1356 26.5822 79.2468C26.5635 78.9353 26.6967 78.8053 26.9989 78.8082L31.6033 78.8553C31.7035 78.8553 31.8038 78.8725 31.9341 78.8853C31.9613 79.284 31.9799 79.6698 32.0143 80.0527C32.0358 80.3042 31.9226 80.3685 31.6906 80.3571C31.1178 80.3299 30.5449 80.2785 29.972 80.3085C29.1657 80.3499 29.329 80.3299 29.3261 80.9772C29.3261 81.9189 29.3261 81.9032 30.2814 81.8346C30.7275 81.8115 31.1748 81.8234 31.619 81.8703C31.6811 81.8905 31.7372 81.9259 31.782 81.9734C31.8268 82.0208 31.8589 82.0787 31.8754 82.1418C31.8997 82.5048 31.8754 82.872 31.8653 83.2378C31.8653 83.4636 31.7049 83.4636 31.556 83.4564C30.9602 83.4307 30.3659 83.3935 29.7715 83.3635C29.6455 83.3592 29.5109 83.365 29.286 83.365Z" fill="white"/>
<path d="M48.8248 86.4033C48.8907 86.1889 48.9423 85.9746 49.0239 85.7603C49.7533 83.877 50.4861 81.9956 51.2222 80.1161C51.3183 79.8471 51.4386 79.5874 51.5817 79.3402C51.9927 78.68 52.6487 78.9115 53.233 78.9415C53.6798 78.9658 53.8703 79.1544 53.9662 79.6217C54.3357 81.3626 54.8483 83.0702 55.4986 84.7272C55.6619 85.1558 55.8567 85.5674 56.007 85.9975C56.1402 86.379 56.0615 86.4747 55.659 86.4804C55.0189 86.489 54.3701 86.509 53.7371 86.4804C53.5652 86.4719 53.3876 86.3161 53.2401 86.1947C53.1599 86.1304 53.1356 85.996 53.0969 85.8903C52.7861 85.1244 52.7861 85.1158 51.9755 85.1887C50.9129 85.2859 50.9945 85.0315 50.4346 86.2004C50.3844 86.3033 50.2756 86.4376 50.1811 86.4476C49.7514 86.499 49.3289 86.5105 48.9022 86.5362L48.8248 86.4033ZM52.1188 84.0013C52.6086 84.0013 52.8506 83.867 52.779 83.5726C52.6882 83.2022 52.5388 82.8487 52.3364 82.5252C52.1531 82.2394 51.8753 82.3094 51.7507 82.641C51.6683 82.8646 51.6036 83.0944 51.5574 83.3283C51.4485 83.8327 51.5917 84.0041 52.1159 84.0013H52.1188Z" fill="white"/>
<path d="M72.0155 82.8668C72.0642 81.9651 72.1014 81.0635 72.1659 80.1633C72.2146 79.4802 72.3091 79.3831 72.9736 79.3331C73.7599 79.2745 74.549 79.2416 75.3366 79.2102C75.8494 79.1902 76.3649 79.1973 76.8776 79.1845C77.0996 79.1773 77.1956 79.273 77.1827 79.4888C77.1827 79.5117 77.1827 79.5345 77.1827 79.5574C77.1827 80.5219 77.0581 80.6405 76.0971 80.6119C75.7334 80.6005 75.3682 80.6119 75.0044 80.6305C74.9272 80.6342 74.8543 80.6675 74.801 80.7234C74.6421 80.932 74.6664 81.8108 74.8612 81.9751C74.9957 82.0754 75.1574 82.1326 75.3252 82.1394C75.6904 82.1637 76.0585 82.1495 76.4251 82.1466C76.7545 82.1466 76.9091 82.3081 76.9063 82.631C76.9063 82.721 76.9063 82.8139 76.9063 82.9039C76.8776 83.5284 76.7402 83.6527 76.1143 83.6641C75.7491 83.6641 75.3839 83.7055 75.0187 83.727C74.9783 83.7234 74.9376 83.7291 74.8997 83.7436C74.8619 83.7581 74.8278 83.7811 74.8002 83.8107C74.7726 83.8403 74.7521 83.8759 74.7403 83.9146C74.7285 83.9533 74.7258 83.9942 74.7323 84.0342C74.7423 84.3428 74.7452 84.6515 74.7609 84.9601C74.7767 85.2688 75.0001 85.3031 75.2249 85.3002C75.6546 85.3002 76.0928 85.2516 76.5268 85.2473C77.0996 85.2473 77.4104 85.6589 77.1784 86.179C77.0646 86.3642 76.8916 86.5057 76.6872 86.5805C76.544 86.6434 76.3506 86.5891 76.1788 86.5805L74.3628 86.5091C73.9747 86.4962 73.5837 86.5091 73.1985 86.4733C72.4323 86.4019 72.1415 86.1104 72.1129 85.3302C72.0828 84.51 72.1057 83.687 72.1057 82.8653L72.0155 82.8668Z" fill="white"/>
<path d="M65.1239 88.7578C65.7999 88.8493 66.4816 88.9164 67.1533 89.0436C67.414 89.0929 67.6596 89.2018 67.8711 89.3617C68.0825 89.5216 68.254 89.7282 68.372 89.9652C68.6181 90.4057 68.7679 90.8932 68.8116 91.3957C68.8553 91.8981 68.7919 92.404 68.6255 92.8802C68.3391 93.7576 67.6331 94.1662 66.7867 94.262C66.0241 94.3229 65.2578 94.3229 64.4952 94.262C64.0756 94.2434 63.8994 94.0405 63.8522 93.6347C63.6861 92.2272 63.5658 90.8183 63.709 89.3994C63.7433 89.0307 63.9052 88.855 64.2589 88.8436C64.5453 88.835 64.8318 88.8436 65.1182 88.8436L65.1239 88.7578ZM66.8597 91.7428C66.8307 91.398 66.7828 91.055 66.7165 90.7154C66.6434 90.4154 66.3098 90.2867 65.9231 90.3553C65.8593 90.3592 65.7971 90.3763 65.7402 90.4054C65.6834 90.4345 65.6332 90.475 65.5928 90.5244C65.5525 90.5738 65.5228 90.631 65.5057 90.6924C65.4886 90.7538 65.4844 90.8181 65.4934 90.8812C65.5278 91.5051 65.5755 92.1281 65.6366 92.7502C65.6682 93.0503 65.8615 93.1789 66.168 93.136C66.4744 93.0931 66.6749 92.9588 66.7408 92.673C66.8067 92.3873 66.821 92.06 66.8597 91.7428Z" fill="white"/>
<path d="M60.2447 92.8488C60.2195 92.984 60.2013 93.1204 60.1902 93.2574C60.1902 93.4403 60.2074 93.6233 60.2089 93.8047C60.2158 93.8534 60.2115 93.903 60.1961 93.9497C60.1808 93.9964 60.1548 94.0389 60.1204 94.074C60.0859 94.1091 60.0437 94.1358 59.9973 94.1521C59.9508 94.1683 59.9011 94.1736 59.8522 94.1677C59.5902 94.1677 59.3281 94.1934 59.066 94.2034C58.6492 94.2191 58.3628 94.0019 58.3499 93.6318C58.3184 92.2986 58.2855 90.964 58.2783 89.6309C58.2783 88.9821 58.4502 88.7907 59.0918 88.8007C59.994 88.8135 60.8977 88.8535 61.7942 88.9436C62.4988 89.0193 62.9485 89.5037 63.0832 90.181C63.2264 90.8955 63.0001 91.4799 62.4201 91.8771C62.1107 92.09 62.095 92.2844 62.3342 92.6259C62.5982 92.9821 62.842 93.3527 63.0645 93.7361C63.2436 94.0691 63.1634 94.152 62.7781 94.1462C62.4917 94.1348 62.2049 94.1376 61.9188 94.1548C61.3789 94.202 61.0309 93.9662 60.7975 93.4918C60.6651 93.2532 60.5193 93.0223 60.3607 92.8002L60.2447 92.8488ZM61.167 90.7783C61.0953 90.4339 60.998 90.181 60.7072 90.0367C60.3693 89.8709 60.153 89.9952 60.1344 90.3768C60.1233 90.5672 60.1261 90.7583 60.143 90.9483C60.1802 91.3341 60.511 91.507 60.8247 91.2755C60.9779 91.1712 61.0552 90.9498 61.167 90.7783Z" fill="white"/>
<path d="M39.9712 92.5029C39.9899 92.8058 39.9956 93.1088 40.0328 93.4088C40.1288 94.2005 39.9011 94.4219 39.1162 94.2776C38.5291 94.1705 38.257 93.9175 38.2226 93.3231C38.1538 91.9756 38.1109 90.6282 38.0794 89.2793C38.0693 88.7949 38.1538 88.7306 38.6436 88.7077C39.4213 88.6791 40.2018 88.6248 40.9766 88.662C42.244 88.7234 43.026 90.2009 42.383 91.2698C42.2842 91.4358 42.1544 91.5813 42.0006 91.6984C41.7013 91.9199 41.6755 92.1757 41.843 92.4758C41.9476 92.6644 42.0779 92.8401 42.1853 93.0287C42.3014 93.2246 42.4052 93.4274 42.4961 93.636C42.5892 93.8632 42.4961 94.019 42.2526 94.0647C41.2731 94.2562 40.9637 94.0761 40.6572 93.3274C40.5662 93.106 40.459 92.8915 40.3364 92.6858C40.2659 92.5935 40.1836 92.5109 40.0915 92.44L39.9712 92.5029ZM40.2262 89.8651C40.06 90.0666 39.8824 90.1866 39.8552 90.3352C39.8022 90.6296 39.6418 91.0083 40.0113 91.1926C40.1545 91.2598 40.4324 91.1383 40.5842 91.0226C40.6807 90.9463 40.7447 90.8364 40.7633 90.715C40.7819 90.5936 40.7537 90.4696 40.6844 90.3681C40.5482 90.1862 40.3947 90.0177 40.2262 89.8651Z" fill="white"/>
<path d="M54.8856 88.8521C56.6042 88.8521 57.7313 89.9566 57.7227 91.647C57.7141 93.4517 56.4338 94.4005 55.2265 94.4105C53.5079 94.4248 52.282 93.2674 52.282 91.647C52.2834 89.9266 53.2845 88.8521 54.8856 88.8521ZM55.9254 91.567C55.8652 91.1497 55.8366 90.7982 55.7592 90.4567C55.6819 90.1152 55.3367 89.8309 55.0646 89.8309C54.6866 89.8309 54.5133 90.1052 54.3658 90.4024C54.3346 90.4632 54.3142 90.529 54.3056 90.5968C54.2247 91.3126 54.3308 92.0372 54.6135 92.7001C54.6665 92.802 54.7393 92.8923 54.8275 92.9659C54.9158 93.0394 55.0178 93.0948 55.1277 93.1288C55.4069 93.1988 55.6017 92.9473 55.6762 92.7087C55.7979 92.3143 55.8537 91.9085 55.9268 91.5641L55.9254 91.567Z" fill="white"/>
<path d="M46.7224 89.9527H44.9279C44.9124 90.2385 44.9176 90.525 44.9436 90.81C44.9565 90.8901 45.1542 90.9901 45.2716 90.9958C45.6468 91.0158 46.0263 90.9958 46.403 90.9886C46.5892 90.9886 46.6765 91.0615 46.6694 91.2544C46.625 92.2861 46.8126 92.0861 45.8846 92.0732C45.6325 92.0732 45.3804 92.0732 45.1298 92.0646C44.8792 92.056 44.8133 92.1775 44.8019 92.3976C44.7718 93.0048 44.9121 93.1835 45.5179 93.232C45.8129 93.2549 46.1123 93.2435 46.4087 93.2578C46.6307 93.2678 46.7524 93.3735 46.6951 93.615C46.6829 93.6617 46.6762 93.7096 46.6751 93.7579C46.6593 94.3052 46.6608 94.3037 46.1137 94.2823C45.3031 94.2509 44.4911 94.2123 43.6791 94.1937C43.4069 94.1937 43.2738 94.0665 43.2494 93.8122C43.2236 93.505 43.2107 93.1978 43.1964 92.8891C43.1391 91.7045 43.089 90.5171 43.0231 89.3325C43.0059 89.0225 43.1033 88.9039 43.427 88.9153C44.3994 88.931 45.3718 88.9153 46.3443 88.9153C46.6049 88.9153 46.7553 88.9839 46.7281 89.2825C46.7109 89.4912 46.7224 89.7055 46.7224 89.9527Z" fill="white"/>
<path d="M50.0521 88.7848C50.678 88.7848 51.2594 88.9177 51.7105 89.3907C52.0099 89.705 52.017 90.038 51.7421 90.2937C51.4671 90.5495 51.1291 90.5795 50.847 90.2437C50.509 89.8508 50.1209 89.8251 49.6712 89.958C49.4506 90.0099 49.2508 90.1268 49.0976 90.2934C48.9444 90.4601 48.8448 90.6687 48.8119 90.8925C48.7538 91.2404 48.7655 91.5964 48.8463 91.9399C49.0296 92.7 49.5838 92.9887 50.3314 92.7486C50.5881 92.6536 50.8367 92.5379 51.0747 92.4028C51.4327 92.2156 51.7005 92.2828 51.9569 92.64C52.2132 92.9973 52.1817 93.243 51.8681 93.5117C51.0417 94.2261 50.0879 94.2847 49.0897 94.0089C48.0586 93.7231 47.311 93.1116 47.0761 92.0284C46.9659 91.4612 47.0465 90.8735 47.3055 90.3567C47.5645 89.84 47.9873 89.423 48.5083 89.1706C48.9823 88.9449 49.5108 88.8477 50.0263 88.6934L50.0521 88.7848Z" fill="white"/>
<path d="M71.1777 88.8765C71.5251 88.9258 71.8686 88.9988 72.206 89.0951C72.5869 89.2294 72.7602 89.5395 72.6442 89.871C72.6125 89.9692 72.5613 90.0601 72.4936 90.1382C72.426 90.2162 72.3432 90.2799 72.2504 90.3254C72.0871 90.3783 71.8465 90.2711 71.6775 90.1825C71.4727 90.0725 71.3181 89.871 71.1133 89.761C70.9085 89.6509 70.602 89.6509 70.5089 89.8838C70.4373 90.0667 70.5089 90.344 70.5963 90.5411C70.6564 90.6726 70.854 90.7569 71.0073 90.8269C71.2673 90.9443 71.5336 91.0474 71.805 91.1356C72.9507 91.5171 72.9736 92.9517 72.3535 93.6233C71.7334 94.2949 71.0144 94.4006 70.1924 94.1863C69.9831 94.1314 69.7808 94.0528 69.5895 93.952C69.0796 93.6833 68.9894 93.1746 69.3532 92.7231C69.5379 92.4945 69.7198 92.463 69.9661 92.6574C70.1737 92.8332 70.4114 92.9702 70.6679 93.0617C70.757 93.0814 70.8495 93.0801 70.9381 93.0577C71.0266 93.0354 71.1087 92.9927 71.1777 92.9331C71.2493 92.8517 71.1906 92.5745 71.1018 92.4487C70.9744 92.2904 70.8095 92.1662 70.622 92.0872C70.3557 91.9615 70.0606 91.8943 69.79 91.7757C68.9421 91.4042 68.7073 90.4668 69.2644 89.7281C69.6883 89.1537 70.2311 88.9279 71.1777 88.8765Z" fill="white"/>
</g>
<defs>
<clipPath id="clip0_3807_30155">
<rect width="62.4773" height="79.4104" fill="white" transform="translate(24 15)"/>
</clipPath>
</defs>
</svg>
