<svg width="98" height="23" viewBox="0 0 98 23" fill="none" xmlns="http://www.w3.org/2000/svg">
<g clip-path="url(#clip0_3807_30181)">
<path d="M-6.10352e-05 2.41451H0.417059C1.5256 2.41451 2.63415 2.42811 3.74194 2.4062C4.09785 2.39864 4.21573 2.48705 4.2112 2.85959C4.19079 4.50918 4.20213 6.15953 4.20213 7.80988V8.23456C4.27014 8.22171 4.31548 8.227 4.33664 8.20735C5.90613 6.72627 7.78695 6.4769 9.79397 6.90158C12.8619 7.55069 14.9475 10.0164 15.2528 13.2959C15.4266 15.1654 15.1772 16.9608 14.2591 18.6354C12.8037 21.2877 9.37458 22.7219 6.47589 21.862C5.50635 21.585 4.65116 21.0045 4.03589 20.2056C4.03589 20.5714 4.05251 20.9386 4.02531 21.3028C4.01775 21.4101 3.88702 21.596 3.8107 21.5968C2.55329 21.6149 1.29513 21.6096 0.00296223 21.6096L-6.10352e-05 2.41451ZM11.0922 14.4052C11.0166 14.0115 10.9735 13.6088 10.8655 13.2256C10.1703 10.8227 7.15598 9.9378 5.29027 11.5904C4.26258 12.4972 3.90365 13.679 4.10012 15.0037C4.3049 16.3813 5.0069 17.4384 6.37917 17.8971C8.74059 18.6868 11.0408 16.9556 11.0922 14.4052Z" fill="white"/>
<path d="M21.1129 15.7241C21.264 16.6203 21.6608 17.2928 22.3386 17.7931C23.5204 18.6651 25.6453 18.8336 26.8393 17.3231C26.9224 17.218 27.0803 17.1107 27.205 17.1092C28.4511 17.0933 29.6987 17.0986 30.944 17.0986H31.3067C31.3091 17.1517 31.3043 17.2048 31.2923 17.2566C30.2798 19.5024 28.705 21.1648 26.2786 21.8313C21.9169 23.0298 17.3777 19.8303 16.9719 15.3032C16.7059 12.3358 17.748 9.90557 20.126 8.11316C22.4746 6.34946 25.7934 6.22402 28.2629 7.82223C30.9561 9.56704 32.0072 12.1514 31.8228 15.2994C31.8032 15.6357 31.6807 15.7354 31.3414 15.7347C28.1065 15.7241 24.8708 15.7241 21.6358 15.7241H21.1129ZM21.2044 12.7891H27.5473C27.4317 11.5106 26.0556 10.402 24.567 10.359C22.8675 10.3083 21.4242 11.333 21.2044 12.7914V12.7891Z" fill="white"/>
<path d="M82.933 15.7239C82.9767 16.1215 83.1013 16.506 83.2991 16.8538C83.4969 17.2015 83.7637 17.5051 84.0831 17.746C85.2748 18.6762 87.4518 18.8417 88.6442 17.3236C88.745 17.2015 88.8901 17.1243 89.0477 17.109C90.3565 17.0931 91.6661 17.0992 92.9771 17.1014C93.0383 17.1088 93.0987 17.1214 93.1577 17.1392C92.7308 18.1397 92.1845 19.0359 91.4386 19.7923C89.0077 22.261 85.7486 22.7658 82.6844 21.1691C80.0676 19.8052 78.4217 16.6684 78.755 13.7259C79.0202 11.4038 80.0313 9.5003 81.9204 8.1099C84.2886 6.3666 87.5878 6.22076 90.0611 7.81595C92.7716 9.5668 93.8167 12.1655 93.6255 15.3271C93.6051 15.6619 93.463 15.7314 93.1525 15.7307C89.9167 15.7201 86.6818 15.7239 83.4461 15.7239H82.933ZM83.0086 12.7768H89.3765C89.0855 11.3063 87.7692 10.3383 86.1271 10.3534C84.5728 10.3701 83.2473 11.3887 83.0063 12.7768H83.0086Z" fill="white"/>
<path d="M52.2988 15.7238C52.4899 17.1746 53.6098 18.2401 55.0773 18.4169C56.2297 18.556 57.2203 18.2583 57.9843 17.3348C58.0772 17.223 58.2473 17.1081 58.3833 17.1081C59.7057 17.093 61.0281 17.1006 62.3505 17.1036C62.4092 17.1156 62.4667 17.1333 62.522 17.1565C62.3036 17.5661 62.1192 17.9741 61.882 18.3489C60.3215 20.8078 58.1513 22.196 55.1649 22.0584C51.0209 21.868 47.8502 18.2129 48.0973 13.9435C48.2817 10.7607 50.4678 7.90882 53.3945 7.03226C57.5906 5.77636 61.8192 8.28438 62.7774 12.6483C62.9641 13.4969 62.9285 14.3953 62.9799 15.2719C63.0011 15.612 62.8477 15.7344 62.4812 15.7321C59.2447 15.717 56.0083 15.723 52.771 15.723L52.2988 15.7238ZM58.7044 12.807C58.5813 11.6629 57.3571 10.2521 55.3199 10.3526C53.6083 10.4365 52.4484 11.7883 52.3872 12.807H58.7044Z" fill="white"/>
<path d="M70.9369 16.1064C71.0662 15.6877 71.1976 15.2698 71.3246 14.8505C72.0553 12.4286 72.7898 10.0082 73.5084 7.58333C73.5908 7.3045 73.7125 7.20551 74.0041 7.20551C75.1996 7.22062 76.3965 7.21155 77.592 7.21306C77.7144 7.21306 77.8361 7.22667 78.0136 7.23724C77.8096 7.82741 77.6267 8.37073 77.4341 8.91328C76.1379 12.5535 74.8412 16.193 73.544 19.8317C73.3626 20.3418 73.1956 20.8571 72.9893 21.3574C72.9549 21.4219 72.9059 21.4776 72.8462 21.5198C72.7865 21.562 72.7178 21.5898 72.6455 21.6007C71.4742 21.6189 70.303 21.6007 69.1324 21.6188C68.84 21.6234 68.7803 21.4519 68.707 21.241C67.7262 18.4511 66.7438 15.6618 65.76 12.8729C65.1403 11.1168 64.5199 9.36063 63.8988 7.60449C63.8618 7.50021 63.8346 7.39215 63.7862 7.23044C63.9373 7.22213 64.0597 7.2108 64.1776 7.2108C65.3738 7.2108 66.57 7.21835 67.7662 7.20324C68.0541 7.19946 68.1849 7.28863 68.2687 7.56973C69.0748 10.2714 69.8896 12.9704 70.7133 15.6666C70.7556 15.8081 70.7974 15.9499 70.8387 16.092L70.9369 16.1064Z" fill="white"/>
<path d="M38.4529 12.0501C38.4529 15.0848 38.4476 18.1187 38.4605 21.1534C38.4605 21.5131 38.369 21.6302 37.9988 21.6227C36.8653 21.6 35.7318 21.6046 34.5983 21.6227C34.2824 21.6272 34.1933 21.5237 34.194 21.2131C34.2016 15.0812 34.2016 8.94912 34.194 2.81673C34.194 2.50691 34.2794 2.40414 34.5968 2.40943C35.7424 2.42606 36.8879 2.42833 38.0335 2.40943C38.3683 2.40339 38.4597 2.50389 38.4582 2.83487C38.4529 5.90509 38.4529 8.97758 38.4529 12.0501Z" fill="white"/>
<path d="M41.5239 14.3892C41.5239 12.1359 41.5307 9.88328 41.5164 7.62992C41.5164 7.29441 41.6139 7.20146 41.9433 7.20675C43.0881 7.22565 44.2337 7.22187 45.3785 7.20675C45.6649 7.20675 45.7752 7.27854 45.7745 7.58458C45.7664 12.1412 45.7664 16.6975 45.7745 21.2536C45.7745 21.5392 45.6808 21.6193 45.4042 21.6163C44.2337 21.6042 43.0617 21.6012 41.8935 21.6163C41.5806 21.6208 41.5156 21.5007 41.5156 21.2188C41.5277 18.9451 41.5239 16.6668 41.5239 14.3892Z" fill="white"/>
<path d="M43.6314 4.83704C42.3098 4.83024 41.2594 3.74739 41.2692 2.40157C41.2791 1.05575 42.3423 -0.0119888 43.6669 0.000101671C44.304 0.0114317 44.9109 0.27378 45.3557 0.730119C45.8004 1.18646 46.047 1.7999 46.0419 2.43709C46.0276 3.76553 44.9432 4.84233 43.6314 4.83704Z" fill="white"/>
<path d="M97.9395 20.2771C97.9395 21.2972 97.1582 22.0846 96.1554 22.0793C95.6744 22.0769 95.2141 21.8835 94.8757 21.5417C94.5373 21.1999 94.3485 20.7377 94.3509 20.2567C94.3533 19.7757 94.5467 19.3154 94.8885 18.9769C95.2303 18.6385 95.6926 18.4498 96.1736 18.4522C97.1672 18.4529 97.941 19.2547 97.9395 20.2771ZM97.5579 20.2877C97.567 19.4927 96.9534 18.833 96.1917 18.8217C95.43 18.8104 94.7839 19.4428 94.7658 20.2325C94.7476 21.0221 95.393 21.7204 96.1562 21.7264C96.9194 21.7325 97.5496 21.0743 97.5579 20.2877Z" fill="white"/>
<path d="M95.9031 20.52V21.2197H95.3922C95.3922 20.6152 95.3854 20.0159 95.4028 19.4175C95.4028 19.3555 95.5441 19.2565 95.6295 19.2459C95.8283 19.221 96.0436 19.1976 96.234 19.2459C96.4721 19.3124 96.7789 19.3971 96.8877 19.5784C96.9889 19.7462 96.8695 20.0469 96.7925 20.2706C96.8627 20.5683 96.9338 20.8668 97.0146 21.2106H96.5242C96.4033 20.931 96.5718 20.3802 95.9031 20.52ZM95.9582 19.5625L95.8539 19.6827C95.9008 19.8338 95.9106 20.0235 96.0096 20.1255C96.0602 20.1769 96.2892 20.0998 96.4018 20.0265C96.4562 19.9903 96.4706 19.7613 96.4313 19.7379C96.2892 19.6532 96.1177 19.617 95.9582 19.5625Z" fill="white"/>
</g>
<defs>
<clipPath id="clip0_3807_30181">
<rect width="97.9395" height="22.1135" fill="white"/>
</clipPath>
</defs>
</svg>
