<svg width="100" height="100" viewBox="0 0 100 100" fill="none" xmlns="http://www.w3.org/2000/svg">
<path fill-rule="evenodd" clip-rule="evenodd" d="M97.038 55.2244C96.8414 55.2207 96.646 55.2562 96.4633 55.3289C96.2806 55.4016 96.1142 55.51 95.9739 55.6478C95.8335 55.7855 95.722 55.9498 95.6459 56.1312C95.5698 56.3125 95.5306 56.5072 95.5306 56.7038C95.5306 56.9005 95.5698 57.0951 95.6459 57.2764C95.722 57.4578 95.8335 57.6221 95.9739 57.7598C96.1142 57.8976 96.2806 58.006 96.4633 58.0787C96.646 58.1514 96.8414 58.1869 97.038 58.1832C97.2324 58.183 97.4247 58.1445 97.6041 58.0698C97.7835 57.9951 97.9464 57.8858 98.0835 57.748C98.2206 57.6103 98.3291 57.4468 98.4029 57.2671C98.4767 57.0873 98.5143 56.8948 98.5136 56.7004C98.5136 56.5066 98.4755 56.3147 98.4014 56.1356C98.3273 55.9565 98.2186 55.7938 98.0816 55.6567C97.9446 55.5197 97.7819 55.4109 97.6028 55.3367C97.4238 55.2626 97.2318 55.2244 97.038 55.2244ZM97.038 58.0053C96.8668 58.0055 96.6972 57.9718 96.539 57.9063C96.3808 57.8407 96.2371 57.7446 96.1162 57.6233C95.9953 57.5021 95.8995 57.3581 95.8344 57.1997C95.7693 57.0414 95.7361 56.8717 95.7368 56.7004C95.7369 56.5297 95.7706 56.3607 95.8361 56.2031C95.9015 56.0455 95.9975 55.9023 96.1183 55.7818C96.2392 55.6612 96.3826 55.5657 96.5404 55.5007C96.6983 55.4357 96.8673 55.4024 97.038 55.4029C97.2084 55.4029 97.3771 55.4364 97.5345 55.5016C97.6919 55.5669 97.8349 55.6624 97.9554 55.7829C98.0758 55.9034 98.1714 56.0465 98.2365 56.2039C98.3017 56.3613 98.3352 56.5301 98.3351 56.7004C98.3359 56.8714 98.303 57.0408 98.2382 57.1989C98.1734 57.3571 98.078 57.5009 97.9575 57.6222C97.837 57.7434 97.6937 57.8396 97.536 57.9054C97.3782 57.9711 97.209 58.0051 97.038 58.0053Z" fill="white"/>
<path fill-rule="evenodd" clip-rule="evenodd" d="M97.7971 56.3131C97.7971 56.1735 97.7354 56.0267 97.6119 55.9567C97.4874 55.883 97.3483 55.8757 97.2088 55.8757H96.4881V57.5292H96.6899V56.7665H97.0619L97.5341 57.5292H97.7743L97.2747 56.7665C97.5693 56.7582 97.7971 56.6384 97.7971 56.3131ZM96.9997 56.6073H96.6894V56.0226H97.1615C97.367 56.0226 97.5922 56.0537 97.5922 56.3095C97.5927 56.6462 97.2316 56.6073 96.9997 56.6073ZM88.3659 48.3191L91.3907 45.0894C91.566 44.8523 91.6532 44.6863 91.6532 44.5441C91.6532 44.307 91.4493 44.2121 90.808 44.2121H90.0449V42.1731H98.3055V44.2121H97.2202C95.9667 44.2121 95.7337 44.4014 93.9848 46.6064L89.1997 51.7739V54.9273C89.1997 55.7341 89.607 56.0179 90.7733 56.0179H92.5798V57.9853H81.0096V56.0179H82.8161C83.9814 56.0179 84.3897 55.7341 84.3897 54.9273V51.7739L78.7537 45.5392C77.8224 44.4492 77.9511 44.2121 75.358 44.2121V42.1731H85.8216V44.2121H85.0766C84.3186 44.2121 83.9975 44.3542 83.9975 44.6385C83.9975 44.8762 84.2304 45.0655 84.3762 45.2549L87.2276 48.3627C87.5664 48.7149 87.9799 48.7606 88.3659 48.3191ZM18.1604 42.1726H20.6845V47.862H18.3534C18.1469 46.7247 17.4351 46.2822 16.786 45.6855C15.615 44.6095 13.079 43.7135 10.9461 43.7135C8.19328 43.7135 5.86999 44.5675 5.86999 45.823C5.86999 49.3085 21.6137 46.5348 21.6137 53.1249C21.6137 56.5621 18.2413 58.4823 12.1851 58.4823C10.0885 58.4823 6.91593 57.8317 5.04402 56.8376C4.45723 56.4988 4.2082 57.1583 4.09821 57.9847H1.51032V52.1054H3.85125C4.36748 53.5991 5.07878 53.9068 5.73302 54.4998C6.8682 55.5432 9.57023 56.3022 12.0481 56.2778C15.7842 56.241 17.0688 55.4243 17.0688 54.2388C17.0688 53.0538 15.7982 52.769 11.7042 52.1293L8.22804 51.5602C4.30522 50.9671 1.4491 50.0903 1.4491 46.9613C1.4491 43.7135 5.06218 41.6745 10.7749 41.6745C13.1823 41.6745 15.1963 41.9962 17.1295 43.0888C17.6649 43.4369 18.1671 43.4785 18.1604 42.1726ZM67.4195 51.6982L67.4693 45.3747C67.4693 44.5452 67.0377 44.2608 65.8044 44.2608H64.3553V42.2935H73.5748V44.2608H72.3732C71.1389 44.2608 70.7073 44.5457 70.7073 45.3747V58.1051L67.0989 58.0766L55.4129 47.0106V55.0472C55.4129 55.8534 55.8446 56.1611 57.0778 56.1611H58.682V58.1051H49.1071V56.1611H50.6937C51.9269 56.1611 52.3586 55.8529 52.3586 55.0472V45.3747C52.3586 44.5452 51.9269 44.2608 50.6937 44.2608H49.1071V42.2935H57.3855L67.4195 51.6982ZM36.5376 41.5552C29.19 41.5552 24.5907 44.8035 24.5907 50.0182C24.5907 55.1395 29.1262 58.363 36.3135 58.363C43.9474 58.363 48.388 55.1867 48.388 49.7578C48.3886 44.8746 43.5967 41.5552 36.5376 41.5552ZM36.3705 56.3012C32.3035 56.3012 29.9657 53.954 29.9657 49.8999C29.9657 45.9413 32.4052 43.5942 36.5739 43.5942C40.573 43.5942 42.9108 45.989 42.9108 50.0665C42.9108 54.0489 40.5388 56.3012 36.3705 56.3012Z" fill="white"/>
</svg>
