<svg width="84" height="85" viewBox="0 0 84 85" fill="none" xmlns="http://www.w3.org/2000/svg">
<g clip-path="url(#clip0_3807_30194)">
<path d="M26.27 41.0379H31.0143C31.1127 41.409 31.2008 41.733 31.2808 42.0631C31.7052 43.7853 33.3987 44.6443 34.9077 43.7463C35.4203 43.4408 35.8344 42.6474 35.9185 42.0261C36.0251 41.2655 35.5474 40.5684 34.7047 40.349C34.1553 40.2076 33.5791 40.1625 32.8595 40.0518C32.8595 39.123 32.8287 38.1778 32.8882 37.2367C32.8985 37.0584 33.247 36.8267 33.4807 36.7549C33.8662 36.6319 34.3008 36.6504 34.6863 36.5499C35.3793 36.3777 35.8488 35.9615 35.8529 35.1967C35.857 34.432 35.4428 33.9215 34.715 33.6796C33.3044 33.2059 32.0045 33.8292 31.4961 35.2234C31.4264 35.41 31.3833 35.6068 31.3218 35.82H26.5837C26.7067 33.6447 27.4468 31.9245 29.3023 30.7251C32.0004 28.9886 36.7386 29.2202 39.1435 31.2561C41.0564 32.8738 41.2266 35.3792 39.5536 37.2183C39.3281 37.4664 39.0984 37.7124 38.7888 38.0384C40.8124 38.8585 41.4091 40.4392 41.2738 42.4013C41.12 44.5992 39.98 46.2046 38.0692 47.1928C35.2419 48.6526 32.3285 48.8125 29.4171 47.3978C27.3012 46.383 25.905 43.5454 26.27 41.0379Z" fill="white"/>
<path d="M49.9709 47.8018C49.9709 46.8341 49.9197 45.9177 49.9873 45.0094C50.0468 44.1893 49.8315 43.8715 48.9314 43.8961C46.6146 43.9617 44.2917 43.9187 41.7904 43.9187C41.7904 42.4486 41.7596 41.0606 41.8129 39.6746C41.8252 39.3835 42.1041 39.0718 42.3214 38.8197C44.6833 36.0805 47.037 33.3373 49.4522 30.6412C49.8274 30.2771 50.3204 30.0589 50.8423 30.0261C52.2672 29.9482 53.6983 29.9995 55.2503 29.9995V39.7628H57.5794V43.9105H55.3241V47.8059L49.9709 47.8018ZM49.8848 39.7505V35.0677L45.8089 39.7423L49.8848 39.7505Z" fill="white"/>
<path d="M8.64393 61.1588L20.1684 56.6482L20.3919 57.0747L10.0053 64.4556C8.53322 61.6672 6.98117 58.7313 5.33276 55.6128C5.50941 55.6195 5.68508 55.6421 5.85763 55.6805C6.15697 56.7938 6.72284 56.7343 7.627 56.2484C10.5671 54.6718 13.5604 53.1976 16.5087 51.6333C16.7568 51.5021 16.8532 51.0182 16.9331 50.6697C16.9782 50.4646 16.8491 50.2329 16.9331 49.9951C17.7751 51.9483 18.6171 53.9029 19.459 55.8589C18.9854 54.9875 18.4831 55.4262 17.8557 55.7727C15.1391 57.2674 12.3877 58.6964 9.65471 60.1541C9.26106 60.3592 8.87561 60.5949 8.48811 60.8184L8.64393 61.1588ZM16.6891 58.6595L16.5805 58.4237L8.81 61.534L9.79208 63.2623L16.6891 58.6595ZM18.4052 54.3704L18.2658 53.9378C18.0095 53.9767 17.7184 53.9521 17.499 54.0649C14.3477 55.6825 11.2006 57.3084 8.06781 58.967C7.86278 59.0716 7.82178 59.4653 7.70286 59.7256L8.0022 59.8733L18.4052 54.3704ZM6.87661 57.9481L7.04268 58.2987C7.38154 58.2423 7.71349 58.1502 8.03295 58.0239C9.39228 57.3227 10.7311 56.5888 12.0802 55.8671C13.7634 54.9711 15.4549 54.0895 17.1279 53.1751C17.3124 53.0746 17.4108 52.8101 17.5482 52.6215C17.3063 52.601 17.0643 52.5641 16.8224 52.5661C16.7342 52.5661 16.6481 52.6646 16.5579 52.7117C13.5687 54.2576 10.5773 55.7871 7.5942 57.3535C7.33479 57.5259 7.09427 57.7252 6.87661 57.9481Z" fill="white"/>
<path d="M71.9354 65.132C72.079 64.9269 72.3147 64.7219 72.3455 64.4902C72.3762 64.2586 72.3065 63.8157 72.1302 63.7009C69.2598 61.8557 66.3895 60.0371 63.5048 58.2103C63.025 57.9048 62.6416 57.8679 62.3197 58.4317C62.2193 58.6039 62.004 58.7106 61.719 58.9525L66.0532 51.5039C66.0758 51.7376 66.1824 51.9857 66.1004 52.119C65.5632 53.0478 66.1127 53.386 66.8385 53.8207C69.6986 55.5327 72.5198 57.3061 75.4496 59.1309L76.1754 57.9007L76.4091 58.036C75.2917 60.6194 73.8114 62.9997 72.1815 65.2919L71.9354 65.132ZM64.4253 55.3645L64.206 55.6352C64.3672 55.8471 64.5538 56.0386 64.7616 56.2051C67.6729 58.0148 70.5932 59.8122 73.5223 61.5973C73.6802 61.6937 73.9324 61.624 74.1497 61.6301C74.1132 61.3956 74.0485 61.1664 73.957 60.9474C73.8852 60.8162 73.6843 60.7567 73.5367 60.6706C70.7401 58.9908 67.9415 57.315 65.1409 55.6434C64.9114 55.5287 64.6719 55.4353 64.4253 55.3645ZM74.9903 60.2647L75.0272 59.9366C71.9026 58.0408 68.776 56.1477 65.6473 54.2574C65.5017 54.1692 65.2557 54.2451 65.0568 54.2451C65.2066 54.5788 65.4558 54.858 65.7703 55.0447C66.6232 55.6024 67.47 56.1682 68.3393 56.6993C70.2481 57.8679 72.161 59.0284 74.0923 60.158C74.3301 60.2975 74.6869 60.2339 74.9903 60.2647ZM63.6093 56.8612C66.7893 58.9607 69.8298 61.2754 73.1922 63.0592C73.2865 62.9033 73.3809 62.7455 73.4772 62.5896C70.3273 60.4496 67.0297 58.5354 63.6093 56.8612Z" fill="white"/>
<path d="M38.2435 15.9999L39.123 15.6841C39.6233 14.1383 40.1482 12.6231 40.589 11.0834C40.7269 10.5611 40.7445 10.0142 40.6402 9.48417C40.3758 8.1105 39.9985 6.75938 39.7115 5.38365C39.5187 4.46514 39.4757 3.46051 38.0139 3.67989C41.0134 3.31494 43.9227 3.49127 46.83 3.71269L46.8607 3.97308L45.5445 4.10839V8.56155C45.5445 10.5421 45.5711 12.5247 45.5219 14.5073C45.5014 15.3725 45.4706 16.1475 46.6085 16.1578H38.2906L38.2435 15.9999ZM43.0206 15.4484V3.84186C40.6689 7.88702 42.0467 11.6779 43.0206 15.4525V15.4484ZM44.1298 15.6821H44.4947V4.04484H44.0703C44.0334 7.92392 43.9432 11.8051 44.1298 15.6862V15.6821ZM39.5187 15.7703C40.1064 15.7935 40.6949 15.7874 41.282 15.7518C41.487 15.7272 41.8601 15.4668 41.8417 15.3705C41.6059 14.0439 41.3127 12.7297 41.0359 11.4114L40.7345 11.4237C40.3491 12.8076 39.9636 14.1875 39.5187 15.7744V15.7703ZM42.4178 3.86441L40.4516 3.7455C40.7079 5.10482 40.9293 6.28372 41.1507 7.46466L41.4193 7.44621C41.7392 6.30012 42.0611 5.14992 42.4178 3.86851V3.86441Z" fill="white"/>
<path d="M67.5888 45.5482V38.7578C67.7938 38.8439 67.9579 38.887 67.9558 38.9177C67.8574 40.1479 68.5955 40.1889 69.5509 40.1848C72.4479 40.1725 75.347 40.2319 78.244 40.3037C79.1543 40.3242 79.8247 40.2155 79.5726 39.053C79.5603 38.9936 79.671 38.9054 79.8493 38.6553V45.8476L79.4926 45.864L79.347 44.2935C77.5695 44.2935 75.8062 44.3119 74.043 44.2935C72.3372 44.273 70.6293 44.275 68.9297 44.1479C67.7508 44.0536 67.8779 44.886 67.5888 45.5482ZM79.5418 41.7102C78.7525 41.1156 69.0404 40.8737 68.1157 41.3616C68.6611 41.9377 78.0021 42.2432 79.5418 41.7102ZM68.1793 42.6656L68.1526 43.2068H79.4188L79.4311 42.9116C75.6894 42.4975 71.9313 42.723 68.1793 42.6656Z" fill="white"/>
<path d="M26.9937 68.9149L29.6734 65.4623L29.8969 65.5853L25.2223 76.2077L26.4319 76.9376L26.2536 77.2513L18.2678 72.7407L18.3683 72.4865C18.5733 72.5685 18.7927 72.7325 18.9834 72.714C19.2642 72.6874 19.6599 72.6054 19.785 72.4086C21.5988 69.53 23.3894 66.6357 25.1567 63.7257C25.3247 63.391 25.4619 63.0417 25.5667 62.6821L27.9881 64.3633C25.7062 67.6069 23.8302 71.0759 21.7533 74.424L22.1059 74.6823C22.516 74.3214 22.9212 73.962 23.3217 73.6039C23.0962 74.0365 22.8686 74.4691 22.6103 74.9611C23.0203 75.1969 23.3381 75.4921 23.7133 75.5762C23.9655 75.6316 24.4514 75.4696 24.5498 75.2666C25.4888 73.3414 26.3725 71.3875 27.2418 69.4316C27.2931 69.3065 27.0839 69.0871 26.9937 68.9149ZM20.5744 73.7556L20.9844 73.8314C22.9055 70.715 24.8307 67.6007 26.7251 64.472C26.8194 64.3162 26.6739 64.0168 26.639 63.7852C26.434 63.9061 26.1244 63.9717 26.0116 64.1542C24.2061 67.0738 22.4182 70.0043 20.6482 72.9457C20.5211 73.1548 20.5949 73.4829 20.5744 73.7556Z" fill="white"/>
<path d="M7.18827 40.2543C9.87 39.8074 12.562 39.4035 15.2273 38.8663C15.6046 38.7905 15.8424 38.0708 16.0843 37.751V45.464C15.2519 44.1109 15.2519 44.0945 13.5031 44.0514C10.5712 43.9817 7.63727 43.9305 4.70335 43.8771C4.37121 43.8771 4.03907 43.9058 3.64337 43.9264V45.2754H3.4978V37.9376L3.77664 37.7899C3.52036 39.3727 4.6808 39.2784 5.54396 39.5675C6.11598 39.7582 6.65725 40.0391 7.20672 40.2769L3.72128 39.2825V41.2815L7.18827 40.2543ZM3.62082 42.7823L15.4857 43.1145L15.5554 42.6634C13.4621 42.0483 11.4118 40.9207 9.23647 41.058C5.80024 41.2733 4.01652 42.0012 3.62082 42.7823ZM10.8377 40.6972L10.8254 41.0334L15.5123 42.321V39.8381L10.8377 40.6972Z" fill="white"/>
<path d="M26.6145 19.5057C26.3602 18.5257 26.1388 17.5354 25.8374 16.5718C25.6508 15.9751 25.4499 15.3314 25.0686 14.8618C23.9512 13.4902 22.7313 12.1965 21.5708 10.8638C21.1874 10.421 20.8122 10.3451 20.3407 10.6896C20.1601 10.8009 19.9708 10.8976 19.7748 10.9787L19.6251 10.7121L26.5591 6.53369L26.7457 6.81868C26.5951 6.95629 26.4317 7.07918 26.2577 7.18567C25.7636 7.42965 25.6426 7.7577 25.8989 8.26206C27.5145 11.3805 29.1117 14.5092 30.756 17.6112C30.8544 17.8019 31.3013 17.8901 31.5761 17.8798C31.8508 17.8696 32.0763 17.6584 32.3962 17.6748L26.0916 21.3304L25.9686 21.1582L28.8595 19.1694L26.3787 16.3811L26.1326 16.4426L26.8092 19.4667L26.6145 19.5057ZM21.8374 9.69519L29.6591 18.6794L30.0302 18.4231C29.6734 17.7568 29.3126 17.0925 28.9599 16.4221C27.6683 13.9618 26.393 11.481 25.0645 9.02885C24.9066 8.73567 24.4043 8.32357 24.2444 8.39123C23.4612 8.71312 22.7415 9.18467 21.8374 9.69519Z" fill="white"/>
<path d="M25.1793 3.6837C26.7949 3.02352 28.3695 2.23622 30.0322 1.72776C34.3956 0.37091 38.9669 -0.192261 43.5291 0.0649995C49.7742 0.434046 55.7712 1.87128 61.311 4.89746C62.2889 5.43258 63.2116 6.06815 64.1588 6.65863L63.107 7.33931C63.312 7.6366 63.517 7.94209 63.7508 8.22502C63.9271 8.4403 64.1383 8.63508 64.3351 8.82575C63.2936 8.23323 62.2561 7.6366 61.2146 7.04408L58.2479 5.36082C59.2136 5.77087 60.2018 6.16862 61.149 6.63608C62.1885 7.14864 62.1905 7.17324 62.5842 5.90003C61.4873 5.38952 60.6221 4.16962 59.1869 4.71088C59.597 4.12041 58.945 3.93588 58.5083 3.78622C56.2653 3.01805 54.01 2.28269 51.7424 1.58014C51.4759 1.49608 51.1273 1.6478 50.9777 1.67035C49.7967 0.885103 48.4292 0.934309 47.0412 0.690329C46.9694 1.17419 46.912 1.55349 46.8566 1.92048C48.7203 2.33053 50.502 2.58682 52.2017 3.11373C54.2642 3.75546 56.2571 4.62477 58.2786 5.39362C56.4498 4.76829 54.6435 4.0671 52.788 3.53199C48.2692 2.24059 43.5582 1.75479 38.8709 2.09681C35.0679 2.3885 31.3242 3.20969 27.7482 4.53661C26.7354 4.90361 25.741 5.31981 24.7385 5.71346L24.7508 5.73601C24.8615 5.61915 24.9558 5.45718 25.0829 5.39157C27.6047 4.13066 30.2742 3.30441 33.0051 2.63807C33.3701 2.54991 33.6694 2.20137 33.9995 1.97379C34.0282 1.99429 34.2783 2.31618 34.4956 2.29568C36.9211 2.06195 39.3404 1.77491 41.7864 1.50018C42.0488 0.421744 41.9053 0.222869 40.7489 0.298729C39.8407 0.358186 38.9304 0.440198 38.0282 0.569364C35.9206 0.870752 33.8088 1.15574 31.7216 1.55759C31.0225 1.69085 30.3767 2.4392 29.7267 2.41254C28.105 2.34284 26.8461 3.09733 25.5217 3.78417C25.4417 3.82517 25.2756 3.70216 25.1485 3.65705L25.1793 3.6837ZM43.0924 0.349985L42.7807 0.62267C42.9858 0.995817 43.1354 1.6478 43.3958 1.6929C44.4414 1.87128 45.5199 1.86513 46.8956 1.94509C46.6455 1.37511 46.5266 0.684179 46.2805 0.637023C45.241 0.442249 44.1626 0.429945 43.0924 0.349985Z" fill="white"/>
<path d="M41.4645 72.4394C41.7911 71.0028 42.1164 69.5677 42.4404 68.1338H42.6618C42.7418 68.712 42.8463 69.2902 42.8976 69.8725C43.1559 72.8289 43.4102 75.7854 43.6418 78.7439C43.6931 79.3857 43.7628 79.9495 44.5829 80.0253H37.5833V79.7629H38.875C38.875 78.3544 38.8606 77.0361 38.875 75.7177C38.9037 73.6367 38.9283 71.5537 39.0021 69.4727C39.0267 68.7858 39.0923 68.1646 38.2025 67.937L40.5685 68.1174C40.4065 68.5972 40.1195 69.0851 40.0949 69.5834C39.9514 72.6157 39.8673 75.6501 39.7668 78.6845C39.7545 79.0371 39.7668 79.3898 39.7668 79.7424L40.0805 79.8203L40.5705 78.6865V79.7588H42.7008C42.5101 77.1632 42.3215 74.5819 42.1328 72.0006L41.854 71.892L41.4768 72.4455L41.4645 72.4394Z" fill="white"/>
<path d="M73.8524 20.7998L76.5546 25.6118C76.2983 25.6118 76.1999 25.6364 76.1815 25.6118C75.3901 24.4308 75.386 24.4247 74.1168 25.1279C71.4023 26.6328 68.6755 28.1192 65.9978 29.6918C65.6759 29.8804 65.637 30.5508 65.4648 31.0039C64.7923 29.7738 64.0296 28.3755 63.2648 26.9772L63.435 26.8624L64.1362 27.6825C64.9563 27.2458 65.7764 26.8173 66.5965 26.356C68.7964 25.1135 70.9656 23.8157 73.1922 22.6266C74.0635 22.1632 73.8811 21.5707 73.5797 20.8572L73.8524 20.7998ZM74.8016 23.5041L74.5269 23.0223C71.1727 24.7732 67.8656 26.602 64.6303 28.558L64.9194 29.0705L74.8016 23.5041Z" fill="white"/>
<path d="M19.9859 75.6465C20.7404 76.0893 21.4963 76.5308 22.2535 76.971C21.4334 76.7331 21.1935 77.2621 20.9167 77.9961C21.823 78.4799 22.7169 78.929 23.5821 79.4313C24.3591 79.8823 24.9004 79.7921 25.1874 78.8838C24.6933 79.5953 24.9332 80.0833 25.6733 80.3826C26.5411 80.755 27.4272 81.0828 28.3284 81.3647C28.5847 81.4385 28.9435 81.1596 29.2531 81.0387C29.0235 81.7419 29.5791 81.8588 30.0178 81.9695C32.0353 82.4431 34.0568 82.8962 36.0845 83.3145C37.2388 83.5523 37.409 83.3473 37.2409 82.0269C34.8564 81.8424 32.5253 81.2601 30.229 80.5917C29.9645 80.5138 29.5606 80.9074 29.2223 81.0817C29.6324 80.1427 28.5929 80.1058 28.3018 79.6035C32.4775 81.1802 36.8986 82.0082 41.3619 82.0494C45.8981 82.0704 50.4029 81.2967 54.6722 79.7634C56.6179 79.0684 58.5205 78.2524 60.4437 77.4897C58.9306 78.644 57.114 79.1299 55.3939 79.8352C54.9982 79.9971 54.7111 80.4215 54.4016 80.6983C54.2478 80.643 53.8664 80.36 53.6512 80.4523C52.4518 80.9751 50.8341 80.5938 50.0571 81.8342C49.8069 81.7542 49.4932 81.5553 49.2001 81.5799C48.3799 81.6496 47.5824 81.8137 46.7746 81.9408C45.6654 82.113 45.5834 82.2852 46.1267 83.5092C47.7915 83.1894 49.4932 82.9167 51.1683 82.5272C52.8434 82.1376 54.4774 81.6373 56.1299 81.1863C54.5102 81.7399 52.9131 82.3857 51.2626 82.8265C47.1395 83.9357 42.914 84.2043 38.6761 83.8988C33.458 83.5131 28.3662 82.1082 23.6887 79.7634C22.5303 79.1914 21.4088 78.5333 20.2914 77.8915C19.9839 77.7111 19.7583 77.3933 19.4959 77.137C19.7706 77.0099 20.2709 76.8951 20.2791 76.7536C20.2996 76.3846 20.0987 76.0135 19.9859 75.6465ZM43.894 82.236C43.324 82.236 42.8689 82.1212 42.5244 82.2709C42.2169 82.4021 41.977 82.8039 41.8417 83.1381C41.8068 83.2242 42.2784 83.6773 42.5203 83.6814C43.3683 83.6973 44.2159 83.6349 45.0524 83.4949C45.2902 83.4539 45.6408 83.0254 45.6203 82.8039C45.5998 82.5825 45.2102 82.2627 44.9458 82.1889C44.5665 82.111 44.14 82.2237 43.894 82.236ZM40.6136 82.2114C39.9144 82.2114 39.2727 82.2319 38.631 82.2114C37.5874 82.1725 37.4685 82.3016 37.6243 83.4539C38.2496 83.5215 38.8873 83.6179 39.529 83.6589C40.8104 83.7225 40.8206 83.6979 40.6156 82.2114H40.6136Z" fill="white"/>
<path d="M54.0858 54.02C53.5589 54.2865 53.237 54.5715 52.8967 54.594C51.9187 54.6576 50.9325 54.6166 49.8746 54.6166V50.1634H53.5486C53.5773 50.4361 53.6122 50.758 53.6573 51.1886L51.1109 51.3444C51.5701 52.4618 53.3662 50.9917 53.2616 52.8718H51.2359L51.2175 53.2819C52.8741 54.0384 54.7132 52.4495 56.3267 53.7944L56.4292 53.2388C55.9925 53.0666 55.5599 52.8718 55.113 52.7242C54.4036 52.4884 53.8336 52.1091 53.9525 51.2788C54.0714 50.4484 54.7152 50.1163 55.5087 50.0876C56.4026 50.0568 57.2945 50.0568 57.6922 51.4243L55.4103 51.1845L55.3344 51.4571C55.7773 51.6048 56.2201 51.7544 56.665 51.898C57.3211 52.103 57.8952 52.4044 57.8173 53.2306C57.7394 54.0569 57.2391 54.4608 56.4949 54.5756C55.5128 54.7376 54.5881 54.6268 54.0858 54.02Z" fill="white"/>
<path d="M49.4645 54.5694H48.3492C48.3205 53.9851 48.2918 53.4295 48.2631 52.8739L48.1175 52.8452C48.0048 53.2552 47.9494 53.6858 47.7608 54.0528C47.6357 54.2947 47.322 54.5879 47.0944 54.5879C46.8669 54.5879 46.5798 54.2701 46.4691 54.0241C46.2989 53.653 46.2641 53.2224 45.9709 52.8472L45.8889 54.5571H44.7325V50.0466C45.3702 50.1183 46.1165 49.985 46.4773 50.2987C46.8382 50.6124 46.8751 51.3854 47.156 52.0292C47.4778 50.8462 47.6337 49.4991 49.4645 50.2106V54.5694Z" fill="white"/>
<path d="M15.906 27.457C14.3355 25.7184 12.1478 25.1567 10.0668 24.3817C8.58859 23.8342 8.59064 23.8281 7.4917 24.7917L10.4277 19.8711L10.6327 19.9839C10.481 20.2914 10.3272 20.5989 10.1468 20.9618L12.4964 23.8219L9.8823 21.3616C9.55836 21.8844 9.28568 22.3273 8.94943 22.8768C10.0484 23.3319 11.0345 23.7522 12.0351 24.1295C12.1232 24.1643 12.318 23.9245 12.4636 23.7973C14.7476 25.6262 17.6774 25.8948 20.1848 27.1311L20.9598 26.231L21.0849 26.3192L18.0608 31.3956C18.8194 29.7164 17.0951 29.2838 16.5128 28.2936C16.3119 27.9884 16.0949 27.6942 15.8629 27.4119L18.5877 29.9235L19.6661 27.9286L15.3606 26.354L15.906 27.457Z" fill="white"/>
<path d="M60.9419 8.69695L59.7978 8.17413L60.1156 7.81738L63.1685 9.70157L63.0455 9.96606L61.762 9.41454C60.8168 11.0178 59.8901 12.5986 58.9531 14.1732C58.1002 15.6084 57.2924 17.064 56.3596 18.4418C55.8285 19.223 55.7916 19.7048 56.7266 20.082C56.8291 20.121 56.8926 20.2604 56.8352 20.5536L53.319 18.4295C54.9141 18.7002 54.9387 18.7166 55.8121 17.2793C57.4872 14.5012 59.1356 11.7149 60.9419 8.69695Z" fill="white"/>
<path d="M38.6576 50.0751V54.4503C37.4992 54.7209 37.4992 54.7209 36.0271 52.562V54.5446H34.6309V50.1878C36.4105 49.5338 36.39 51.3319 37.2758 52.1294L37.4131 50.1386L38.6576 50.0751Z" fill="white"/>
<path d="M44.2999 54.5446H43.0349V51.0448L41.5506 51.3872C41.5506 52.0761 41.5054 52.8223 41.5608 53.5563C41.6387 54.5958 41.1774 54.8172 40.1646 54.4769V51.3339L38.9221 51.1883V50.0812C40.5377 50.0812 42.1287 50.0545 43.7177 50.114C43.9227 50.114 44.261 50.5691 44.2733 50.8274C44.3348 52.0166 44.2999 53.2098 44.2999 54.5446Z" fill="white"/>
<path d="M30.5652 54.5451V50.1309H34.2332C34.2537 50.4425 34.2783 50.7685 34.307 51.1724L31.8856 51.361V51.7424L33.8785 51.933C33.8969 52.1975 33.9154 52.4764 33.9379 52.8126L31.8979 52.95L31.8631 53.3088C32.5889 53.6327 33.4418 53.3293 34.3049 53.563C34.3213 53.8336 34.3398 54.1473 34.3623 54.543L30.5652 54.5451Z" fill="white"/>
<path d="M56.1074 69.2468C55.6009 68.152 55.0822 67.0592 54.5943 65.9664C54.4052 65.5902 54.3338 65.1659 54.3892 64.7485C54.9674 65.4723 55.5497 66.1837 56.1217 66.9218C57.848 69.1115 59.5846 71.293 61.2802 73.5052C61.6348 73.9685 61.9219 74.0321 62.3668 73.6979C62.5571 73.5748 62.7574 73.4678 62.9655 73.3781L63.111 73.6446L57.5425 76.6872L57.4523 76.5252L58.3503 75.3853C59.3427 75.7953 59.8347 74.9219 60.7635 74.5775C59.1233 72.4247 57.6122 70.4175 56.091 68.4123L55.8326 68.5641L56.1074 69.2468Z" fill="white"/>
<path d="M30.0527 51.9942C29.536 51.8118 29.1178 51.6026 28.679 51.5309C28.2997 51.4673 27.5698 51.5022 27.5534 51.5944C27.4617 52.1227 27.4791 52.6642 27.6047 53.1854C27.6272 53.2818 28.3018 53.2961 28.6483 53.2244C29.1208 53.0935 29.5828 52.9269 30.0301 52.7262C30.0301 53.9748 29.3064 54.6309 28.1439 54.6411C26.8891 54.6411 25.9112 53.6611 25.8886 52.3489C25.862 51.1557 26.7907 50.1203 27.9389 50.0731C29.1362 50.0219 29.9584 50.6677 30.0527 51.9942Z" fill="white"/>
<path d="M0.902171 35.4404C0.49212 36.5722 0.559779 36.6419 1.96626 36.7526V45.2653C1.62386 45.2837 1.36758 45.2899 1.11335 45.3165C0.537225 45.376 0.266592 45.6364 0.379356 46.2719C0.498314 46.9123 0.498314 47.5691 0.379356 48.2094C0.253607 46.5364 0.127857 44.8627 0.00210818 43.1884L0.207134 43.1699L0.358853 45.0664C1.34503 45.2714 1.72638 44.9516 1.64437 43.9798C1.57671 43.1596 1.63001 42.3395 1.63001 41.4743H-0.0101929C0.129225 39.7685 0.25839 37.9745 0.440863 36.1867C0.467517 35.9263 0.738151 35.6906 0.896021 35.4425L0.902171 35.4404ZM1.86169 37.0499L1.61361 36.7567C1.26097 36.9515 0.658192 37.0868 0.598734 37.3492C0.393708 38.28 0.358853 39.2519 0.266592 40.1704C1.27737 40.5394 1.73663 40.3118 1.75713 39.3646C1.77558 38.5937 1.82479 37.8208 1.86169 37.0499Z" fill="white"/>
<path d="M82.8161 46.481C83.6957 45.4026 83.0785 44.1724 83.3 43.0099C82.3158 42.8152 81.9222 43.0099 81.8853 44.0351C81.8012 45.8696 81.5806 47.6953 81.2251 49.497C81.4424 46.4216 81.6598 43.3462 81.8832 40.2113C81.9099 40.5517 81.9447 40.8449 81.955 41.1401C81.9714 41.6301 81.9283 42.0976 82.689 42.0586C83.4496 42.0197 83.4455 41.5768 83.4148 41.0171C83.3799 40.3836 83.4148 39.7459 83.4148 39.1104H83.6711C83.5508 42.2185 83.4305 45.3267 83.3102 48.4349L82.9965 48.4226C83.0129 48.2073 83.0273 47.99 83.0437 47.7747C83.0876 47.541 83.1014 47.3026 83.0847 47.0653C83.0214 46.8596 82.9311 46.6631 82.8161 46.481Z" fill="white"/>
<path d="M68.128 72.3818C67.5846 72.8298 67.0678 73.309 66.5801 73.817C66.3648 74.061 66.3566 74.4833 66.2541 74.8257C65.9343 74.7786 65.5263 74.5797 65.3089 74.7068C64.4642 75.1948 63.681 75.7873 62.8179 76.3819C63.0578 76.7919 63.2464 77.122 63.4166 77.407L65.3541 76.4885L65.3335 76.4824L62.1536 78.3481C62.0613 77.9585 62.0203 77.5423 61.8358 77.204C61.7928 77.1241 61.2638 77.3004 60.9624 77.3701C60.7738 77.4132 60.5913 77.4788 60.4047 77.5341C61.1633 77.0544 61.9383 76.5972 62.6764 76.0867C64.2633 74.9836 65.8256 73.8478 67.4064 72.7365C67.6373 72.5996 67.8786 72.481 68.128 72.3818Z" fill="white"/>
<path d="M20.0085 8.41402C20.4575 8.06753 20.8737 7.66363 21.3617 7.38889C21.9767 7.04445 22.1141 6.56879 21.7328 6.07058C21.6036 5.90451 21.0111 6.06033 20.642 6.13619C20.4187 6.21591 20.2075 6.32632 20.0146 6.46423C20.0515 6.36992 20.0618 6.22229 20.1274 6.18949C21.8086 5.34888 23.4926 4.51511 25.1792 3.68818L25.1505 3.66357C24.4719 4.03467 23.8179 4.46523 23.1003 4.75636C22.5057 5.00034 22.4647 5.39194 22.762 5.78149C22.926 5.98652 23.3771 6.04802 23.6989 6.03777C24.0495 6.02547 24.396 5.8553 24.7446 5.75279L24.7323 5.73023L20.0085 8.41402Z" fill="white"/>
<path d="M66.3915 74.9567C66.5965 75.0121 66.9 75.1843 67.0066 75.1023C67.9681 74.3683 68.901 73.5954 69.8216 72.8101C69.8851 72.7568 69.7888 72.521 69.7683 72.3693C70.1783 72.1889 70.6847 72.1048 70.9779 71.8075C72.081 70.6983 73.1143 69.5194 74.1722 68.3672C74.1193 68.5914 74.0329 68.8064 73.9159 69.0048C71.5909 71.8137 68.9728 74.3047 65.8933 76.2832C65.7154 76.3719 65.5275 76.4387 65.3336 76.4821L65.3541 76.5047C65.6083 75.9203 66.6765 75.8957 66.3915 74.9567Z" fill="white"/>
<path d="M76.6099 65.5303C76.9113 64.8352 77.2107 64.1402 77.6351 63.1704L76.0933 62.9654L77.2988 60.8721C76.8498 61.9751 77.7089 62.135 78.5515 62.459C77.8913 63.5066 77.2558 64.5195 76.6099 65.5303Z" fill="white"/>
<path d="M4.32605 61.2101C5.4988 61.6202 5.94165 61.3823 5.9314 60.228L6.83351 61.9256L5.37783 62.7847C5.03954 62.268 4.68894 61.735 4.3527 61.1978C4.3486 61.1917 4.32605 61.2101 4.32605 61.2101Z" fill="white"/>
<path d="M64.3084 8.78704L65.6698 9.46773L66.4407 8.52871L65.6431 7.76807L67.2403 8.63328L65.9158 9.53744L68.4089 12.1044L68.4294 12.0818L64.3084 8.78704Z" fill="white"/>
<path d="M3.53468 54.1347C2.03184 54.0363 1.92113 54.1737 2.30453 55.6273C2.35568 55.8846 2.39128 56.1448 2.41114 56.4064L0.770935 51.0224L1.06617 50.9384C1.3163 51.9635 1.56438 53.003 1.81042 54.0138C3.21484 53.9153 3.20254 53.9174 2.89705 52.6934C2.74943 52.1029 2.65922 51.4981 2.54236 50.8994L2.52391 50.9179L3.53468 54.1347Z" fill="white"/>
<path d="M7.02213 19.252C6.90117 20.0721 7.20255 20.3406 8.17848 20.2771L7.44654 21.6774L5.87604 20.7158L7.02213 19.252Z" fill="white"/>
<path d="M68.4089 12.1045C68.5422 12.0861 68.7452 12.0041 68.7944 12.0594C70.2583 13.6996 71.7078 15.3398 73.1573 16.9801C73.186 17.0149 73.1758 17.0867 73.2065 17.265C71.5663 15.4813 69.9958 13.7796 68.4294 12.0758L68.4089 12.1045Z" fill="white"/>
<path d="M71.9046 13.1177L76.7822 18.6247L76.4787 18.8953C76.2737 18.6493 76.0564 18.4114 75.8636 18.1593C74.5501 16.4726 73.2386 14.7852 71.9292 13.0972L71.9046 13.1177Z" fill="white"/>
<path d="M76.3885 22.0995L78.0493 21.3901L78.4757 22.1508L77.0405 23.0795L76.3885 22.0995Z" fill="white"/>
<path d="M81.4711 37.1542L80.3947 31.5652L80.5833 31.5283C80.9483 33.39 81.3119 35.2502 81.6741 37.1091L81.4711 37.1542Z" fill="white"/>
<path d="M2.37628 56.3633C2.60286 56.7593 2.8022 57.1703 2.97291 57.5934C3.19638 58.2577 3.55723 58.5366 4.24202 58.2372C3.56543 58.5571 3.50187 58.9692 3.88117 59.6252C4.1477 60.0866 4.19076 60.677 4.33018 61.2121C4.33018 61.2121 4.34863 61.1978 4.34453 61.2121C3.68571 59.5938 3.02963 57.9775 2.37628 56.3633Z" fill="white"/>
<path d="M17.6835 74.0345L13.583 70.7295L17.6835 74.0345Z" fill="white"/>
<path d="M80.8643 51.9349C80.3517 53.5751 79.8385 55.2085 79.3245 56.8351L79.1195 56.7715L80.6449 51.8652L80.8643 51.9349Z" fill="white"/>
<path d="M71.9251 13.0969L69.0547 10.7063L69.3582 10.3823L71.9087 13.1174L71.9251 13.0969Z" fill="white"/>
<path d="M79.0539 60.9666C79.6198 59.6394 80.185 58.3115 80.7495 56.9829L80.9729 57.0752L79.3102 61.0732L79.0539 60.9666Z" fill="white"/>
<path d="M19.7337 6.53809L15.9223 9.32848C16.4308 8.86718 16.8982 8.35256 17.4518 7.95686C18.1776 7.4361 18.969 7.00554 19.7337 6.53809Z" fill="white"/>
<path d="M2.53209 50.9117C2.37627 50.5017 2.2225 50.0916 2.16099 49.9378L1.83295 46.2822L1.99697 46.2617C2.17192 47.8158 2.34483 49.3713 2.51568 50.9281L2.53209 50.9117Z" fill="white"/>
<path d="M41.4665 72.4336C41.3134 74.0109 41.1589 75.5876 41.0031 77.1635L40.7284 77.1287C40.9744 75.5664 41.2198 74.0041 41.4644 72.4418L41.4665 72.4336Z" fill="white"/>
<path d="M10.3867 69.5977C11.1391 70.3398 11.9018 71.0677 12.6419 71.8263C12.8769 72.1038 13.0907 72.3985 13.2816 72.7079C12.3084 71.6705 11.3434 70.6337 10.3867 69.5977Z" fill="white"/>
<path d="M0.906262 35.4424C0.963669 34.3496 1.01903 33.2589 1.08258 32.0615L2.21228 32.6171C1.2138 32.8058 0.914462 33.468 0.902161 35.4404L0.906262 35.4424Z" fill="white"/>
<path d="M73.2557 67.2563C72.4356 68.2364 71.9149 69.5116 70.5596 69.9401L73.2557 67.2563Z" fill="white"/>
<path d="M17.1525 10.5624L20.0536 8.37891L17.1525 10.5624Z" fill="white"/>
<path d="M25.6815 70.7295L23.2909 73.6327L25.6815 70.7295Z" fill="white"/>
<path d="M56.1073 81.2168L59.6255 79.6504L56.1073 81.2168Z" fill="white"/>
</g>
<defs>
<clipPath id="clip0_3807_30194">
<rect width="83.6628" height="84.0155" fill="white"/>
</clipPath>
</defs>
</svg>
