<svg width="110" height="21" viewBox="0 0 110 21" fill="none" xmlns="http://www.w3.org/2000/svg">
<g clip-path="url(#clip0_3807_30176)">
<path d="M80.623 18.3804C81.2799 17.0206 81.8796 15.7834 82.4753 14.5451C83.124 13.1955 83.7605 11.8408 84.4236 10.4984C84.4943 10.3764 84.5316 10.2379 84.5316 10.0969C84.5316 9.95583 84.4943 9.81732 84.4236 9.69534C82.874 6.6079 81.333 3.51671 79.8006 0.42177C79.7485 0.319605 79.7086 0.210288 79.6371 0.0458015C79.8496 0.0325199 80.01 0.015153 80.1714 0.015153C83.4908 0.015153 86.8122 0.0212814 90.1305 0.0039132C90.5208 0.0039132 90.6945 0.145923 90.8549 0.472853C91.9552 2.7205 93.0739 4.9569 94.1885 7.19637C94.2621 7.34451 94.3459 7.48653 94.4746 7.71946L96.0183 4.54313C96.6947 3.15061 97.3608 1.75299 98.0616 0.37171C98.1175 0.279202 98.1934 0.200419 98.2837 0.14118C98.3741 0.0819402 98.4766 0.0437574 98.5837 0.0294546C102.023 0.00902148 105.462 0.0141314 108.902 0.015153C108.985 0.015153 109.068 0.0335404 109.218 0.0509085C108.832 0.868233 108.467 1.64367 108.094 2.42013C106.93 4.84248 105.769 7.26789 104.589 9.68206C104.434 10.0008 104.474 10.2409 104.623 10.5372C106.135 13.547 107.64 16.5602 109.137 19.5768C109.219 19.7403 109.291 19.9088 109.391 20.1295C109.179 20.1428 109.019 20.1612 108.859 20.1612C105.538 20.1612 102.218 20.1612 98.8994 20.1683C98.5582 20.1683 98.3589 20.0948 98.1924 19.7535C97.1299 17.5846 96.0357 15.4319 94.9517 13.2732C94.8312 13.0341 94.7076 12.7961 94.5288 12.4456C94.1712 13.172 93.8575 13.7993 93.5531 14.4317C92.6959 16.2094 91.8357 17.9861 90.9938 19.7709C90.859 20.057 90.7047 20.1694 90.3808 20.1694C84.1671 20.1605 77.9531 20.1578 71.7387 20.1612C71.6222 20.1612 71.5057 20.1438 71.3556 20.1326C71.1134 19.2764 70.859 18.4305 70.6404 17.5784C70.5464 17.2117 70.3972 17.0523 69.9865 17.0554C67.807 17.0765 65.6275 17.0765 63.4479 17.0554C63.0944 17.0554 62.9371 17.1514 62.8605 17.5049C62.7001 18.2527 62.4815 18.9883 62.3108 19.7341C62.2393 20.0488 62.1065 20.1724 61.7622 20.1714C55.8724 20.1602 49.9815 20.1714 44.0876 20.1489C43.9704 20.1376 43.857 20.1019 43.7546 20.044C43.6522 19.9861 43.563 19.9073 43.493 19.8128C42.3916 18.1352 41.3076 16.4454 40.241 14.7433C40.0367 14.4164 39.815 14.2826 39.4237 14.2959C38.5042 14.3265 37.5898 14.3051 36.5886 14.3051V20.1418H26.8706V0.0427366C27.0535 0.0335417 27.2343 0.0161726 27.4151 0.0161726C33.1691 0.0161726 38.9241 -0.00834693 44.6811 0.0355843C45.751 0.0495661 46.814 0.208695 47.8411 0.508612C49.8344 1.08585 51.042 2.49369 51.5477 4.49307C51.8867 5.8346 51.941 7.23226 51.7071 8.59604C51.4384 10.1949 50.5608 11.3698 49.1458 12.1494C49.0559 12.1984 48.967 12.2515 48.8781 12.2985C48.8648 12.3067 48.8577 12.3251 48.7984 12.4068L52.8769 18.4039C52.9913 18.0035 53.0812 17.7215 53.1537 17.4344C54.5949 11.801 56.0358 6.16552 57.4764 0.528023C57.5785 0.114253 57.7563 0.00289154 58.1701 0.0039132C63.687 0.0182164 69.2039 0.0182164 74.7209 0.0039132C75.2195 0.0039132 75.3829 0.173508 75.5086 0.616907C77.1432 6.37769 78.7898 12.1357 80.4483 17.8911C80.481 18.0126 80.5341 18.1352 80.623 18.3804ZM64.6382 10.668H68.6359C67.9473 8.264 67.273 5.91011 66.5977 3.55621L66.469 3.56234C65.8631 5.9142 65.2563 8.26809 64.6382 10.668ZM36.6039 8.25583C38.1476 8.25583 39.626 8.26809 41.1043 8.25072C41.7909 8.24255 42.0984 7.85126 42.08 7.09932C42.0626 6.3954 41.7408 6.05212 41.0583 6.04701C39.7486 6.03781 38.4388 6.04701 37.1291 6.04701C36.9646 6.04701 36.8001 6.06438 36.608 6.0746L36.6039 8.25583Z" fill="white"/>
<path d="M24.9335 8.54918H17.2844V20.1256H7.5388V8.55735H0V0.0561523H24.9335V8.54918Z" fill="white"/>
</g>
<defs>
<clipPath id="clip0_3807_30176">
<rect width="109.387" height="20.1706" fill="white"/>
</clipPath>
</defs>
</svg>
