<svg width="276" height="297" viewBox="0 0 276 297" fill="none" xmlns="http://www.w3.org/2000/svg">
<path d="M68.3855 195.796L89.8868 219.239L127.659 219.239L127.659 168.035L106.158 144.593L106.158 195.796L68.3855 195.796Z" fill="url(#paint0_linear_3825_30440)"/>
<path d="M196.544 205.798L175.043 182.355L137.271 182.355L137.271 233.559L158.772 257.001L158.772 205.798L196.544 205.798Z" fill="url(#paint1_linear_3825_30440)"/>
<path d="M-51.4265 173.619L-29.9252 197.062L7.84741 197.062L7.84742 145.858L-13.6539 122.416L-13.6539 173.619L-51.4265 173.619Z" fill="url(#paint2_linear_3825_30440)"/>
<path d="M76.7324 183.621L55.2311 160.178L17.4585 160.178L17.4585 211.382L38.9598 234.824L38.9598 183.621L76.7324 183.621Z" fill="url(#paint3_linear_3825_30440)"/>
<path d="M188.194 223.091L209.695 246.534L247.468 246.534L247.468 195.33L225.967 171.888L225.967 223.091L188.194 223.091Z" fill="url(#paint4_linear_3825_30440)"/>
<path d="M316.353 233.093L294.852 209.65L257.079 209.65L257.079 260.854L278.58 284.296L278.58 233.093L316.353 233.093Z" fill="url(#paint5_linear_3825_30440)"/>
<path d="M8.26949 100.03L-13.2318 76.5874L-51.0044 76.5874L-51.0044 127.791L-29.5031 151.233L-29.5031 100.03L8.26949 100.03Z" fill="url(#paint6_linear_3825_30440)"/>
<path d="M119.731 139.501L141.233 162.943L179.005 162.943L179.005 111.74L157.504 88.2971L157.504 139.501L119.731 139.501Z" fill="url(#paint7_linear_3825_30440)"/>
<path d="M247.89 149.502L226.389 126.059L188.616 126.059L188.616 177.263L210.118 200.705L210.118 149.502L247.89 149.502Z" fill="url(#paint8_linear_3825_30440)"/>
<path d="M52.8252 64.4397L74.3265 87.8822L112.099 87.8822L112.099 36.6787L90.5978 13.2362L90.5978 64.4397L52.8252 64.4397Z" fill="url(#paint9_linear_3825_30440)"/>
<path d="M180.984 74.4411L159.483 50.9985L121.71 50.9985L121.71 102.202L143.212 125.645L143.212 74.4411L180.984 74.4411Z" fill="url(#paint10_linear_3825_30440)"/>
<path d="M-16.54 -15.1035L4.96131 8.33911L42.7339 8.33911L42.7339 -42.8644L21.2326 -66.3069L21.2326 -15.1035L-16.54 -15.1035Z" fill="url(#paint11_linear_3825_30440)"/>
<path d="M111.619 -5.10205L90.1175 -28.5446L52.345 -28.5446L52.345 22.6589L73.8463 46.1014L73.8463 -5.10205L111.619 -5.10205Z" fill="url(#paint12_linear_3825_30440)"/>
<path d="M-0.0790615 117.324L21.4222 140.766L59.1948 140.766L59.1948 89.5626L37.6935 66.12L37.6935 117.324L-0.0790615 117.324Z" fill="url(#paint13_linear_3825_30440)"/>
<path d="M128.08 127.325L106.578 103.882L68.8059 103.882L68.8059 155.086L90.3072 178.528L90.3072 127.325L128.08 127.325Z" fill="url(#paint14_linear_3825_30440)"/>
<path d="M239.54 166.795L261.041 190.238L298.814 190.238L298.814 139.035L277.312 115.592L277.312 166.796L239.54 166.795Z" fill="url(#paint15_linear_3825_30440)"/>
<path d="M172.634 86.6168L194.135 110.059L231.908 110.059L231.908 58.8559L210.406 35.4134L210.406 86.6169L172.634 86.6168Z" fill="url(#paint16_linear_3825_30440)"/>
<path d="M300.793 96.6183L279.291 73.1757L241.519 73.1757L241.519 124.379L263.02 147.822L263.02 96.6183L300.793 96.6183Z" fill="url(#paint17_linear_3825_30440)"/>
<path d="M223.565 31.6194L245.066 55.062L282.839 55.062L282.839 3.85849L261.337 -19.5841L261.337 31.6194L223.565 31.6194Z" fill="url(#paint18_linear_3825_30440)"/>
<path d="M103.27 7.07373L124.772 30.5163L162.544 30.5163L162.544 -20.6872L141.043 -44.1298L141.043 7.07373L103.27 7.07373Z" fill="url(#paint19_linear_3825_30440)"/>
<path d="M231.429 17.0751L209.928 -6.36743L172.155 -6.36743L172.155 44.8361L193.657 68.2786L193.657 17.0751L231.429 17.0751Z" fill="url(#paint20_linear_3825_30440)"/>
<path d="M62.727 48.852L41.2257 25.4094L3.45312 25.4094L3.45313 76.6129L24.9544 100.055L24.9544 48.852L62.727 48.852Z" fill="url(#paint21_linear_3825_30440)"/>
<defs>
<linearGradient id="paint0_linear_3825_30440" x1="98.0225" y1="219.239" x2="98.0225" y2="144.593" gradientUnits="userSpaceOnUse">
<stop stop-color="white" stop-opacity="0.19"/>
<stop offset="1" stop-color="white" stop-opacity="0"/>
</linearGradient>
<linearGradient id="paint1_linear_3825_30440" x1="166.907" y1="182.355" x2="166.907" y2="257.001" gradientUnits="userSpaceOnUse">
<stop stop-color="white" stop-opacity="0.19"/>
<stop offset="1" stop-color="white" stop-opacity="0"/>
</linearGradient>
<linearGradient id="paint2_linear_3825_30440" x1="-21.7895" y1="197.062" x2="-21.7895" y2="122.416" gradientUnits="userSpaceOnUse">
<stop stop-color="white" stop-opacity="0.19"/>
<stop offset="1" stop-color="white" stop-opacity="0"/>
</linearGradient>
<linearGradient id="paint3_linear_3825_30440" x1="47.0954" y1="160.178" x2="47.0954" y2="234.824" gradientUnits="userSpaceOnUse">
<stop stop-color="white" stop-opacity="0.19"/>
<stop offset="1" stop-color="white" stop-opacity="0"/>
</linearGradient>
<linearGradient id="paint4_linear_3825_30440" x1="217.831" y1="246.534" x2="217.831" y2="171.888" gradientUnits="userSpaceOnUse">
<stop stop-color="white" stop-opacity="0.19"/>
<stop offset="1" stop-color="white" stop-opacity="0"/>
</linearGradient>
<linearGradient id="paint5_linear_3825_30440" x1="286.716" y1="209.65" x2="286.716" y2="284.296" gradientUnits="userSpaceOnUse">
<stop stop-color="white" stop-opacity="0.19"/>
<stop offset="1" stop-color="white" stop-opacity="0"/>
</linearGradient>
<linearGradient id="paint6_linear_3825_30440" x1="-21.3675" y1="76.5874" x2="-21.3675" y2="151.233" gradientUnits="userSpaceOnUse">
<stop stop-color="white" stop-opacity="0.19"/>
<stop offset="1" stop-color="white" stop-opacity="0"/>
</linearGradient>
<linearGradient id="paint7_linear_3825_30440" x1="149.368" y1="162.943" x2="149.368" y2="88.2971" gradientUnits="userSpaceOnUse">
<stop stop-color="white" stop-opacity="0.19"/>
<stop offset="1" stop-color="white" stop-opacity="0"/>
</linearGradient>
<linearGradient id="paint8_linear_3825_30440" x1="218.253" y1="126.059" x2="218.253" y2="200.705" gradientUnits="userSpaceOnUse">
<stop stop-color="white" stop-opacity="0.19"/>
<stop offset="1" stop-color="white" stop-opacity="0"/>
</linearGradient>
<linearGradient id="paint9_linear_3825_30440" x1="82.4622" y1="87.8822" x2="82.4622" y2="13.2362" gradientUnits="userSpaceOnUse">
<stop stop-color="white" stop-opacity="0.19"/>
<stop offset="1" stop-color="white" stop-opacity="0"/>
</linearGradient>
<linearGradient id="paint10_linear_3825_30440" x1="151.347" y1="50.9985" x2="151.347" y2="125.645" gradientUnits="userSpaceOnUse">
<stop stop-color="white" stop-opacity="0.19"/>
<stop offset="1" stop-color="white" stop-opacity="0"/>
</linearGradient>
<linearGradient id="paint11_linear_3825_30440" x1="13.0969" y1="8.33911" x2="13.097" y2="-66.3069" gradientUnits="userSpaceOnUse">
<stop stop-color="white" stop-opacity="0.19"/>
<stop offset="1" stop-color="white" stop-opacity="0"/>
</linearGradient>
<linearGradient id="paint12_linear_3825_30440" x1="81.9819" y1="-28.5446" x2="81.9819" y2="46.1014" gradientUnits="userSpaceOnUse">
<stop stop-color="white" stop-opacity="0.19"/>
<stop offset="1" stop-color="white" stop-opacity="0"/>
</linearGradient>
<linearGradient id="paint13_linear_3825_30440" x1="29.5579" y1="140.766" x2="29.5579" y2="66.12" gradientUnits="userSpaceOnUse">
<stop stop-color="white" stop-opacity="0.19"/>
<stop offset="1" stop-color="white" stop-opacity="0"/>
</linearGradient>
<linearGradient id="paint14_linear_3825_30440" x1="98.4429" y1="103.882" x2="98.4429" y2="178.528" gradientUnits="userSpaceOnUse">
<stop stop-color="white" stop-opacity="0.19"/>
<stop offset="1" stop-color="white" stop-opacity="0"/>
</linearGradient>
<linearGradient id="paint15_linear_3825_30440" x1="269.177" y1="190.238" x2="269.177" y2="115.592" gradientUnits="userSpaceOnUse">
<stop stop-color="white" stop-opacity="0.19"/>
<stop offset="1" stop-color="white" stop-opacity="0"/>
</linearGradient>
<linearGradient id="paint16_linear_3825_30440" x1="202.271" y1="110.059" x2="202.271" y2="35.4134" gradientUnits="userSpaceOnUse">
<stop stop-color="white" stop-opacity="0.19"/>
<stop offset="1" stop-color="white" stop-opacity="0"/>
</linearGradient>
<linearGradient id="paint17_linear_3825_30440" x1="271.156" y1="73.1757" x2="271.156" y2="147.822" gradientUnits="userSpaceOnUse">
<stop stop-color="white" stop-opacity="0.19"/>
<stop offset="1" stop-color="white" stop-opacity="0"/>
</linearGradient>
<linearGradient id="paint18_linear_3825_30440" x1="253.202" y1="55.062" x2="253.202" y2="-19.5841" gradientUnits="userSpaceOnUse">
<stop stop-color="white" stop-opacity="0.19"/>
<stop offset="1" stop-color="white" stop-opacity="0"/>
</linearGradient>
<linearGradient id="paint19_linear_3825_30440" x1="132.907" y1="30.5163" x2="132.907" y2="-44.1298" gradientUnits="userSpaceOnUse">
<stop stop-color="white" stop-opacity="0.19"/>
<stop offset="1" stop-color="white" stop-opacity="0"/>
</linearGradient>
<linearGradient id="paint20_linear_3825_30440" x1="201.792" y1="-6.36743" x2="201.792" y2="68.2786" gradientUnits="userSpaceOnUse">
<stop stop-color="white" stop-opacity="0.19"/>
<stop offset="1" stop-color="white" stop-opacity="0"/>
</linearGradient>
<linearGradient id="paint21_linear_3825_30440" x1="33.0901" y1="25.4094" x2="33.0901" y2="100.055" gradientUnits="userSpaceOnUse">
<stop stop-color="white" stop-opacity="0.19"/>
<stop offset="1" stop-color="white" stop-opacity="0"/>
</linearGradient>
</defs>
</svg>
