<svg width="41" height="41" viewBox="0 0 41 41" fill="none" xmlns="http://www.w3.org/2000/svg">
<rect width="41" height="41" rx="20.5" fill="white" fill-opacity="0.3"/>
<path d="M20.5 13.3055C21.5364 12.8124 22.6924 12.5276 23.9167 12.5276C28.3196 12.5276 31.8889 16.0969 31.8889 20.4999C31.8889 24.9028 28.3196 28.4721 23.9167 28.4721C22.6924 28.4721 21.5364 28.1874 20.5 27.6942" stroke="white" stroke-width="1.70833" stroke-linecap="round" stroke-linejoin="round"/>
<path d="M22.7208 14.8627C25.8341 17.976 25.8341 23.0237 22.7208 26.1371C19.6074 29.2504 14.5597 29.2504 11.4463 26.1371C8.33299 23.0237 8.33299 17.976 11.4463 14.8627C14.5597 11.7493 19.6074 11.7493 22.7208 14.8627" stroke="white" stroke-width="1.70833" stroke-linecap="round" stroke-linejoin="round"/>
<path fill-rule="evenodd" clip-rule="evenodd" d="M17.084 17.0836L20.5009 20.5005L17.084 23.9175L13.6671 20.5005L17.084 17.0836Z" stroke="white" stroke-width="1.70832" stroke-linecap="round" stroke-linejoin="round"/>
</svg>
