<svg width="36" height="36" viewBox="0 0 36 36" fill="none" xmlns="http://www.w3.org/2000/svg">
<rect width="36" height="36" rx="18" fill="white"/>
<path fill-rule="evenodd" clip-rule="evenodd" d="M17.6833 14.9729C16.0115 14.9729 14.6562 16.3282 14.6562 18C14.6562 19.6718 16.0115 21.0271 17.6833 21.0271C20.1494 21.0271 20.7546 17.9992 22.1677 17.1922C21.1142 15.7774 19.4471 14.9524 17.6833 14.9729V14.9729Z" stroke="#323232" stroke-width="1.5" stroke-linecap="round" stroke-linejoin="round"/>
<path fill-rule="evenodd" clip-rule="evenodd" d="M21.3359 25.5032H14.6664C12.3643 25.5032 10.498 23.6369 10.498 21.3348V14.6654C10.498 12.3632 12.3643 10.4969 14.6664 10.4969H21.3359C23.638 10.4969 25.5043 12.3632 25.5043 14.6654V21.3348C25.5043 23.6369 23.638 25.5032 21.3359 25.5032Z" stroke="#323232" stroke-width="1.5" stroke-linecap="round" stroke-linejoin="round"/>
<path d="M18.049 17.6707C16.3562 17.9539 14.8643 18.9451 13.9473 20.396" stroke="#323232" stroke-width="1.5" stroke-linecap="round" stroke-linejoin="round"/>
</svg>
