<svg width="24" height="24" viewBox="0 0 24 24" fill="none" xmlns="http://www.w3.org/2000/svg">
<path d="M12 5.683C12.91 5.25 13.925 5 15 5C18.866 5 22 8.134 22 12C22 15.866 18.866 19 15 19C13.925 19 12.91 18.75 12 18.317" stroke="white" stroke-width="1.5" stroke-linecap="round" stroke-linejoin="round"/>
<path d="M13.9497 7.05025C16.6834 9.78392 16.6834 14.2161 13.9497 16.9497C11.216 19.6834 6.78388 19.6834 4.05021 16.9497C1.31654 14.2161 1.31654 9.78392 4.05021 7.05025C6.78388 4.31658 11.216 4.31658 13.9497 7.05025" stroke="white" stroke-width="1.5" stroke-linecap="round" stroke-linejoin="round"/>
<path fill-rule="evenodd" clip-rule="evenodd" d="M9 9.0004L12.0002 12.0006L9 15.0008L5.99977 12.0006L9 9.0004Z" stroke="white" stroke-width="1.49999" stroke-linecap="round" stroke-linejoin="round"/>
</svg>
