<svg width="48" height="60" viewBox="0 0 48 60" fill="none" xmlns="http://www.w3.org/2000/svg">
<path d="M24 11.366C25.82 10.5 27.85 10 30 10C37.732 10 44 16.268 44 24C44 31.732 37.732 38 30 38C27.85 38 25.82 37.5 24 36.634" stroke="#42A4FF" stroke-width="3" stroke-linecap="round" stroke-linejoin="round"/>
<path d="M27.8995 14.1005C33.3668 19.5678 33.3668 28.4321 27.8995 33.8995C22.4321 39.3668 13.5678 39.3668 8.1005 33.8995C2.63316 28.4321 2.63316 19.5678 8.1005 14.1005C13.5678 8.63316 22.4321 8.63316 27.8995 14.1005" stroke="#42A4FF" stroke-width="3" stroke-linecap="round" stroke-linejoin="round"/>
<path fill-rule="evenodd" clip-rule="evenodd" d="M18 18.0007L24.0005 24.0012L18 30.0016L11.9995 24.0012L18 18.0007Z" stroke="#42A4FF" stroke-width="3" stroke-linecap="round" stroke-linejoin="round"/>
</svg>
