<svg width="48" height="60" viewBox="0 0 48 60" fill="none" xmlns="http://www.w3.org/2000/svg">
<path d="M12.9999 18V40C12.9999 41.104 13.8959 42 14.9999 42H32.9999C34.1039 42 34.9999 41.104 34.9999 40V18" stroke="#42A4FF" stroke-width="3" stroke-linecap="round" stroke-linejoin="round"/>
<path d="M13.0001 25.9996H7.00006C5.89606 25.9996 5.00006 25.1036 5.00006 23.9996V14.8316C5.00006 12.4956 6.35606 10.3716 8.47606 9.38759L15.4041 6.17559C16.9261 5.46959 18.7281 5.78959 19.9161 6.97559L22.5861 9.64559C23.3681 10.4276 24.6341 10.4276 25.4141 9.64559L28.0841 6.97559C29.2701 5.78959 31.0721 5.46959 32.5961 6.17559L39.5241 9.38759C41.6441 10.3696 43.0001 12.4936 43.0001 14.8316V23.9996C43.0001 25.1036 42.1041 25.9996 41.0001 25.9996H35.0001" stroke="#42A4FF" stroke-width="3" stroke-linecap="round" stroke-linejoin="round"/>
</svg>
