<svg width="237" height="116" viewBox="0 0 237 116" fill="none" xmlns="http://www.w3.org/2000/svg">
<g filter="url(#filter0_d_3637_23791)">
<path d="M227.285 25.8248C228.739 30.7875 227.207 36.4487 223.027 42.4871C218.849 48.521 212.071 54.8619 203.191 61.1313C185.435 73.6673 159.367 85.8521 129.196 94.6956C99.0255 103.539 70.5046 107.355 48.7907 106.388C37.9312 105.905 28.8031 104.226 22.0292 101.402C15.2503 98.576 10.9043 94.6379 9.4497 89.6752C7.99506 84.7125 9.52731 79.0513 13.708 73.0129C17.8855 66.9789 24.663 60.6381 33.5431 54.3686C51.2991 41.8327 77.367 29.6479 107.538 20.8044C137.709 11.9609 166.23 8.14491 187.944 9.11177C198.803 9.59531 207.931 11.274 214.705 14.0979C221.484 16.9239 225.83 20.8621 227.285 25.8248Z" stroke="#BB6BE0" shape-rendering="crispEdges"/>
</g>
<defs>
<filter id="filter0_d_3637_23791" x="0.412109" y="0.465439" width="235.91" height="114.569" filterUnits="userSpaceOnUse" color-interpolation-filters="sRGB">
<feFlood flood-opacity="0" result="BackgroundImageFix"/>
<feColorMatrix in="SourceAlpha" type="matrix" values="0 0 0 0 0 0 0 0 0 0 0 0 0 0 0 0 0 0 127 0" result="hardAlpha"/>
<feOffset/>
<feGaussianBlur stdDeviation="4"/>
<feComposite in2="hardAlpha" operator="out"/>
<feColorMatrix type="matrix" values="0 0 0 0 0.733333 0 0 0 0 0.419608 0 0 0 0 0.878431 0 0 0 1 0"/>
<feBlend mode="normal" in2="BackgroundImageFix" result="effect1_dropShadow_3637_23791"/>
<feBlend mode="normal" in="SourceGraphic" in2="effect1_dropShadow_3637_23791" result="shape"/>
</filter>
</defs>
</svg>
