<svg width="24" height="24" viewBox="0 0 24 24" fill="none" xmlns="http://www.w3.org/2000/svg">
<path d="M23.9875 12.2245C23.9875 11.2412 23.9059 10.5237 23.7292 9.7796H12.2393V14.2176H18.9836C18.8477 15.3205 18.1134 16.9814 16.4817 18.0975L16.4588 18.2461L20.0917 20.9963L20.3434 21.0209C22.6549 18.9347 23.9875 15.8653 23.9875 12.2245Z" fill="#4285F4"/>
<path d="M12.2391 23.9176C15.5433 23.9176 18.3171 22.8546 20.3433 21.021L16.4815 18.0976C15.4481 18.8019 14.0611 19.2935 12.2391 19.2935C9.00291 19.2935 6.25623 17.2074 5.27711 14.324L5.13359 14.3359L1.35604 17.1928L1.30664 17.327C3.31906 21.2335 7.45273 23.9176 12.2391 23.9176Z" fill="#34A853"/>
<path d="M5.27726 14.324C5.01892 13.5799 4.8694 12.7826 4.8694 11.9588C4.8694 11.1349 5.01892 10.3377 5.26367 9.5936L5.25683 9.43513L1.43194 6.53241L1.3068 6.59058C0.477385 8.21168 0.00146484 10.0321 0.00146484 11.9588C0.00146484 13.8855 0.477385 15.7058 1.3068 17.3269L5.27726 14.324Z" fill="#FBBC05"/>
<path d="M12.2391 4.62403C14.5371 4.62403 16.0871 5.59402 16.971 6.40461L20.4248 3.10928C18.3036 1.1826 15.5433 0 12.2391 0C7.45272 0 3.31906 2.68406 1.30664 6.59057L5.26351 9.59359C6.25622 6.7102 9.00291 4.62403 12.2391 4.62403Z" fill="#EB4335"/>
</svg>
