<svg width="343" height="332" viewBox="0 0 343 332" fill="none" xmlns="http://www.w3.org/2000/svg">
<g clip-path="url(#clip0_3553_26014)">
<path d="M175.327 284.196C237.552 284.196 288 233.749 288 171.3C288 108.852 237.33 58.4052 175.327 58.4052C113.102 58.4052 62.6543 108.852 62.6543 171.3C62.6543 233.749 113.102 284.196 175.327 284.196Z" fill="white" fill-opacity="0.4"/>
<path d="M280.666 97.2958C285.699 97.2958 289.777 93.2163 289.777 88.1842C289.777 83.1519 285.699 79.0726 280.666 79.0726C275.634 79.0726 271.554 83.1519 271.554 88.1842C271.554 93.2163 275.634 97.2958 280.666 97.2958Z" fill="white" fill-opacity="0.4"/>
<path d="M293.999 61.7384C297.437 61.7384 300.222 58.9525 300.222 55.5159C300.222 52.0792 297.437 49.2933 293.999 49.2933C290.564 49.2933 287.777 52.0792 287.777 55.5159C287.777 58.9525 290.564 61.7384 293.999 61.7384Z" fill="white" fill-opacity="0.4"/>
<path d="M68.6532 97.0736C72.0899 97.0736 74.8758 94.2876 74.8758 90.851C74.8758 87.4144 72.0899 84.6284 68.6532 84.6284C65.2166 84.6284 62.4307 87.4144 62.4307 90.851C62.4307 94.2876 65.2166 97.0736 68.6532 97.0736Z" fill="white" fill-opacity="0.4"/>
<path d="M30.6514 217.081C37.0338 217.081 42.2076 211.908 42.2076 205.525C42.2076 199.142 37.0338 193.968 30.6514 193.968C24.2693 193.968 19.0952 199.142 19.0952 205.525C19.0952 211.908 24.2693 217.081 30.6514 217.081Z" fill="white" fill-opacity="0.4"/>
<g filter="url(#filter0_d_3553_26014)">
<path d="M251.404 259.397L101.093 260.477C92.4166 260.515 85.342 253.521 85.2258 244.9L84.0608 101.091C84.0124 92.4132 90.9974 85.345 99.6152 85.2386L249.926 84.1601C258.602 84.1214 265.678 91.1156 265.794 99.7352L266.958 243.545C267.007 252.223 260.022 259.29 251.404 259.397Z" fill="url(#paint0_linear_3553_26014)"/>
</g>
<path d="M242.939 237.927L110.804 238.927C107.067 238.96 104.058 236.009 104.021 232.271L103.018 113.418C102.981 109.68 105.928 106.674 109.665 106.641L241.801 105.641C245.539 105.608 248.546 108.558 248.584 112.296L249.586 231.149C249.624 234.887 246.677 237.893 242.939 237.927Z" fill="#EAEEF9"/>
<path d="M179.038 193.32L130.835 193.655L154.73 166.152L179.038 193.32Z" fill="#B0B7C4"/>
<path d="M219.008 192.995L149.523 193.489L183.935 153.994L219.008 192.995Z" fill="#CED6E2"/>
<path d="M154.684 154.056C158.495 150.778 158.924 145.028 155.643 141.213C152.361 137.397 146.611 136.962 142.8 140.239C138.989 143.517 138.56 149.267 141.841 153.083C145.123 156.898 150.873 157.334 154.684 154.056Z" fill="#B0B7C4"/>
</g>
<defs>
<filter id="filter0_d_3553_26014" x="35.1689" y="59.7141" width="280.681" height="274.1" filterUnits="userSpaceOnUse" color-interpolation-filters="sRGB">
<feFlood flood-opacity="0" result="BackgroundImageFix"/>
<feColorMatrix in="SourceAlpha" type="matrix" values="0 0 0 0 0 0 0 0 0 0 0 0 0 0 0 0 0 0 127 0" result="hardAlpha"/>
<feOffset dy="24.4458"/>
<feGaussianBlur stdDeviation="24.4458"/>
<feColorMatrix type="matrix" values="0 0 0 0 0.397708 0 0 0 0 0.47749 0 0 0 0 0.575 0 0 0 0.27 0"/>
<feBlend mode="normal" in2="BackgroundImageFix" result="effect1_dropShadow_3553_26014"/>
<feBlend mode="normal" in="SourceGraphic" in2="effect1_dropShadow_3553_26014" result="shape"/>
</filter>
<linearGradient id="paint0_linear_3553_26014" x1="94.1409" y1="77.8295" x2="254.84" y2="264.677" gradientUnits="userSpaceOnUse">
<stop stop-color="#FDFEFF"/>
<stop offset="0.9964" stop-color="#ECF0F5"/>
</linearGradient>
<clipPath id="clip0_3553_26014">
<rect width="342.242" height="331.13" fill="white" transform="translate(0.758301)"/>
</clipPath>
</defs>
</svg>
