<svg width="195" height="40" viewBox="0 0 195 40" fill="none" xmlns="http://www.w3.org/2000/svg">
<path d="M50.5996 32.2196V6.72046H54.8113V32.2196H50.5996ZM63.8278 32.2196L57.184 21.1873H61.8999L68.7513 32.2196H63.8278ZM53.5656 23.7546V19.7649H59.0822C59.8534 19.7649 60.5158 19.5799 61.0694 19.2098C61.6429 18.8398 62.0878 18.3194 62.4041 17.6487C62.7205 16.9779 62.8787 16.2147 62.8787 15.3589C62.8787 14.4801 62.7205 13.7053 62.4041 13.0345C62.0878 12.3638 61.6429 11.8434 61.0694 11.4734C60.5158 11.1033 59.8534 10.9183 59.0822 10.9183H53.5656V6.72046H58.6374C60.3774 6.72046 61.8801 7.02113 63.1456 7.62247C64.4309 8.22381 65.4195 9.13738 66.1116 10.3632C66.8036 11.589 67.1497 13.127 67.1497 14.9773V15.5324C67.1497 17.4058 66.7937 18.9439 66.0819 20.1465C65.3899 21.3492 64.4111 22.2512 63.1456 22.8526C61.8801 23.4539 60.3774 23.7546 58.6374 23.7546H53.5656Z" fill="white"/>
<path d="M70.7304 32.2196V6.89392H74.853V21.673H74.1412C74.1412 19.7765 74.3488 18.1691 74.7641 16.8507C75.1793 15.5324 75.7923 14.5263 76.6029 13.8325C77.4334 13.1386 78.4814 12.7917 79.7469 12.7917H79.9248C81.7637 12.7917 83.1577 13.5318 84.1068 15.012C85.0559 16.4922 85.5305 18.6432 85.5305 21.4649V32.2196H81.4078V21.0139C81.4078 19.8112 81.1112 18.8629 80.518 18.1691C79.9446 17.4752 79.1833 17.1283 78.2342 17.1283C77.2258 17.1283 76.4052 17.5215 75.7725 18.3078C75.1595 19.0711 74.853 20.0772 74.853 21.3261V32.2196H70.7304Z" fill="white"/>
<path d="M98.8309 32.2196V26.6341H98.1488V20.4241C98.1488 19.337 97.9214 18.5275 97.4666 17.9956C97.0118 17.4636 96.3099 17.1977 95.3608 17.1977C94.8664 17.1977 94.2733 17.2092 93.5812 17.2324C92.8891 17.2555 92.1872 17.2902 91.4754 17.3364C90.7833 17.3596 90.1605 17.3943 89.6068 17.4405V13.3468C90.0616 13.3005 90.5757 13.2543 91.1491 13.208C91.7225 13.1617 92.3058 13.1386 92.899 13.1386C93.512 13.1155 94.0854 13.1039 94.6193 13.1039C96.2802 13.1039 97.6544 13.3583 98.742 13.8672C99.8493 14.376 100.68 15.1739 101.233 16.261C101.807 17.348 102.093 18.7704 102.093 20.5282V32.2196H98.8309ZM93.6405 32.7053C92.4739 32.7053 91.4457 32.4625 90.5559 31.9768C89.6859 31.4911 89.0037 30.7972 88.5094 29.8952C88.0349 28.9932 87.7976 27.9061 87.7976 26.6341C87.7976 25.2464 88.0843 24.1131 88.6577 23.2342C89.2509 22.3553 90.0715 21.6961 91.1195 21.2567C92.1872 20.8173 93.4329 20.5975 94.8566 20.5975H98.5937V23.477H94.7972C93.8481 23.477 93.1165 23.7546 92.6024 24.3097C92.1081 24.8416 91.8609 25.5355 91.8609 26.3912C91.8609 27.247 92.1081 27.9408 92.6024 28.4728C93.1165 29.0047 93.8481 29.2707 94.7972 29.2707C95.3707 29.2707 95.8946 29.1551 96.3692 28.9238C96.8635 28.6694 97.2689 28.2531 97.5852 27.6749C97.9214 27.0735 98.1092 26.264 98.1488 25.2464L99.1572 26.5994C99.0583 27.9177 98.7815 29.0279 98.3267 29.9299C97.8917 30.8319 97.2788 31.5258 96.4878 32.0114C95.7167 32.474 94.7676 32.7053 93.6405 32.7053Z" fill="white"/>
<path d="M105.62 39.1581V13.3815H108.882V21.4996L108.378 21.4649C108.457 19.5452 108.793 17.9378 109.387 16.6426C109.999 15.3474 110.81 14.3876 111.819 13.7631C112.827 13.1155 113.954 12.7917 115.2 12.7917C116.347 12.7917 117.375 13.0345 118.284 13.5202C119.214 14.0059 120.005 14.6882 120.657 15.5671C121.329 16.446 121.844 17.4752 122.199 18.6548C122.555 19.8112 122.733 21.0601 122.733 22.4016V23.1301C122.733 24.4947 122.555 25.7668 122.199 26.9463C121.863 28.1027 121.359 29.132 120.687 30.034C120.034 30.9128 119.243 31.6067 118.314 32.1155C117.385 32.6012 116.347 32.8441 115.2 32.8441C113.994 32.8441 112.886 32.555 111.878 31.9768C110.889 31.3754 110.088 30.4618 109.475 29.236C108.863 27.9871 108.516 26.3797 108.437 24.4137L109.742 26.7382V39.1581H105.62ZM114.162 28.785C115.051 28.785 115.823 28.5306 116.475 28.0218C117.147 27.513 117.671 26.8075 118.047 25.9055C118.423 24.9804 118.611 23.9396 118.611 22.7832C118.611 21.5805 118.423 20.5397 118.047 19.6608C117.671 18.782 117.147 18.0997 116.475 17.614C115.823 17.1051 115.051 16.8507 114.162 16.8507C113.351 16.8507 112.6 17.0589 111.908 17.4752C111.235 17.8915 110.682 18.5044 110.247 19.3139C109.831 20.1234 109.624 21.0948 109.624 22.2281V23.6158C109.624 24.7029 109.841 25.628 110.276 26.3912C110.711 27.1545 111.275 27.7442 111.967 28.1606C112.659 28.5769 113.391 28.785 114.162 28.785Z" fill="white"/>
<path d="M131.311 32.8094C129.097 32.8094 127.357 32.2659 126.091 31.1788C124.846 30.0687 124.193 28.5422 124.134 26.5994H127.841C127.901 27.247 128.207 27.8368 128.761 28.3687C129.314 28.9007 130.184 29.1666 131.371 29.1666C132.359 29.1666 133.14 28.9585 133.714 28.5422C134.307 28.1259 134.604 27.5592 134.604 26.8422C134.604 26.2178 134.376 25.7205 133.921 25.3504C133.486 24.9804 132.735 24.7375 131.667 24.6219L130.244 24.4484C128.444 24.2172 127.06 23.6158 126.091 22.6444C125.122 21.673 124.638 20.3778 124.638 18.7588C124.638 17.4636 124.915 16.3766 125.468 15.4977C126.022 14.6188 126.783 13.9597 127.752 13.5202C128.741 13.0577 129.868 12.8264 131.133 12.8264C133.111 12.8264 134.712 13.3352 135.938 14.3529C137.164 15.3705 137.807 16.8623 137.866 18.8282H134.159C134.119 18.1806 133.842 17.6255 133.328 17.163C132.814 16.7004 132.073 16.4691 131.104 16.4691C130.234 16.4691 129.562 16.6657 129.087 17.0589C128.612 17.4521 128.375 17.9609 128.375 18.5854C128.375 19.1867 128.563 19.6493 128.939 19.9731C129.334 20.2969 129.967 20.5166 130.837 20.6322L132.261 20.8057C134.159 21.037 135.642 21.6499 136.709 22.6444C137.797 23.6389 138.341 24.9804 138.341 26.6688C138.341 27.9177 138.044 29.0047 137.451 29.9299C136.878 30.8319 136.067 31.5373 135.019 32.0461C133.971 32.555 132.735 32.8094 131.311 32.8094Z" fill="white"/>
<path d="M148.598 32.8788C147.174 32.8788 145.919 32.6128 144.831 32.0808C143.744 31.5489 142.824 30.8319 142.073 29.9299C141.321 29.0047 140.748 27.964 140.353 26.8075C139.977 25.6511 139.789 24.4484 139.789 23.1995V22.471C139.789 21.1758 139.987 19.9499 140.382 18.7935C140.797 17.614 141.381 16.5732 142.132 15.6712C142.903 14.746 143.833 14.0291 144.92 13.5202C146.008 12.9883 147.234 12.7223 148.598 12.7223C149.962 12.7223 151.188 12.9883 152.276 13.5202C153.363 14.0291 154.283 14.746 155.034 15.6712C155.805 16.5732 156.388 17.614 156.784 18.7935C157.179 19.9499 157.377 21.1758 157.377 22.471V23.1995C157.377 24.4484 157.179 25.6511 156.784 26.8075C156.408 27.964 155.845 29.0047 155.093 29.9299C154.342 30.8319 153.423 31.5489 152.335 32.0808C151.247 32.6128 150.002 32.8788 148.598 32.8788ZM148.598 28.7503C149.606 28.7503 150.457 28.4959 151.149 27.9871C151.841 27.4551 152.365 26.7497 152.721 25.8708C153.076 24.9688 153.254 23.9512 153.254 22.8179C153.254 21.6615 153.067 20.6438 152.691 19.7649C152.335 18.8629 151.801 18.1575 151.089 17.6487C150.397 17.1167 149.567 16.8507 148.598 16.8507C147.629 16.8507 146.789 17.1167 146.077 17.6487C145.385 18.1575 144.851 18.8629 144.475 19.7649C144.1 20.6438 143.912 21.6615 143.912 22.8179C143.912 23.9512 144.09 24.9688 144.446 25.8708C144.821 26.7497 145.355 27.4551 146.047 27.9871C146.739 28.4959 147.589 28.7503 148.598 28.7503Z" fill="white"/>
<path d="M166.771 32.8441C165.644 32.8441 164.605 32.6012 163.656 32.1155C162.707 31.6298 161.887 30.9475 161.195 30.0687C160.503 29.1898 159.969 28.1721 159.593 27.0157C159.217 25.8361 159.029 24.5641 159.029 23.1995V22.471C159.029 21.1295 159.207 19.869 159.563 18.6894C159.939 17.5099 160.453 16.4807 161.106 15.6018C161.778 14.7229 162.579 14.0406 163.508 13.5549C164.457 13.0461 165.505 12.7917 166.652 12.7917C167.917 12.7917 169.025 13.1155 169.974 13.7631C170.943 14.3876 171.714 15.3358 172.287 16.6079C172.861 17.8799 173.177 19.4758 173.236 21.3955L172.02 19.7302V6.89392H176.143V32.2196H172.88V24.2056H173.592C173.533 26.1252 173.197 27.7327 172.584 29.0279C171.971 30.2999 171.16 31.2598 170.152 31.9074C169.163 32.5318 168.036 32.8441 166.771 32.8441ZM167.69 28.785C168.501 28.785 169.242 28.5769 169.915 28.1606C170.587 27.7211 171.121 27.0966 171.516 26.2872C171.931 25.4545 172.139 24.4831 172.139 23.373V21.9853C172.139 20.8751 171.931 19.9499 171.516 19.2098C171.101 18.4466 170.557 17.8684 169.885 17.4752C169.213 17.0589 168.481 16.8507 167.69 16.8507C166.8 16.8507 166.009 17.1051 165.317 17.614C164.645 18.0997 164.111 18.7935 163.716 19.6955C163.34 20.5975 163.152 21.6499 163.152 22.8526C163.152 24.0553 163.35 25.1076 163.745 26.0096C164.141 26.8885 164.675 27.5708 165.347 28.0565C166.039 28.5422 166.82 28.785 167.69 28.785Z" fill="white"/>
<path d="M179.471 39.6438V35.5154H182.497C183.07 35.5154 183.545 35.4229 183.92 35.2379C184.316 35.076 184.642 34.7984 184.899 34.4052C185.156 34.0352 185.354 33.5148 185.492 32.8441L189.823 13.3815H193.767L188.992 33.8849C188.676 35.2957 188.231 36.4174 187.657 37.25C187.084 38.1058 186.343 38.7187 185.433 39.0888C184.543 39.4588 183.436 39.6438 182.111 39.6438H179.471ZM184.484 31.8033V27.9871H187.924V31.8033H184.484ZM183.09 31.8033L177.87 13.3815H182.022L186.975 31.8033H183.09Z" fill="white"/>
<path d="M-0.00013291 17.6558L6.9491 25.7392L19.1572 25.7392L19.1572 8.08334L12.208 -6.74678e-05L12.208 17.6558L-0.00013291 17.6558Z" fill="url(#paint0_linear_3553_26009)"/>
<path d="M-0.00013291 17.6558L6.9491 25.7392L19.1572 25.7392L19.1572 8.08334L12.208 -6.74678e-05L12.208 17.6558L-0.00013291 17.6558Z" fill="url(#paint1_linear_3553_26009)"/>
<path d="M41.4215 21.1045L34.4723 13.0211H22.2642V30.6769L29.2134 38.7603V21.1045H41.4215Z" fill="url(#paint2_linear_3553_26009)"/>
<defs>
<linearGradient id="paint0_linear_3553_26009" x1="8.04613" y1="25.8823" x2="17.9093" y2="3.67741" gradientUnits="userSpaceOnUse">
<stop stop-color="#BFFF62"/>
<stop offset="0.380208" stop-color="#96D281"/>
<stop offset="0.666667" stop-color="#818BEA"/>
<stop offset="1" stop-color="#9658FF"/>
</linearGradient>
<linearGradient id="paint1_linear_3553_26009" x1="8.04613" y1="25.8823" x2="17.9093" y2="3.67741" gradientUnits="userSpaceOnUse">
<stop stop-color="#42A4FF"/>
<stop offset="0.380208" stop-color="#89C6FF"/>
<stop offset="0.666667" stop-color="#818BEA"/>
<stop offset="1" stop-color="#9658FF"/>
</linearGradient>
<linearGradient id="paint2_linear_3553_26009" x1="33.3753" y1="12.8779" x2="23.5121" y2="35.0828" gradientUnits="userSpaceOnUse">
<stop stop-color="#42A4FF"/>
<stop offset="0.380208" stop-color="#89C6FF"/>
<stop offset="0.666667" stop-color="#818BEA"/>
<stop offset="1" stop-color="#9658FF"/>
</linearGradient>
</defs>
</svg>
