<svg width="160" height="52" viewBox="0 0 160 52" fill="none" xmlns="http://www.w3.org/2000/svg">
<path d="M148.503 46.8232L142.524 33.102H146.533L150.61 42.929L155.329 33.102H159.269L149.969 52.0001H145.983L148.503 46.8232ZM133.98 43.9827C134.324 43.8911 134.667 43.7766 134.988 43.5933C135.286 43.433 135.584 43.2268 135.836 42.9978C136.088 42.7687 136.317 42.4938 136.5 42.196C136.683 41.8753 136.843 41.5317 136.935 41.1881C137.05 40.7987 137.095 40.4093 137.095 39.997C137.095 39.5846 137.05 39.1952 136.935 38.8058C136.843 38.4622 136.683 38.1186 136.5 37.7979C136.317 37.5001 136.088 37.2252 135.836 36.9962C135.584 36.7671 135.286 36.561 134.988 36.4006C134.667 36.2403 134.324 36.1257 133.98 36.0341C133.614 35.9425 133.224 35.8967 132.858 35.9196C132.491 35.9196 132.102 35.9654 131.735 36.0341C131.392 36.1028 131.048 36.2403 130.727 36.4006C130.407 36.561 130.132 36.7671 129.88 36.9962C129.628 37.2252 129.399 37.5001 129.215 37.7979C129.032 38.1186 128.872 38.4622 128.78 38.8058C128.666 39.1952 128.62 39.6076 128.62 39.997C128.62 40.3864 128.666 40.7987 128.78 41.1881C128.872 41.5317 129.032 41.8753 129.215 42.196C129.399 42.4938 129.628 42.7687 129.88 42.9978C130.132 43.2268 130.43 43.433 130.727 43.5933C131.048 43.7537 131.369 43.8911 131.735 43.9827C132.102 44.0744 132.468 44.1202 132.858 44.0973C133.224 44.1202 133.591 44.0744 133.98 43.9827ZM129.926 47.0523C129.307 46.8919 128.712 46.6628 128.162 46.3422C127.085 45.7466 126.192 44.8532 125.596 43.7766C125.276 43.2268 125.046 42.6313 124.886 42.0128C124.565 40.6842 124.565 39.3098 124.886 37.9812C125.046 37.3627 125.276 36.7671 125.596 36.2173C126.192 35.1407 127.085 34.2703 128.162 33.6518C128.712 33.354 129.307 33.102 129.926 32.9417C130.59 32.7813 131.254 32.6897 131.941 32.6897C132.308 32.6897 132.674 32.7126 133.041 32.7584C133.385 32.8042 133.705 32.873 134.026 32.9646C134.324 33.0562 134.621 33.1478 134.896 33.2853C135.171 33.3998 135.423 33.5373 135.675 33.6976C135.904 33.835 136.133 34.0183 136.317 34.2016C136.5 34.3848 136.683 34.5681 136.821 34.7742V33.1249H140.623V46.9148H136.821V45.2655C136.317 45.9069 135.652 46.4109 134.896 46.7545C134.461 46.9606 134.003 47.0981 133.522 47.1668C132.995 47.2584 132.445 47.3271 131.918 47.3042C131.254 47.3042 130.59 47.2355 129.926 47.0523ZM116.136 36.6068C116.685 36.6068 117.235 36.5609 117.762 36.4235C118.174 36.309 118.564 36.1257 118.885 35.8508C119.182 35.5989 119.411 35.2782 119.549 34.9117C119.686 34.4993 119.778 34.0641 119.755 33.6289C119.755 33.1937 119.686 32.7584 119.549 32.3461C119.411 31.9796 119.182 31.6818 118.885 31.4298C118.564 31.1779 118.174 30.9717 117.762 30.8801C117.235 30.7426 116.685 30.6739 116.136 30.6968H112.402V36.6068H116.136ZM108.462 27.444H116.525C117.648 27.4211 118.747 27.5815 119.801 27.9022C120.648 28.1542 121.427 28.6123 122.091 29.185C122.687 29.7347 123.145 30.399 123.443 31.1549C123.741 31.9567 123.901 32.8042 123.878 33.6518C123.878 34.4993 123.741 35.3469 123.443 36.1257C123.145 36.8816 122.687 37.5459 122.091 38.0957C121.427 38.6913 120.648 39.1265 119.801 39.3785C118.747 39.6992 117.625 39.8595 116.525 39.8366H112.425V46.9148H108.485L108.462 27.444ZM91.5796 33.102H95.3592V34.7513C95.5883 34.4306 95.8632 34.1328 96.1839 33.9038C96.5046 33.6518 96.8711 33.4227 97.2605 33.2624C97.6728 33.0791 98.131 32.9417 98.5891 32.85C99.093 32.7584 99.597 32.7126 100.124 32.7126C100.926 32.6897 101.727 32.8271 102.46 33.102C103.125 33.354 103.743 33.7434 104.247 34.2474C104.751 34.7742 105.118 35.4156 105.347 36.1028C105.621 36.9046 105.736 37.7292 105.736 38.5768V46.9148H101.956V39.5617C101.956 39.0349 101.888 38.4851 101.727 37.9812C101.59 37.5689 101.384 37.1794 101.086 36.8358C100.811 36.538 100.445 36.2861 100.055 36.1486C99.1618 35.8508 98.1768 35.8508 97.2605 36.1486C96.8711 36.2861 96.5046 36.538 96.2297 36.8358C95.9319 37.1794 95.7257 37.5689 95.5883 37.9812C95.428 38.4851 95.3592 39.0349 95.3592 39.5617V46.9148H91.6025L91.5796 33.102ZM82.2794 43.9369C82.646 43.8453 82.9896 43.7308 83.3103 43.5475C83.631 43.3872 83.9058 43.181 84.1578 42.929C84.4098 42.6771 84.6159 42.4022 84.7992 42.1044C84.9825 41.7837 85.1199 41.463 85.1886 41.1194C85.3719 40.3635 85.3719 39.5846 85.1886 38.8287C85.0283 38.1415 84.6618 37.5001 84.1578 37.0191C83.9058 36.7671 83.608 36.561 83.3103 36.4006C82.9896 36.2174 82.6231 36.1028 82.2794 36.0112C81.89 35.9196 81.4777 35.8737 81.0883 35.8737C80.6989 35.8737 80.2866 35.9196 79.8971 36.0112C79.5306 36.1028 79.187 36.2174 78.8663 36.4006C78.5456 36.561 78.2708 36.7671 78.0188 37.0191C77.7668 37.2711 77.5606 37.5459 77.3774 37.8437C76.8276 38.8516 76.6902 40.0199 76.988 41.1423C77.0796 41.4859 77.217 41.8295 77.3774 42.1273C77.5377 42.4251 77.7668 42.7 78.0188 42.9519C78.2708 43.2039 78.5456 43.4101 78.8663 43.5704C79.187 43.7308 79.5306 43.8682 79.8971 43.9599C80.2866 44.0515 80.676 44.0973 81.0883 44.0973C81.5006 44.0973 81.89 44.0515 82.2794 43.9369ZM78.8663 47.0523C78.1791 46.8919 77.5148 46.6628 76.8964 46.3422C76.3008 46.0444 75.7739 45.6779 75.27 45.2426C74.7889 44.8074 74.3766 44.3264 74.0559 43.7766C73.7123 43.2268 73.4603 42.6313 73.2771 42.0128C72.9106 40.6842 72.9106 39.2869 73.2771 37.9812C73.4603 37.3627 73.7123 36.7671 74.0559 36.2173C74.7431 35.1178 75.7281 34.2245 76.8964 33.6518C77.5148 33.3311 78.1791 33.102 78.8663 32.9417C80.3324 32.5981 81.8671 32.5981 83.3332 32.9417C84.0204 33.102 84.6618 33.3311 85.2802 33.6518C85.8758 33.9496 86.4027 34.3161 86.9066 34.7742C87.3877 35.2095 87.8 35.6905 88.1436 36.2403C88.4872 36.79 88.7621 37.3856 88.9224 38.0041C89.2889 39.3327 89.2889 40.73 88.9224 42.0357C88.5788 43.2955 87.8687 44.418 86.9066 45.2655C86.4256 45.7008 85.8758 46.0673 85.2802 46.3651C84.6618 46.6858 83.9975 46.9148 83.3332 47.0752C81.8671 47.3959 80.3324 47.3959 78.8663 47.0523ZM64.1602 43.9369C64.5267 43.8453 64.8703 43.7308 65.191 43.5475C65.5117 43.3872 65.7866 43.181 66.0385 42.929C66.2905 42.6771 66.4967 42.4022 66.6799 42.1044C66.8632 41.7837 67.0006 41.463 67.0693 41.1194C67.2526 40.3635 67.2526 39.5846 67.0693 38.8287C66.909 38.1415 66.5425 37.5001 66.0385 37.0191C65.7866 36.7671 65.4888 36.561 65.191 36.4006C64.8703 36.2174 64.5038 36.1028 64.1602 36.0112C63.7708 35.9196 63.3584 35.8737 62.969 35.8737C62.5796 35.8737 62.1673 35.9196 61.7779 36.0112C61.4114 36.1028 61.0678 36.2174 60.7471 36.4006C60.4493 36.561 60.1515 36.7671 59.8995 37.0191C59.6475 37.2482 59.4414 37.5459 59.2581 37.8437C59.0978 38.1644 58.9603 38.4851 58.8687 38.8287C58.7771 39.1952 58.7083 39.5846 58.7313 39.9741C58.7313 40.3635 58.7771 40.7529 58.8687 41.1194C58.9603 41.463 59.0978 41.8066 59.2581 42.1044C59.4185 42.4022 59.6475 42.6771 59.8995 42.929C60.1515 43.181 60.4264 43.3872 60.7471 43.5475C61.0678 43.7079 61.4114 43.8453 61.7779 43.9369C62.1673 44.0286 62.5567 44.0744 62.969 44.0744C63.3584 44.0744 63.7708 44.0286 64.1602 43.9369ZM60.7241 47.0523C60.0369 46.8919 59.3726 46.6628 58.7542 46.3422C58.1586 46.0444 57.6317 45.6779 57.1278 45.2426C56.6467 44.8074 56.2344 44.3264 55.9137 43.7766C55.5701 43.2268 55.3181 42.6313 55.1349 42.0128C54.7684 40.6842 54.7684 39.2869 55.1349 37.9812C55.3181 37.3627 55.5701 36.7671 55.9137 36.2173C56.2573 35.6676 56.6696 35.1865 57.1278 34.7513C57.6088 34.3161 58.1586 33.9267 58.7542 33.6289C59.3726 33.3082 60.0369 33.0791 60.7241 32.9188C62.1902 32.5981 63.7249 32.5981 65.191 32.9188C65.8782 33.0791 66.5196 33.3082 67.1381 33.6289C67.7336 33.9267 68.2605 34.2932 68.7644 34.7513C69.2455 35.1865 69.6578 35.6676 70.0014 36.2173C70.345 36.7671 70.6199 37.3627 70.7802 37.9812C71.1467 39.3098 71.1467 40.7071 70.7802 42.0128C70.4366 43.2726 69.7265 44.3951 68.7644 45.2426C68.2834 45.6779 67.7336 46.0444 67.1381 46.3422C66.5196 46.6628 65.8553 46.8919 65.191 47.0523C63.7478 47.3959 62.2131 47.3959 60.7241 47.0523ZM30.9453 27.444H34.9311L41.7115 37.8208L48.5377 27.444H52.5006V46.9148H48.5606V33.5602L42.9256 42.1731H40.5204L34.8853 33.5602V46.9148H30.9453V27.444Z" fill="#4D4062"/>
<path d="M40.164 10.074V8.086H41.998C42.3527 8.086 42.656 8.016 42.908 7.876C43.1693 7.736 43.37 7.54 43.51 7.288C43.65 7.02667 43.72 6.728 43.72 6.392C43.72 6.03733 43.65 5.734 43.51 5.482C43.37 5.22067 43.1693 5.02467 42.908 4.894C42.656 4.754 42.3527 4.684 41.998 4.684H40.164V2.696H41.886C42.754 2.696 43.496 2.84067 44.112 3.13C44.7373 3.41933 45.2133 3.83 45.54 4.362C45.876 4.894 46.044 5.53333 46.044 6.28V6.504C46.044 7.232 45.876 7.86667 45.54 8.408C45.2133 8.94 44.7373 9.35067 44.112 9.64C43.496 9.92933 42.754 10.074 41.886 10.074H40.164ZM38.148 13V2.696H40.444V13H38.148ZM51.0022 13.266C50.3302 13.266 49.7329 13.1633 49.2102 12.958C48.6875 12.7433 48.2442 12.454 47.8802 12.09C47.5255 11.726 47.2549 11.3107 47.0682 10.844C46.8815 10.368 46.7882 9.86867 46.7882 9.346V9.024C46.7882 8.492 46.8815 7.988 47.0682 7.512C47.2642 7.02667 47.5442 6.602 47.9082 6.238C48.2815 5.874 48.7295 5.58933 49.2522 5.384C49.7749 5.16933 50.3582 5.062 51.0022 5.062C51.6649 5.062 52.2529 5.16933 52.7662 5.384C53.2889 5.58933 53.7322 5.874 54.0962 6.238C54.4602 6.602 54.7402 7.02667 54.9362 7.512C55.1322 7.988 55.2302 8.492 55.2302 9.024V9.346C55.2302 9.86867 55.1369 10.368 54.9502 10.844C54.7635 11.3107 54.4882 11.726 54.1242 12.09C53.7695 12.454 53.3309 12.7433 52.8082 12.958C52.2855 13.1633 51.6835 13.266 51.0022 13.266ZM51.0022 11.376C51.4409 11.376 51.8049 11.2827 52.0942 11.096C52.3835 10.9093 52.6029 10.648 52.7522 10.312C52.9109 9.976 52.9902 9.60267 52.9902 9.192C52.9902 8.75333 52.9109 8.37067 52.7522 8.044C52.5935 7.708 52.3649 7.442 52.0662 7.246C51.7769 7.05 51.4222 6.952 51.0022 6.952C50.5915 6.952 50.2369 7.05 49.9382 7.246C49.6395 7.442 49.4109 7.708 49.2522 8.044C49.1029 8.37067 49.0282 8.75333 49.0282 9.192C49.0282 9.60267 49.1029 9.976 49.2522 10.312C49.4015 10.648 49.6255 10.9093 49.9242 11.096C50.2229 11.2827 50.5822 11.376 51.0022 11.376ZM59.4298 13L60.8298 5.58H63.2798L64.9038 13H63.1678L61.5018 5.636H62.4958L60.9978 13H59.4298ZM58.8978 13L58.8838 11.138H60.4238L60.4378 13H58.8978ZM57.8898 13L55.8318 5.328H58.0298L59.9478 13H57.8898ZM63.7418 13L63.7558 11.138H65.2958V13H63.7418ZM64.3718 13L66.0798 5.328H68.1378L66.2898 13H64.3718ZM72.8583 13.266C72.2049 13.266 71.6263 13.154 71.1223 12.93C70.6276 12.706 70.2123 12.4073 69.8763 12.034C69.5496 11.6513 69.2976 11.2267 69.1203 10.76C68.9523 10.284 68.8683 9.79867 68.8683 9.304V9.024C68.8683 8.51067 68.9523 8.02067 69.1203 7.554C69.2976 7.078 69.5496 6.65333 69.8763 6.28C70.2029 5.90667 70.6089 5.61267 71.0943 5.398C71.5889 5.174 72.1489 5.062 72.7743 5.062C73.5956 5.062 74.2863 5.24867 74.8463 5.622C75.4156 5.986 75.8496 6.46667 76.1483 7.064C76.4469 7.652 76.5963 8.296 76.5963 8.996V9.752H69.8063V8.478H75.2383L74.5103 9.066C74.5103 8.60867 74.4449 8.21667 74.3143 7.89C74.1836 7.56333 73.9876 7.316 73.7263 7.148C73.4743 6.97067 73.1569 6.882 72.7743 6.882C72.3823 6.882 72.0509 6.97067 71.7803 7.148C71.5096 7.32533 71.3043 7.58667 71.1643 7.932C71.0243 8.268 70.9543 8.68333 70.9543 9.178C70.9543 9.63533 71.0196 10.0367 71.1503 10.382C71.2809 10.718 71.4863 10.9793 71.7663 11.166C72.0463 11.3527 72.4103 11.446 72.8583 11.446C73.2689 11.446 73.6049 11.3667 73.8663 11.208C74.1276 11.0493 74.3049 10.8533 74.3983 10.62H76.4563C76.3443 11.1333 76.1249 11.5907 75.7983 11.992C75.4716 12.3933 75.0609 12.706 74.5663 12.93C74.0716 13.154 73.5023 13.266 72.8583 13.266ZM78.0806 13V5.328H79.8586V8.618H79.8166C79.8166 7.53533 80.0453 6.7 80.5026 6.112C80.9693 5.524 81.6413 5.23 82.5186 5.23H82.8126V7.162H82.2526C81.6366 7.162 81.1606 7.33 80.8246 7.666C80.4886 7.99267 80.3206 8.46867 80.3206 9.094V13H78.0806ZM87.4462 13.266C86.7928 13.266 86.2142 13.154 85.7102 12.93C85.2155 12.706 84.8002 12.4073 84.4642 12.034C84.1375 11.6513 83.8855 11.2267 83.7082 10.76C83.5402 10.284 83.4562 9.79867 83.4562 9.304V9.024C83.4562 8.51067 83.5402 8.02067 83.7082 7.554C83.8855 7.078 84.1375 6.65333 84.4642 6.28C84.7908 5.90667 85.1968 5.61267 85.6822 5.398C86.1768 5.174 86.7368 5.062 87.3622 5.062C88.1835 5.062 88.8742 5.24867 89.4342 5.622C90.0035 5.986 90.4375 6.46667 90.7362 7.064C91.0348 7.652 91.1842 8.296 91.1842 8.996V9.752H84.3942V8.478H89.8262L89.0982 9.066C89.0982 8.60867 89.0328 8.21667 88.9022 7.89C88.7715 7.56333 88.5755 7.316 88.3142 7.148C88.0622 6.97067 87.7448 6.882 87.3622 6.882C86.9702 6.882 86.6388 6.97067 86.3682 7.148C86.0975 7.32533 85.8922 7.58667 85.7522 7.932C85.6122 8.268 85.5422 8.68333 85.5422 9.178C85.5422 9.63533 85.6075 10.0367 85.7382 10.382C85.8688 10.718 86.0742 10.9793 86.3542 11.166C86.6342 11.3527 86.9982 11.446 87.4462 11.446C87.8568 11.446 88.1928 11.3667 88.4542 11.208C88.7155 11.0493 88.8928 10.8533 88.9862 10.62H91.0442C90.9322 11.1333 90.7128 11.5907 90.3862 11.992C90.0595 12.3933 89.6488 12.706 89.1542 12.93C88.6595 13.154 88.0902 13.266 87.4462 13.266ZM95.8325 13.252C95.2912 13.252 94.7965 13.154 94.3485 12.958C93.9098 12.762 93.5272 12.4913 93.2005 12.146C92.8738 11.7913 92.6218 11.376 92.4445 10.9C92.2765 10.424 92.1925 9.91067 92.1925 9.36V9.038C92.1925 8.48733 92.2718 7.974 92.4305 7.498C92.5985 7.022 92.8365 6.60667 93.1445 6.252C93.4618 5.888 93.8398 5.608 94.2785 5.412C94.7172 5.20667 95.2072 5.104 95.7485 5.104C96.3645 5.104 96.8965 5.23933 97.3445 5.51C97.7925 5.77133 98.1425 6.16333 98.3945 6.686C98.6465 7.19933 98.7865 7.834 98.8145 8.59L98.2265 8.044V2.78H100.48V13H98.7025V9.822H99.0105C98.9825 10.55 98.8285 11.1707 98.5485 11.684C98.2778 12.1973 97.9092 12.5893 97.4425 12.86C96.9758 13.1213 96.4392 13.252 95.8325 13.252ZM96.3925 11.376C96.7378 11.376 97.0505 11.3013 97.3305 11.152C97.6198 10.9933 97.8485 10.7647 98.0165 10.466C98.1938 10.1673 98.2825 9.808 98.2825 9.388V8.87C98.2825 8.45933 98.1938 8.114 98.0165 7.834C97.8392 7.554 97.6058 7.33933 97.3165 7.19C97.0272 7.04067 96.7145 6.966 96.3785 6.966C96.0052 6.966 95.6692 7.064 95.3705 7.26C95.0812 7.44667 94.8525 7.708 94.6845 8.044C94.5165 8.37067 94.4325 8.75333 94.4325 9.192C94.4325 9.64 94.5165 10.0273 94.6845 10.354C94.8525 10.6807 95.0858 10.9327 95.3845 11.11C95.6832 11.2873 96.0192 11.376 96.3925 11.376ZM110.17 13.252C109.544 13.252 108.994 13.1213 108.518 12.86C108.042 12.5893 107.668 12.202 107.398 11.698C107.127 11.194 106.982 10.578 106.964 9.85H107.23V13H105.452V2.78H107.692V7.974L107.16 8.646C107.188 7.87133 107.332 7.22267 107.594 6.7C107.864 6.168 108.233 5.77133 108.7 5.51C109.166 5.23933 109.698 5.104 110.296 5.104C110.818 5.104 111.29 5.202 111.71 5.398C112.139 5.58467 112.503 5.85533 112.802 6.21C113.1 6.55533 113.329 6.966 113.488 7.442C113.656 7.918 113.74 8.436 113.74 8.996V9.304C113.74 9.864 113.656 10.382 113.488 10.858C113.329 11.334 113.091 11.754 112.774 12.118C112.466 12.4727 112.092 12.7527 111.654 12.958C111.215 13.154 110.72 13.252 110.17 13.252ZM109.582 11.376C109.964 11.376 110.296 11.2827 110.576 11.096C110.865 10.9093 111.089 10.648 111.248 10.312C111.406 9.96667 111.486 9.57933 111.486 9.15C111.486 8.71133 111.406 8.32867 111.248 8.002C111.089 7.67533 110.865 7.42333 110.576 7.246C110.296 7.05933 109.964 6.966 109.582 6.966C109.246 6.966 108.928 7.04533 108.63 7.204C108.331 7.36267 108.088 7.59133 107.902 7.89C107.724 8.17933 107.636 8.534 107.636 8.954V9.472C107.636 9.87333 107.729 10.2187 107.916 10.508C108.112 10.788 108.359 11.0027 108.658 11.152C108.956 11.3013 109.264 11.376 109.582 11.376ZM115.034 16.038V14.134H116.63C116.872 14.134 117.078 14.1013 117.246 14.036C117.414 13.98 117.549 13.882 117.652 13.742C117.754 13.602 117.838 13.4107 117.904 13.168L119.794 5.328H121.922L119.78 13.616C119.63 14.2133 119.42 14.6893 119.15 15.044C118.888 15.3987 118.534 15.6507 118.086 15.8C117.647 15.9587 117.087 16.038 116.406 16.038H115.034ZM117.442 12.832V11.082H119.066V12.832H117.442ZM116.518 12.832L114.166 5.328H116.42L118.646 12.832H116.518Z" fill="#4D4062"/>
<path d="M21.876 30.9258C24.075 30.9258 25.8389 29.139 25.8389 26.9629C25.8389 24.7638 24.0521 23 21.876 23C19.6769 23 17.9131 24.7867 17.9131 26.9629C17.9131 29.139 19.6769 30.9258 21.876 30.9258ZM9.68957 48.816C4.32938 48.816 0 44.4866 0 39.1264C0 33.7662 4.32938 29.4368 9.68957 29.4368C15.0498 29.4368 19.3792 33.7662 19.3792 39.1264C19.3792 44.4866 15.0498 48.816 9.68957 48.816Z" fill="#4D4062"/>
</svg>
