<svg width="28" height="28" viewBox="0 0 28 28" fill="none" xmlns="http://www.w3.org/2000/svg">
<path d="M9.91667 20.7446V9.29138C9.91667 8.80722 10.2153 8.37322 10.668 8.20172L20.5847 4.42405C21.3488 4.13238 22.1667 4.69705 22.1667 5.51372V18.4042" stroke="white" stroke-width="2" stroke-linecap="round" stroke-linejoin="round"/>
<path d="M21.3124 16.3418C22.4515 17.4808 22.4515 19.3275 21.3124 20.4665C20.1734 21.6056 18.3267 21.6056 17.1876 20.4665C16.0486 19.3275 16.0486 17.4808 17.1876 16.3418C18.3267 15.2027 20.1734 15.2027 21.3124 16.3418" stroke="white" stroke-width="2" stroke-linecap="round" stroke-linejoin="round"/>
<path d="M9.06239 18.6751C10.2014 19.8141 10.2014 21.6608 9.06239 22.7999C7.92336 23.9389 6.07663 23.9389 4.9376 22.7999C3.79857 21.6608 3.79857 19.8141 4.9376 18.6751C6.07663 17.536 7.92336 17.536 9.06239 18.6751" stroke="white" stroke-width="2" stroke-linecap="round" stroke-linejoin="round"/>
</svg>
