<svg width="48" height="60" viewBox="0 0 48 60" fill="none" xmlns="http://www.w3.org/2000/svg">
<path d="M41.5847 19.0471C43.1647 20.6272 43.1647 23.1889 41.5847 24.769C40.0046 26.3491 37.4428 26.3491 35.8628 24.769C34.2827 23.1889 34.2827 20.6272 35.8628 19.0471C37.4428 17.467 40.0046 17.467 41.5847 19.0471" stroke="#BB6BE0" stroke-width="3" stroke-linecap="round" stroke-linejoin="round"/>
<path d="M28.4029 11.8247C30.8358 14.2577 30.8358 18.2023 28.4029 20.6353C25.9699 23.0682 22.0253 23.0682 19.5923 20.6353C17.1593 18.2023 17.1593 14.2577 19.5923 11.8247C22.0253 9.39176 25.9699 9.39176 28.4029 11.8247" stroke="#BB6BE0" stroke-width="3" stroke-linecap="round" stroke-linejoin="round"/>
<path d="M12.1355 19.0471C13.7155 20.6272 13.7155 23.1889 12.1355 24.769C10.5554 26.3491 7.99362 26.3491 6.41356 24.769C4.8335 23.1889 4.8335 20.6272 6.41356 19.0471C7.99362 17.467 10.5554 17.467 12.1355 19.0471" stroke="#BB6BE0" stroke-width="3" stroke-linecap="round" stroke-linejoin="round"/>
<path d="M46.0004 38V35.808C46.0004 33.046 43.7624 30.808 41.0004 30.808H39.3984" stroke="#BB6BE0" stroke-width="3" stroke-linecap="round" stroke-linejoin="round"/>
<path d="M2 38V35.808C2 33.046 4.238 30.808 7 30.808H8.602" stroke="#BB6BE0" stroke-width="3" stroke-linecap="round" stroke-linejoin="round"/>
<path d="M34.6783 38.0001V34.7981C34.6783 30.9321 31.5443 27.7981 27.6783 27.7981H20.3203C16.4543 27.7981 13.3203 30.9321 13.3203 34.7981V38.0001" stroke="#BB6BE0" stroke-width="3" stroke-linecap="round" stroke-linejoin="round"/>
</svg>
