<svg width="28" height="28" viewBox="0 0 28 28" fill="none" xmlns="http://www.w3.org/2000/svg">
<path fill-rule="evenodd" clip-rule="evenodd" d="M14.4424 18.4462V18.4462C15.5402 16.9788 16.7969 15.6373 18.1895 14.446L18.2126 14.4262C18.3375 14.3194 18.4094 14.1634 18.4094 13.9991C18.4094 13.8348 18.3375 13.6787 18.2126 13.5719L18.1895 13.5521C16.7969 12.3609 15.5402 11.0194 14.4424 9.55201V9.55201C14.3381 9.41259 14.1742 9.33051 14.0001 9.33051C13.826 9.33051 13.6621 9.41259 13.5578 9.55201V9.55201C12.4599 11.0194 11.2033 12.3609 9.81066 13.5522L9.78754 13.572C9.66269 13.6788 9.59082 13.8348 9.59082 13.9991C9.59082 14.1634 9.66269 14.3195 9.78754 14.4263L9.81066 14.4461C11.2033 15.6374 12.4599 16.9789 13.5578 18.4463V18.4463C13.6621 18.5857 13.826 18.6677 14.0001 18.6677C14.1742 18.6677 14.3381 18.5856 14.4424 18.4462V18.4462Z" stroke="white" stroke-width="2" stroke-linecap="round" stroke-linejoin="round"/>
<path d="M21.4278 6.57226C24.432 9.57649 25.3307 14.0946 23.7048 18.0198C22.0789 21.945 18.2487 24.5044 14 24.5044C9.75142 24.5044 5.92114 21.945 4.29527 18.0198C2.66939 14.0946 3.5681 9.57649 6.57233 6.57226C10.6745 2.47005 17.3255 2.47005 21.4278 6.57226" stroke="white" stroke-width="1.75" stroke-linecap="round" stroke-linejoin="round"/>
<path d="M21.4278 6.57226C24.432 9.57649 25.3307 14.0946 23.7048 18.0198C22.0789 21.945 18.2487 24.5044 14 24.5044C9.75142 24.5044 5.92114 21.945 4.29527 18.0198C2.66939 14.0946 3.5681 9.57649 6.57233 6.57226C10.6745 2.47005 17.3255 2.47005 21.4278 6.57226" stroke="white" stroke-width="1.75" stroke-linecap="round" stroke-linejoin="round"/>
</svg>
