<svg width="48" height="60" viewBox="0 0 48 60" fill="none" xmlns="http://www.w3.org/2000/svg">
<path fill-rule="evenodd" clip-rule="evenodd" d="M38.126 32H9.874C7.734 32 6 30.266 6 28.126V11.874C6 9.734 7.734 8 9.874 8H38.124C40.266 8 42 9.734 42 11.874V28.124C42 30.266 40.266 32 38.126 32V32Z" stroke="#BB6BE0" stroke-width="4.5" stroke-linecap="round" stroke-linejoin="round"/>
<path d="M34 14C33.994 14 33.99 14.004 33.99 14.01C33.99 14.016 33.994 14.02 34 14.02C34.006 14.02 34.01 14.016 34.01 14.01C34.01 14.004 34.006 14 34 14" stroke="#BB6BE0" stroke-width="4.5" stroke-linecap="round" stroke-linejoin="round"/>
<path d="M34.0078 19.99C34.0018 19.99 33.9978 19.994 33.9978 20C33.9978 20.006 34.0018 20.01 34.0078 20.01C34.0138 20.01 34.0178 20.006 34.0178 20C34.0178 19.994 34.0138 19.99 34.0078 19.99" stroke="#BB6BE0" stroke-width="4.5" stroke-linecap="round" stroke-linejoin="round"/>
<path d="M34 26C33.994 26 33.99 26.004 33.99 26.01C33.99 26.016 33.994 26.02 34 26.02C34.006 26.02 34.01 26.016 34.01 26.01C34.01 26.004 34.006 26 34 26" stroke="#BB6BE0" stroke-width="4.5" stroke-linecap="round" stroke-linejoin="round"/>
</svg>
