<svg width="24" height="24" viewBox="0 0 24 24" fill="none" xmlns="http://www.w3.org/2000/svg">
<path d="M8.06445 12.8798C8.06445 13.7598 8.74566 14.4798 9.50253 14.4798C10.2594 14.4798 10.9406 13.7598 10.9406 12.8798C10.9406 11.9998 10.2594 11.2798 9.50253 11.2798C8.74566 11.2798 8.06445 11.9998 8.06445 12.8798Z" fill="white"/>
<path d="M13.0605 12.8798C13.0605 13.7598 13.7418 14.4798 14.4986 14.4798C15.2555 14.4798 15.9367 13.7598 15.9367 12.8798C15.9367 11.9998 15.2555 11.2798 14.4986 11.2798C13.7418 11.2798 13.0605 11.9998 13.0605 12.8798Z" fill="white"/>
<path fill-rule="evenodd" clip-rule="evenodd" d="M1.99047 3.95703C1.5 4.91964 1.5 6.17976 1.5 8.7V15.3C1.5 17.8202 1.5 19.0804 1.99047 20.043C2.4219 20.8897 3.11031 21.5781 3.95703 22.0095C4.91964 22.5 6.17976 22.5 8.7 22.5H15.3C17.8202 22.5 19.0804 22.5 20.043 22.0095C20.8897 21.5781 21.5781 20.8897 22.0095 20.043C22.5 19.0804 22.5 17.8202 22.5 15.3V8.7C22.5 6.17976 22.5 4.91964 22.0095 3.95703C21.5781 3.11031 20.8897 2.4219 20.043 1.99047C19.0804 1.5 17.8202 1.5 15.3 1.5H8.7C6.17976 1.5 4.91964 1.5 3.95703 1.99047C3.11031 2.4219 2.4219 3.11031 1.99047 3.95703ZM14.2706 6C15.7087 6.08001 17.0711 6.56001 18.2064 7.52001C19.4931 10.08 20.1743 12.96 20.25 15.92C19.1147 17.2 17.5252 18 15.8601 18C15.8601 18 15.3303 17.36 14.9519 16.8C15.9358 16.56 16.844 16 17.4495 15.12C16.9197 15.44 16.3899 15.76 15.8601 16C15.1789 16.32 14.4977 16.48 13.8165 16.64C13.211 16.72 12.6055 16.8 12 16.8C11.3945 16.8 10.789 16.72 10.1835 16.64C9.50229 16.48 8.82111 16.32 8.1399 16C7.6101 15.76 7.08027 15.44 6.55047 15.12C7.15596 16 8.06421 16.56 9.04818 16.8C8.66973 17.36 8.1399 18 8.1399 18C6.47478 18 4.88532 17.2 3.75 15.92C3.82569 12.96 4.50687 10.08 5.79357 7.52001C6.92889 6.56001 8.29128 6.08001 9.72936 6L9.95643 6.24C8.66973 6.56001 7.53441 7.2 6.47478 8.07999C7.76148 7.35999 9.19953 6.87999 10.7133 6.72C11.1674 6.63999 11.5459 6.63999 12 6.63999C12.4541 6.63999 12.8326 6.63999 13.2867 6.72C14.8005 6.87999 16.2385 7.35999 17.5252 8.07999C16.4656 7.2 15.3303 6.56001 14.0436 6.24L14.2706 6Z" fill="white"/>
</svg>
