<svg width="24" height="24" viewBox="0 0 24 24" fill="none" xmlns="http://www.w3.org/2000/svg">
<path fill-rule="evenodd" clip-rule="evenodd" d="M24 0H0V24H24V0ZM5.87321 7.32354C5.90851 7.41506 5.92176 7.51361 5.91188 7.6112V14.7374C5.93349 14.8641 5.92499 14.9942 5.88706 15.1171C5.84913 15.2399 5.78284 15.3522 5.69354 15.4447L4 17.4991V17.7698H8.80222V17.499L7.10868 15.4447C7.01865 15.3522 6.95085 15.2405 6.91042 15.1179C6.86999 14.9954 6.85799 14.8652 6.87532 14.7374V8.5744L11.0905 17.7698H11.5798L15.2004 8.5744V15.9038C15.2004 16.0993 15.2004 16.1369 15.0724 16.2649L13.7702 17.5291V17.8H20.0929V17.5291L18.8359 16.295C18.7815 16.2535 18.7394 16.1979 18.7142 16.1343C18.689 16.0706 18.6816 16.0013 18.6929 15.9338V6.86622C18.6816 6.79869 18.689 6.72937 18.7142 6.66571C18.7394 6.60206 18.7815 6.54649 18.8359 6.50498L20.1231 5.27089V5H15.6671L12.4905 12.9238L8.87754 5H4.20308V5.27077L5.70868 7.08443C5.78154 7.15011 5.8379 7.23202 5.87321 7.32354Z" fill="white"/>
</svg>
