<svg width="24" height="24" viewBox="0 0 24 24" fill="none" xmlns="http://www.w3.org/2000/svg">
<path d="M12 14.25C13.2426 14.25 14.25 13.2426 14.25 12C14.25 10.7574 13.2426 9.75 12 9.75C10.7574 9.75 9.75 10.7574 9.75 12C9.75 13.2426 10.7574 14.25 12 14.25Z" fill="white"/>
<path fill-rule="evenodd" clip-rule="evenodd" d="M12.3 6H11.7C10.4151 6 9.54168 6.00117 8.86656 6.05634C8.20893 6.11007 7.87263 6.20745 7.63803 6.32697C7.07355 6.61461 6.61461 7.07355 6.32697 7.63803C6.20745 7.87263 6.11007 8.20893 6.05634 8.86656C6.00117 9.54168 6 10.4151 6 11.7V12.3C6 13.5849 6.00117 14.4583 6.05634 15.1334C6.11007 15.7911 6.20745 16.1274 6.32697 16.362C6.61461 16.9265 7.07355 17.3854 7.63803 17.673C7.87263 17.7926 8.20893 17.8899 8.86656 17.9437C9.54168 17.9988 10.4151 18 11.7 18H12.3C13.5849 18 14.4583 17.9988 15.1334 17.9437C15.7911 17.8899 16.1274 17.7926 16.362 17.673C16.9265 17.3854 17.3854 16.9265 17.673 16.362C17.7926 16.1274 17.8899 15.7911 17.9437 15.1334C17.9988 14.4583 18 13.5849 18 12.3V11.7C18 10.4151 17.9988 9.54168 17.9437 8.86656C17.8899 8.20893 17.7926 7.87263 17.673 7.63803C17.3854 7.07355 16.9265 6.61461 16.362 6.32697C16.1274 6.20745 15.7911 6.11007 15.1334 6.05634C14.4583 6.00117 13.5849 6 12.3 6ZM17.25 7.875C17.25 8.49633 16.7463 9 16.125 9C15.5037 9 15 8.49633 15 7.875C15 7.25367 15.5037 6.75 16.125 6.75C16.7463 6.75 17.25 7.25367 17.25 7.875ZM12 15.75C14.0711 15.75 15.75 14.0711 15.75 12C15.75 9.92892 14.0711 8.25 12 8.25C9.92892 8.25 8.25 9.92892 8.25 12C8.25 14.0711 9.92892 15.75 12 15.75Z" fill="white"/>
<path fill-rule="evenodd" clip-rule="evenodd" d="M1.99047 3.95703C1.5 4.91964 1.5 6.17976 1.5 8.7V15.3C1.5 17.8202 1.5 19.0804 1.99047 20.043C2.4219 20.8897 3.11031 21.5781 3.95703 22.0095C4.91964 22.5 6.17976 22.5 8.7 22.5H15.3C17.8202 22.5 19.0804 22.5 20.043 22.0095C20.8897 21.5781 21.5781 20.8897 22.0095 20.043C22.5 19.0804 22.5 17.8202 22.5 15.3V8.7C22.5 6.17976 22.5 4.91964 22.0095 3.95703C21.5781 3.11031 20.8897 2.4219 20.043 1.99047C19.0804 1.5 17.8202 1.5 15.3 1.5H8.7C6.17976 1.5 4.91964 1.5 3.95703 1.99047C3.11031 2.4219 2.4219 3.11031 1.99047 3.95703ZM4.99047 6.95703C4.5 7.91964 4.5 9.17976 4.5 11.7V12.3C4.5 14.8202 4.5 16.0804 4.99047 17.043C5.4219 17.8897 6.11031 18.5781 6.95703 19.0095C7.91964 19.5 9.17976 19.5 11.7 19.5H12.3C14.8202 19.5 16.0804 19.5 17.043 19.0095C17.8897 18.5781 18.5781 17.8897 19.0095 17.043C19.5 16.0804 19.5 14.8202 19.5 12.3V11.7C19.5 9.17976 19.5 7.91964 19.0095 6.95703C18.5781 6.11031 17.8897 5.4219 17.043 4.99047C16.0804 4.5 14.8202 4.5 12.3 4.5H11.7C9.17976 4.5 7.91964 4.5 6.95703 4.99047C6.11031 5.4219 5.4219 6.11031 4.99047 6.95703Z" fill="white"/>
</svg>
