<svg width="24" height="24" viewBox="0 0 24 24" fill="none" xmlns="http://www.w3.org/2000/svg">
<path d="M8.84157 21C6.41532 21 4.15362 20.2943 2.25 19.0767C3.86625 19.1813 6.71856 18.9308 8.49267 17.2386C5.82381 17.1161 4.62021 15.0692 4.46319 14.1945C4.68996 14.2819 5.77149 14.3869 6.38199 14.142C3.31191 13.3722 2.84095 10.678 2.94561 9.85572C3.52125 10.2581 4.49808 10.3981 4.88184 10.3631C2.02109 8.31618 3.05028 5.23707 3.55614 4.57227C5.60913 7.41651 8.6859 9.01392 12.4923 9.10278C12.4205 8.78802 12.3826 8.46033 12.3826 8.12373C12.3826 5.70819 14.3351 3.75 16.7435 3.75C18.0019 3.75 19.1358 4.28457 19.9318 5.13963C20.7727 4.94259 22.0382 4.48131 22.6569 4.0824C22.3451 5.20209 21.3742 6.13611 20.7869 6.48231C20.7918 6.49407 20.7821 6.47049 20.7869 6.48231C21.3028 6.40428 22.6986 6.13602 23.25 5.76192C22.9773 6.39093 21.948 7.43679 21.1033 8.02233C21.2605 14.9535 15.9574 21 8.84157 21Z" fill="white"/>
</svg>
