<svg width="36" height="36" viewBox="0 0 36 36" fill="none" xmlns="http://www.w3.org/2000/svg">
<rect width="36" height="36" rx="18" fill="white"/>
<path d="M23.4196 13.7927L21.4481 11.164C20.9171 10.4561 19.9256 10.2862 19.1893 10.7771L14.6074 13.8317" stroke="#323232" stroke-width="1.5" stroke-linecap="round" stroke-linejoin="round"/>
<path fill-rule="evenodd" clip-rule="evenodd" d="M23.4201 17.5831H25.5043C25.9648 17.5831 26.338 17.9564 26.338 18.4168V20.9179C26.338 21.3783 25.9648 21.7515 25.5043 21.7515H23.4201C22.2691 21.7515 21.3359 20.8184 21.3359 19.6673V19.6673C21.3359 18.5163 22.2691 17.5831 23.4201 17.5831V17.5831Z" stroke="#323232" stroke-width="1.5" stroke-linecap="round" stroke-linejoin="round"/>
<path d="M25.5043 17.5832V15.9159C25.5043 14.7648 24.5712 13.8317 23.4201 13.8317H12.5822C11.4312 13.8317 10.498 14.7648 10.498 15.9159V23.419C10.498 24.5701 11.4312 25.5032 12.5822 25.5032H23.4201C24.5712 25.5032 25.5043 24.5701 25.5043 23.419V21.7516" stroke="#323232" stroke-width="1.5" stroke-linecap="round" stroke-linejoin="round"/>
</svg>
