<svg width="36" height="36" viewBox="0 0 36 36" fill="none" xmlns="http://www.w3.org/2000/svg">
<rect width="36" height="36" rx="18" fill="white" fill-opacity="0.3"/>
<path d="M18 11.683C18.91 11.25 19.925 11 21 11C24.866 11 28 14.134 28 18C28 21.866 24.866 25 21 25C19.925 25 18.91 24.75 18 24.317" stroke="white" stroke-width="1.5" stroke-linecap="round" stroke-linejoin="round"/>
<path d="M19.9497 13.0503C22.6834 15.7839 22.6834 20.2161 19.9497 22.9497C17.2161 25.6834 12.7839 25.6834 10.0503 22.9497C7.31658 20.2161 7.31658 15.7839 10.0503 13.0503C12.7839 10.3166 17.2161 10.3166 19.9497 13.0503" stroke="white" stroke-width="1.5" stroke-linecap="round" stroke-linejoin="round"/>
<path fill-rule="evenodd" clip-rule="evenodd" d="M15 15.0004L18.0002 18.0006L15 21.0008L11.9998 18.0006L15 15.0004Z" stroke="white" stroke-width="1.49999" stroke-linecap="round" stroke-linejoin="round"/>
</svg>
