<svg width="36" height="36" viewBox="0 0 36 36" fill="none" xmlns="http://www.w3.org/2000/svg">
<rect width="36" height="36" rx="18" fill="white"/>
<path fill-rule="evenodd" clip-rule="evenodd" d="M17.6843 14.9729C16.0125 14.9729 14.6572 16.3282 14.6572 18C14.6572 19.6718 16.0125 21.0271 17.6843 21.0271C20.1503 21.0271 20.7556 17.9992 22.1687 17.1922C21.1152 15.7774 19.4481 14.9524 17.6843 14.9729V14.9729Z" stroke="#323232" stroke-width="1.5" stroke-linecap="round" stroke-linejoin="round"/>
<path fill-rule="evenodd" clip-rule="evenodd" d="M21.3349 25.5031H14.6655C12.3633 25.5031 10.4971 23.6369 10.4971 21.3347V14.6653C10.4971 12.3631 12.3633 10.4969 14.6655 10.4969H21.3349C23.6371 10.4969 25.5033 12.3631 25.5033 14.6653V21.3347C25.5033 23.6369 23.6371 25.5031 21.3349 25.5031Z" stroke="#323232" stroke-width="1.5" stroke-linecap="round" stroke-linejoin="round"/>
<path d="M18.049 17.6707C16.3562 17.9539 14.8643 18.9452 13.9473 20.396" stroke="#323232" stroke-width="1.5" stroke-linecap="round" stroke-linejoin="round"/>
</svg>
