<svg width="29" height="30" viewBox="0 0 29 30" fill="none" xmlns="http://www.w3.org/2000/svg">
<path d="M26.6279 20.5L24.9866 26.0493L21.7646 25.1682L26.6279 20.5Z" fill="#E4761B" stroke="#E4761B" stroke-width="0.0672646"/>
<path d="M21.7646 25.1682L24.8723 20.9103L26.6279 20.5L21.7646 25.1682Z" fill="#E4761B" stroke="#E4761B" stroke-width="0.0672646"/>
<path d="M24.2129 16.3162L26.6277 20.5L24.8721 20.9103L24.2129 16.3162ZM24.2129 16.3162L25.7667 15.2399L26.6277 20.5L24.2129 16.3162Z" fill="#F6851B" stroke="#F6851B" stroke-width="0.0672646"/>
<path d="M22.2354 13.1547L26.7017 11.3251L26.4797 12.3273L22.2354 13.1547ZM26.3385 13.5314L22.2354 13.1547L26.4797 12.3273L26.3385 13.5314Z" fill="#763D16" stroke="#763D16" stroke-width="0.0672646"/>
<path d="M26.3385 13.5314L25.7667 15.2399L22.2354 13.1547L26.3385 13.5314ZM27.2331 11.7489L26.4797 12.3273L26.7017 11.3251L27.2331 11.7489ZM26.3385 13.5314L26.4797 12.3273L27.0784 12.8251L26.3385 13.5314Z" fill="#763D16" stroke="#763D16" stroke-width="0.0672646"/>
<path d="M18.3008 23.8162L19.4174 24.1727L21.7649 25.1682L18.3008 23.8162Z" fill="#E2761B" stroke="#E2761B" stroke-width="0.0672646"/>
<path d="M25.7673 15.2399L26.3391 13.5314L26.8301 13.9081L25.7673 15.2399ZM25.7673 15.2399L21.1328 13.713L22.236 13.1547L25.7673 15.2399Z" fill="#763D16" stroke="#763D16" stroke-width="0.0672646"/>
<path d="M23.3391 7.91479L22.236 13.1547L21.1328 13.713L23.3391 7.91479Z" fill="#763D16" stroke="#763D16" stroke-width="0.0672646"/>
<path d="M26.7017 11.3251L22.2354 13.1547L23.3385 7.91479L26.7017 11.3251Z" fill="#763D16" stroke="#763D16" stroke-width="0.0672646"/>
<path d="M23.3389 7.9148L28.0003 7.37668L26.7021 11.3251L23.3389 7.9148Z" fill="#763D16" stroke="#763D16" stroke-width="0.0672646"/>
<path d="M25.7673 15.2399L24.2135 16.3162L21.1328 13.713L25.7673 15.2399Z" fill="#F6851B" stroke="#F6851B" stroke-width="0.0672646"/>
<path d="M27.7985 3.60315L28.0003 7.37669L23.3389 7.91481L27.7985 3.60315Z" fill="#763D16" stroke="#763D16" stroke-width="0.0672646"/>
<path d="M27.7985 3.60315L18.4824 10.3767L18.3613 5.78252L27.7985 3.60315Z" fill="#E2761B" stroke="#E2761B" stroke-width="0.0672646"/>
<path d="M11.4326 5.23096L18.3609 5.78253L18.4819 10.3767L11.4326 5.23096Z" fill="#F6851B" stroke="#F6851B" stroke-width="0.0672646"/>
<path d="M21.1326 13.713L18.4824 10.3767L23.3389 7.91479L21.1326 13.713Z" fill="#763D16" stroke="#763D16" stroke-width="0.0672646"/>
<path d="M21.1321 13.713L24.2128 16.3162L19.8877 16.7937L21.1321 13.713Z" fill="#E4761B" stroke="#E4761B" stroke-width="0.0672646"/>
<path d="M19.8883 16.7937L18.4824 10.3767L21.1326 13.713L19.8883 16.7937Z" fill="#E4761B" stroke="#E4761B" stroke-width="0.0672646"/>
<path d="M23.3389 7.91481L18.4824 10.3767L27.7986 3.60315L23.3389 7.91481Z" fill="#763D16" stroke="#763D16" stroke-width="0.0672646"/>
<path d="M11.4929 25.0605L13.6925 27.3543L10.6992 24.63L11.4929 25.0605Z" fill="#C0AD9E" stroke="#C0AD9E" stroke-width="0.0672646"/>
<path d="M21.7646 25.1682L22.8072 21.2063L24.8723 20.9103L21.7646 25.1682Z" fill="#CD6116" stroke="#CD6116" stroke-width="0.0672646"/>
<path d="M2.57422 14.0224L6.38139 10.0202L3.06525 13.5448L2.57422 14.0224Z" fill="#E2761B" stroke="#E2761B" stroke-width="0.0672646"/>
<path d="M24.8721 20.9103L22.8071 21.2063L24.2129 16.3162L24.8721 20.9103ZM18.4819 10.3767L14.7757 10.2556L11.4326 5.23096L18.4819 10.3767Z" fill="#F6851B" stroke="#F6851B" stroke-width="0.0672646"/>
<path d="M24.2135 16.3162L22.8077 21.2063L22.6934 18.8184L24.2135 16.3162Z" fill="#E4751F" stroke="#E4751F" stroke-width="0.0672646"/>
<path d="M19.8877 16.7937L24.2128 16.3162L22.6926 18.8184L19.8877 16.7937Z" fill="#CD6116" stroke="#CD6116" stroke-width="0.0672646"/>
<path d="M14.7754 10.2556L18.4817 10.3767L19.8875 16.7937L14.7754 10.2556Z" fill="#F6851B" stroke="#F6851B" stroke-width="0.0672646"/>
<path d="M14.7758 10.2556L4.77354 1L11.4327 5.23094L14.7758 10.2556ZM11.426 26.4664L2.73543 29.157L1 22.5314L11.426 26.4664Z" fill="#E4761B" stroke="#E4761B" stroke-width="0.0672646"/>
<path d="M3.86523 15.6771L7.14775 13.1009L9.89887 13.7399L3.86523 15.6771Z" fill="#763D16" stroke="#763D16" stroke-width="0.0672646"/>
<path d="M9.89956 13.7399L7.14844 13.1009L8.62153 7.02017L9.89956 13.7399Z" fill="#763D16" stroke="#763D16" stroke-width="0.0672646"/>
<path d="M3.06445 13.5448L7.14741 13.1009L3.8649 15.6771L3.06445 13.5448Z" fill="#763D16" stroke="#763D16" stroke-width="0.0672646"/>
<path d="M22.6926 18.8184L20.9976 17.9641L19.8877 16.7937L22.6926 18.8184Z" fill="#CD6116" stroke="#CD6116" stroke-width="0.0672646"/>
<path d="M3.06463 13.5448L2.77539 12.0179L7.14759 13.1009L3.06463 13.5448Z" fill="#763D16" stroke="#763D16" stroke-width="0.0672646"/>
<path d="M20.6484 19.8879L20.9982 17.9641L22.6933 18.8184L20.6484 19.8879Z" fill="#233447" stroke="#233447" stroke-width="0.0672646"/>
<path d="M22.8076 21.2063L20.6484 19.8879L22.6933 18.8184L22.8076 21.2063Z" fill="#F6851B" stroke="#F6851B" stroke-width="0.0672646"/>
<path d="M7.14764 13.1009L2.77545 12.0179L2.41895 10.7332L7.14764 13.1009ZM8.62074 7.02017L7.14764 13.1009L2.41895 10.7332L8.62074 7.02017ZM8.62074 7.02017L14.7754 10.2556L9.89877 13.7399L8.62074 7.02017Z" fill="#763D16" stroke="#763D16" stroke-width="0.0672646"/>
<path d="M9.89941 13.7399L14.7761 10.2556L16.9487 16.8946L9.89941 13.7399ZM16.9487 16.8946L10.2088 16.7534L9.89941 13.7399L16.9487 16.8946Z" fill="#E4761B" stroke="#E4761B" stroke-width="0.0672646"/>
<path d="M3.86523 15.6771L9.89887 13.7399L10.2083 16.7534L3.86523 15.6771ZM19.8877 16.7937L16.9482 16.8946L14.7755 10.2556L19.8877 16.7937Z" fill="#F6851B" stroke="#F6851B" stroke-width="0.0672646"/>
<path d="M20.9976 17.9641L20.6478 19.8879L19.8877 16.7937L20.9976 17.9641Z" fill="#CD6116" stroke="#CD6116" stroke-width="0.0672646"/>
<path d="M4.77344 1L14.7757 10.2556L8.62097 7.02018L4.77344 1Z" fill="#763D16" stroke="#763D16" stroke-width="0.0672646"/>
<path d="M1 22.5314L9.43498 22.1816L11.426 26.4664L1 22.5314Z" fill="#E4761B" stroke="#E4761B" stroke-width="0.0672646"/>
<path d="M11.4266 26.4664L9.43555 22.1816L13.579 21.9798L11.4266 26.4664Z" fill="#CD6116" stroke="#CD6116" stroke-width="0.0672646"/>
<path d="M20.648 19.8879L22.8072 21.2063L23.9978 24.0112L20.648 19.8879ZM10.2085 16.7534L1 22.5314L3.86547 15.6771L10.2085 16.7534ZM9.43498 22.1816L1 22.5314L10.2085 16.7534L9.43498 22.1816ZM19.8879 16.7937L20.4395 18.7982L17.7758 18.9529L19.8879 16.7937ZM17.7758 18.9529L16.9484 16.8946L19.8879 16.7937L17.7758 18.9529Z" fill="#F6851B" stroke="#F6851B" stroke-width="0.0672646"/>
<path d="M13.6926 27.3543L11.4258 26.4664L19.3092 27.7915L13.6926 27.3543Z" fill="#C0AD9E" stroke="#C0AD9E" stroke-width="0.0672646"/>
<path d="M3.8657 15.6771L2.57422 14.0224L3.06525 13.5449L3.8657 15.6771Z" fill="#763D16" stroke="#763D16" stroke-width="0.0672646"/>
<path d="M20.2038 26.8094L19.3092 27.7915L11.4258 26.4664L20.2038 26.8094Z" fill="#D7C1B3" stroke="#D7C1B3" stroke-width="0.0672646"/>
<path d="M20.6276 24.4014L11.4258 26.4664L13.5782 21.9798L20.6276 24.4014Z" fill="#E4761B" stroke="#E4761B" stroke-width="0.0672646"/>
</svg>
