<svg width="85" height="17" viewBox="0 0 85 17" fill="none" xmlns="http://www.w3.org/2000/svg">
<path d="M77.2959 13.6083L73.3789 4.61852H76.0053L78.6767 11.0569L81.7683 4.61852H84.3497L78.2564 17H75.6451L77.2959 13.6083ZM67.7809 11.7473C68.0061 11.6872 68.2312 11.6122 68.4413 11.4921C68.6364 11.3871 68.8315 11.252 68.9966 11.1019C69.1617 10.9519 69.3117 10.7718 69.4318 10.5767C69.5519 10.3665 69.6569 10.1414 69.7169 9.91631C69.792 9.66117 69.822 9.40604 69.822 9.13589C69.822 8.86575 69.792 8.61062 69.7169 8.35549C69.6569 8.13037 69.5519 7.90525 69.4318 7.69514C69.3117 7.50003 69.1617 7.31994 68.9966 7.16986C68.8315 7.01978 68.6364 6.88471 68.4413 6.77966C68.2312 6.6746 68.0061 6.59956 67.7809 6.53953C67.5408 6.4795 67.2857 6.44948 67.0455 6.46449C66.8054 6.46449 66.5503 6.49451 66.3102 6.53953C66.085 6.58455 65.8599 6.6746 65.6498 6.77966C65.4397 6.88471 65.2596 7.01978 65.0945 7.16986C64.9294 7.31994 64.7794 7.50003 64.6593 7.69514C64.5392 7.90525 64.4342 8.13037 64.3741 8.35549C64.2991 8.61062 64.2691 8.88076 64.2691 9.13589C64.2691 9.39103 64.2991 9.66117 64.3741 9.91631C64.4342 10.1414 64.5392 10.3665 64.6593 10.5767C64.7794 10.7718 64.9294 10.9519 65.0945 11.1019C65.2596 11.252 65.4547 11.3871 65.6498 11.4921C65.8599 11.5972 66.07 11.6872 66.3102 11.7473C66.5503 11.8073 66.7904 11.8373 67.0455 11.8223C67.2857 11.8373 67.5258 11.8073 67.7809 11.7473ZM65.1245 13.7583C64.7193 13.6533 64.3291 13.5032 63.9689 13.2931C63.2636 12.9029 62.6782 12.3176 62.288 11.6122C62.0779 11.252 61.9278 10.8618 61.8228 10.4566C61.6127 9.58613 61.6127 8.68566 61.8228 7.8152C61.9278 7.40999 62.0779 7.01978 62.288 6.65959C62.6782 5.95422 63.2636 5.38392 63.9689 4.97871C64.3291 4.7836 64.7193 4.61852 65.1245 4.51346C65.5598 4.40841 65.995 4.34838 66.4452 4.34838C66.6854 4.34838 66.9255 4.36338 67.1656 4.3934C67.3907 4.42342 67.6008 4.46844 67.8109 4.52847C68.0061 4.5885 68.2011 4.64853 68.3812 4.73858C68.5613 4.81362 68.7264 4.90367 68.8915 5.00872C69.0416 5.09877 69.1917 5.21883 69.3117 5.3389C69.4318 5.45896 69.5519 5.57902 69.6419 5.7141V4.63352H72.1332V13.6683H69.6419V12.5877C69.3117 13.0079 68.8765 13.3381 68.3812 13.5632C68.0961 13.6983 67.7959 13.7883 67.4808 13.8334C67.1356 13.8934 66.7754 13.9384 66.4302 13.9234C65.995 13.9234 65.5598 13.8784 65.1245 13.7583ZM56.0898 6.91473C56.45 6.91473 56.8102 6.88471 57.1553 6.79466C57.4255 6.71962 57.6806 6.59956 57.8907 6.41946C58.0858 6.25438 58.2359 6.04427 58.326 5.80414C58.416 5.534 58.476 5.24885 58.461 4.9637C58.461 4.67855 58.416 4.3934 58.326 4.12326C58.2359 3.88313 58.0858 3.68803 57.8907 3.52294C57.6806 3.35785 57.4255 3.22278 57.1553 3.16275C56.8102 3.0727 56.45 3.02768 56.0898 3.04269H53.6435V6.91473H56.0898ZM51.0621 0.911567H56.3449C57.0803 0.896559 57.8007 1.00161 58.491 1.21172C59.0463 1.37681 59.5566 1.67697 59.9918 2.05217C60.382 2.41236 60.6822 2.84759 60.8773 3.34285C61.0724 3.86812 61.1775 4.42341 61.1624 4.97871C61.1624 5.534 61.0724 6.08929 60.8773 6.59956C60.6822 7.09482 60.382 7.53005 59.9918 7.89024C59.5566 8.28045 59.0463 8.5656 58.491 8.73068C57.8007 8.94079 57.0653 9.04585 56.3449 9.03084H53.6585V13.6683H51.0771L51.0621 0.911567ZM40.0013 4.61852H42.4776V5.69909C42.6277 5.48898 42.8078 5.29387 43.0179 5.14379C43.228 4.97871 43.4681 4.82863 43.7233 4.72357C43.9934 4.60351 44.2936 4.51346 44.5937 4.45343C44.9239 4.3934 45.2541 4.36338 45.5993 4.36338C46.1245 4.34838 46.6498 4.43842 47.1301 4.61852C47.5653 4.7836 47.9705 5.03874 48.3007 5.36891C48.6308 5.71409 48.871 6.13431 49.0211 6.58455C49.2011 7.10983 49.2762 7.65012 49.2762 8.20541V13.6683H46.7999V8.85075C46.7999 8.50556 46.7549 8.14538 46.6498 7.8152C46.5598 7.54506 46.4247 7.28993 46.2296 7.06481C46.0495 6.8697 45.8094 6.70462 45.5542 6.61457C44.9689 6.41947 44.3236 6.41947 43.7233 6.61457C43.4681 6.70462 43.228 6.8697 43.0479 7.06481C42.8528 7.28993 42.7177 7.54506 42.6277 7.8152C42.5226 8.14538 42.4776 8.50556 42.4776 8.85075V13.6683H40.0163L40.0013 4.61852ZM33.9081 11.7173C34.1482 11.6572 34.3733 11.5822 34.5835 11.4621C34.7936 11.3571 34.9737 11.222 35.1387 11.0569C35.3038 10.8918 35.4389 10.7117 35.559 10.5166C35.679 10.3065 35.7691 10.0964 35.8141 9.87128C35.9342 9.37602 35.9342 8.86575 35.8141 8.37049C35.709 7.92025 35.4689 7.50003 35.1387 7.18487C34.9737 7.01978 34.7786 6.88471 34.5835 6.77966C34.3733 6.65959 34.1332 6.58455 33.9081 6.52452C33.653 6.46449 33.3828 6.43447 33.1277 6.43447C32.8726 6.43447 32.6024 6.46449 32.3473 6.52452C32.1072 6.58455 31.882 6.65959 31.6719 6.77966C31.4618 6.88471 31.2817 7.01978 31.1166 7.18487C30.9515 7.34995 30.8165 7.53005 30.6964 7.72515C30.3362 8.3855 30.2462 9.1509 30.4413 9.88629C30.5013 10.1114 30.5914 10.3365 30.6964 10.5316C30.8015 10.7267 30.9515 10.9068 31.1166 11.0719C31.2817 11.237 31.4618 11.3721 31.6719 11.4771C31.882 11.5822 32.1072 11.6722 32.3473 11.7323C32.6024 11.7923 32.8575 11.8223 33.1277 11.8223C33.3978 11.8223 33.653 11.7923 33.9081 11.7173ZM31.6719 13.7583C31.2217 13.6533 30.7865 13.5032 30.3812 13.2931C29.991 13.098 29.6459 12.8579 29.3157 12.5727C29.0005 12.2876 28.7304 11.9724 28.5203 11.6122C28.2951 11.252 28.1301 10.8618 28.01 10.4566C27.7699 9.58613 27.7699 8.67065 28.01 7.8152C28.1301 7.40999 28.2951 7.01978 28.5203 6.65959C28.9705 5.93921 29.6158 5.3539 30.3812 4.97871C30.7865 4.7686 31.2217 4.61852 31.6719 4.51346C32.6324 4.28834 33.638 4.28834 34.5985 4.51346C35.0487 4.61852 35.4689 4.7686 35.8741 4.97871C36.2643 5.17381 36.6095 5.41394 36.9397 5.7141C37.2549 5.99925 37.525 6.31441 37.7501 6.6746C37.9752 7.03479 38.1553 7.425 38.2604 7.83021C38.5005 8.70067 38.5005 9.61615 38.2604 10.4716C38.0353 11.297 37.57 12.0324 36.9397 12.5877C36.6245 12.8729 36.2643 13.113 35.8741 13.3081C35.4689 13.5182 35.0337 13.6683 34.5985 13.7733C33.638 13.9834 32.6324 13.9834 31.6719 13.7583ZM22.0368 11.7173C22.277 11.6572 22.5021 11.5822 22.7122 11.4621C22.9223 11.3571 23.1024 11.222 23.2675 11.0569C23.4326 10.8918 23.5677 10.7117 23.6877 10.5166C23.8078 10.3065 23.8978 10.0964 23.9429 9.87128C24.0629 9.37602 24.0629 8.86575 23.9429 8.37049C23.8378 7.92025 23.5977 7.50003 23.2675 7.18487C23.1024 7.01978 22.9073 6.88471 22.7122 6.77966C22.5021 6.65959 22.262 6.58455 22.0368 6.52452C21.7817 6.46449 21.5116 6.43447 21.2564 6.43447C21.0013 6.43447 20.7312 6.46449 20.476 6.52452C20.2359 6.58455 20.0108 6.65959 19.8007 6.77966C19.6056 6.88471 19.4105 7.01978 19.2454 7.18487C19.0803 7.33495 18.9452 7.53005 18.8252 7.72515C18.7201 7.93526 18.6301 8.14537 18.57 8.37049C18.51 8.61062 18.465 8.86575 18.48 9.12089C18.48 9.37602 18.51 9.63116 18.57 9.87128C18.6301 10.0964 18.7201 10.3215 18.8252 10.5166C18.9302 10.7117 19.0803 10.8918 19.2454 11.0569C19.4105 11.222 19.5906 11.3571 19.8007 11.4621C20.0108 11.5672 20.2359 11.6572 20.476 11.7173C20.7312 11.7773 20.9863 11.8073 21.2564 11.8073C21.5116 11.8073 21.7817 11.7773 22.0368 11.7173ZM19.7857 13.7583C19.3354 13.6533 18.9002 13.5032 18.495 13.2931C18.1048 13.098 17.7596 12.8579 17.4294 12.5727C17.1143 12.2876 16.8441 11.9724 16.634 11.6122C16.4089 11.252 16.2438 10.8618 16.1237 10.4566C15.8836 9.58613 15.8836 8.67065 16.1237 7.8152C16.2438 7.40999 16.4089 7.01978 16.634 6.65959C16.8591 6.2994 17.1293 5.98424 17.4294 5.69909C17.7446 5.41394 18.1048 5.1588 18.495 4.9637C18.9002 4.75359 19.3354 4.60351 19.7857 4.49845C20.7462 4.28834 21.7517 4.28834 22.7122 4.49845C23.1624 4.60351 23.5827 4.75359 23.9879 4.9637C24.3781 5.1588 24.7233 5.39893 25.0534 5.69909C25.3686 5.98424 25.6387 6.2994 25.8639 6.65959C26.089 7.01978 26.2691 7.40999 26.3741 7.8152C26.6143 8.68566 26.6143 9.60114 26.3741 10.4566C26.149 11.282 25.6838 12.0174 25.0534 12.5727C24.7383 12.8579 24.3781 13.098 23.9879 13.2931C23.5827 13.5032 23.1474 13.6533 22.7122 13.7583C21.7667 13.9834 20.7612 13.9834 19.7857 13.7583ZM0.275391 0.911567H2.88676L7.3291 7.71014L11.8015 0.911567H14.3978V13.6683H11.8165V4.91868L8.12452 10.5616H6.54869L2.85675 4.91868V13.6683H0.275391V0.911567Z" fill="white"/>
</svg>
