<svg width="36" height="36" viewBox="0 0 36 36" fill="none" xmlns="http://www.w3.org/2000/svg">
<rect width="36" height="36" rx="18" fill="white" fill-opacity="0.3"/>
<path fill-rule="evenodd" clip-rule="evenodd" d="M15.7833 18.997H18.5383C20.9983 18.997 23.0923 17.207 23.4763 14.777V14.777C23.9543 11.744 21.6103 9 18.5383 9H13.2083C12.7163 9 12.2973 9.358 12.2203 9.844L10.0123 23.844C9.91726 24.451 10.3863 25 11.0003 25H13.8463L14.6383 19.976C14.7273 19.412 15.2133 18.997 15.7833 18.997Z" stroke="white" stroke-width="1.5" stroke-linecap="round" stroke-linejoin="round"/>
<path d="M23.4672 13.163C25.2042 14.153 26.2762 16.144 25.9382 18.285C25.5552 20.715 23.4602 22.505 21.0002 22.505H21.0212H18.3922L17.8162 26.155C17.7402 26.642 17.3202 27 16.8282 26.999L14.1162 26.997C13.8092 26.997 13.5752 26.722 13.6222 26.419L13.8462 25" stroke="white" stroke-width="1.5" stroke-linecap="round" stroke-linejoin="round"/>
</svg>
