<svg width="82" height="20" viewBox="0 0 82 20" fill="none" xmlns="http://www.w3.org/2000/svg">
<path d="M30.6254 4.47284H26.093C25.7828 4.47284 25.5191 4.69817 25.4707 5.00435L23.6376 16.6267C23.6011 16.856 23.7787 17.0628 24.0114 17.0628H26.1752C26.4853 17.0628 26.7491 16.8375 26.7975 16.5306L27.2919 13.3959C27.3396 13.0891 27.604 12.8637 27.9135 12.8637H29.3484C32.334 12.8637 34.0571 11.419 34.5071 8.55595C34.7099 7.30338 34.5157 6.31922 33.9292 5.62997C33.285 4.87313 32.1424 4.47284 30.6254 4.47284ZM31.1483 8.71766C30.9005 10.344 29.6579 10.344 28.4563 10.344H27.7724L28.2522 7.30669C28.2807 7.12312 28.4397 6.98792 28.6253 6.98792H28.9388C29.7573 6.98792 30.5293 6.98792 30.9283 7.45448C31.1662 7.73283 31.2391 8.14638 31.1483 8.71766Z" fill="white"/>
<path d="M44.1739 8.6653H42.0035C41.8186 8.6653 41.6589 8.8005 41.6304 8.98408L41.5343 9.59114L41.3825 9.37112C40.9126 8.68916 39.8648 8.46118 38.8191 8.46118C36.4206 8.46118 34.3721 10.2777 33.9731 12.826C33.7657 14.0971 34.0606 15.3125 34.7817 16.1602C35.4431 16.9396 36.3895 17.2643 37.5154 17.2643C39.448 17.2643 40.5196 16.0217 40.5196 16.0217L40.4229 16.6248C40.3864 16.8554 40.564 17.0622 40.7953 17.0622H42.7504C43.0612 17.0622 43.3237 16.8368 43.3727 16.53L44.5457 9.10138C44.5829 8.87274 44.4059 8.6653 44.1739 8.6653ZM41.1486 12.8896C40.9391 14.1296 39.955 14.9619 38.6998 14.9619C38.0695 14.9619 37.5658 14.7598 37.2424 14.3768C36.9216 13.9963 36.7997 13.4549 36.9018 12.8518C37.0973 11.6224 38.098 10.7629 39.334 10.7629C39.9503 10.7629 40.4514 10.9676 40.7814 11.354C41.1121 11.7444 41.2433 12.2891 41.1486 12.8896Z" fill="white"/>
<path d="M55.7335 8.66522H53.5525C53.3444 8.66522 53.1488 8.76861 53.0309 8.94158L50.0227 13.3726L48.7476 9.11456C48.6674 8.84814 48.4216 8.66522 48.1432 8.66522H45.9999C45.7395 8.66522 45.5585 8.91971 45.6414 9.16492L48.0438 16.2151L45.7852 19.4035C45.6076 19.6547 45.7865 20 46.0934 20H48.2718C48.4786 20 48.6721 19.8992 48.7894 19.7296L56.0437 9.25837C56.2173 9.00786 56.039 8.66522 55.7335 8.66522Z" fill="white"/>
<path d="M62.9555 4.47284H58.4224C58.1129 4.47284 57.8492 4.69817 57.8008 5.00435L55.9676 16.6267C55.9312 16.856 56.1088 17.0628 56.3401 17.0628H58.6663C58.8824 17.0628 59.0673 16.9051 59.1011 16.6904L59.6213 13.3959C59.669 13.0891 59.9335 12.8637 60.243 12.8637H61.6771C64.6634 12.8637 66.3858 11.419 66.8365 8.55595C67.04 7.30338 66.8445 6.31922 66.2579 5.62997C65.6144 4.87313 64.4725 4.47284 62.9555 4.47284ZM63.4784 8.71766C63.2312 10.344 61.9886 10.344 60.7864 10.344H60.1031L60.5836 7.30669C60.6121 7.12312 60.7698 6.98792 60.9561 6.98792H61.2695C62.0873 6.98792 62.8601 6.98792 63.2591 7.45448C63.497 7.73283 63.5692 8.14638 63.4784 8.71766Z" fill="white"/>
<path d="M76.5031 8.6653H74.334C74.1478 8.6653 73.9894 8.8005 73.9616 8.98408L73.8655 9.59114L73.713 9.37112C73.2432 8.68916 72.196 8.46118 71.1502 8.46118C68.7518 8.46118 66.7039 10.2777 66.305 12.826C66.0982 14.0971 66.3918 15.3125 67.1129 16.1602C67.7756 16.9396 68.7206 17.2643 69.8466 17.2643C71.7792 17.2643 72.8508 16.0217 72.8508 16.0217L72.7541 16.6248C72.7176 16.8554 72.8952 17.0622 73.1278 17.0622H75.0822C75.3917 17.0622 75.6555 16.8368 75.7039 16.53L76.8776 9.10138C76.9134 8.87274 76.7358 8.6653 76.5031 8.6653ZM73.4778 12.8896C73.2697 14.1296 72.2842 14.9619 71.029 14.9619C70.4 14.9619 69.895 14.7598 69.5716 14.3768C69.2508 13.9963 69.1302 13.4549 69.231 12.8518C69.4278 11.6224 70.4272 10.7629 71.6632 10.7629C72.2795 10.7629 72.7806 10.9676 73.1106 11.354C73.4426 11.7444 73.5739 12.2891 73.4778 12.8896Z" fill="white"/>
<path d="M79.0604 4.79161L77.2001 16.6267C77.1636 16.856 77.3412 17.0628 77.5725 17.0628H79.4428C79.7536 17.0628 80.0174 16.8375 80.0651 16.5306L81.8995 4.90891C81.936 4.6796 81.7584 4.47217 81.5271 4.47217H79.4328C79.2479 4.47283 79.0889 4.60803 79.0604 4.79161Z" fill="white"/>
<path d="M4.8154 19.3213L5.16201 17.1197L4.38992 17.1018H0.703125L3.26526 0.856202C3.27321 0.807159 3.29906 0.761431 3.33683 0.728957C3.37461 0.696483 3.42299 0.678589 3.47336 0.678589H9.68981C11.7536 0.678589 13.1778 1.10804 13.9214 1.95568C14.27 2.35332 14.492 2.76885 14.5993 3.22614C14.712 3.70596 14.714 4.27923 14.604 4.97841L14.596 5.02944V5.47745L14.9446 5.67495C15.2382 5.83069 15.4715 6.00897 15.6504 6.21309C15.9487 6.55307 16.1415 6.98517 16.2231 7.49747C16.3072 8.02434 16.2794 8.65129 16.1415 9.36108C15.9825 10.1776 15.7253 10.8887 15.3781 11.4706C15.0586 12.0067 14.6517 12.4514 14.1686 12.796C13.7073 13.1234 13.1592 13.372 12.5396 13.531C11.9391 13.6874 11.2545 13.7663 10.5036 13.7663H10.0199C9.67391 13.7663 9.3379 13.8909 9.07413 14.1142C8.8097 14.3422 8.63474 14.6537 8.58106 14.9943L8.5446 15.1925L7.93224 19.0728L7.9044 19.2153C7.89711 19.2604 7.88452 19.2829 7.86596 19.2981C7.8494 19.312 7.82554 19.3213 7.80234 19.3213H4.8154Z" fill="#253B80"/>
<path opacity="0.8" d="M15.2751 5.08118C15.2565 5.19981 15.2353 5.32109 15.2114 5.44568C14.3916 9.65471 11.5869 11.1088 8.00485 11.1088H6.181C5.74294 11.1088 5.37379 11.4269 5.30553 11.859L4.37174 17.7812L4.10731 19.4599C4.0629 19.7435 4.28161 19.9993 4.56791 19.9993H7.80272C8.18578 19.9993 8.51118 19.721 8.57149 19.3432L8.6033 19.1789L9.21235 15.3138L9.25145 15.1017C9.3111 14.7226 9.63717 14.4443 10.0202 14.4443H10.504C13.6381 14.4443 16.0915 13.1718 16.8086 9.48969C17.1082 7.95148 16.9531 6.6671 16.1605 5.76379C15.9206 5.49141 15.623 5.26542 15.2751 5.08118Z" fill="white"/>
<path opacity="0.9" d="M14.4186 4.73926C14.2933 4.70281 14.1641 4.66967 14.0315 4.63985C13.8983 4.61069 13.7618 4.58484 13.6213 4.56231C13.1296 4.48278 12.5908 4.44501 12.0135 4.44501H7.14109C7.02114 4.44501 6.90715 4.47218 6.80508 4.52122C6.58042 4.62925 6.41341 4.84199 6.37298 5.10244L5.33646 11.6675L5.30664 11.859C5.3749 11.4269 5.74405 11.1088 6.18211 11.1088H8.00596C11.588 11.1088 14.3927 9.6541 15.2125 5.44574C15.2371 5.32114 15.2576 5.19986 15.2762 5.08123C15.0687 4.97122 14.8441 4.87711 14.6022 4.79692C14.5425 4.77704 14.4809 4.75782 14.4186 4.73926Z" fill="white"/>
<path d="M6.37153 5.1024C6.41195 4.84194 6.57896 4.6292 6.80363 4.52184C6.90635 4.4728 7.01968 4.44563 7.13964 4.44563H12.0121C12.5893 4.44563 13.1281 4.4834 13.6199 4.56293C13.7604 4.58546 13.8969 4.61131 14.0301 4.64047C14.1626 4.67029 14.2919 4.70343 14.4171 4.73988C14.4794 4.75844 14.5411 4.77766 14.6014 4.79688C14.8433 4.87707 15.0679 4.97184 15.2754 5.08119C15.5193 3.52575 15.2734 2.4667 14.4324 1.50772C13.5052 0.451985 11.8318 0 9.6905 0H3.47405C3.03664 0 2.66352 0.318113 2.59593 0.750879L0.00661994 17.1635C-0.0444106 17.4882 0.206103 17.7812 0.533494 17.7812H4.37139L5.33501 11.6674L6.37153 5.1024Z" fill="white"/>
</svg>
