<svg width="36" height="36" viewBox="0 0 36 36" fill="none" xmlns="http://www.w3.org/2000/svg">
<rect width="36" height="36" rx="18" fill="white"/>
<path d="M23.4196 13.7926L21.4481 11.1639C20.9171 10.456 19.9256 10.2862 19.1893 10.777L14.6074 13.8316" stroke="#323232" stroke-width="1.5" stroke-linecap="round" stroke-linejoin="round"/>
<path fill-rule="evenodd" clip-rule="evenodd" d="M23.4192 17.5832H25.5034C25.9638 17.5832 26.337 17.9564 26.337 18.4168V20.9179C26.337 21.3783 25.9638 21.7516 25.5034 21.7516H23.4192C22.2681 21.7516 21.335 20.8184 21.335 19.6674V19.6674C21.335 18.5163 22.2681 17.5832 23.4192 17.5832V17.5832Z" stroke="#323232" stroke-width="1.5" stroke-linecap="round" stroke-linejoin="round"/>
<path d="M25.5033 17.5832V15.9158C25.5033 14.7647 24.5702 13.8316 23.4191 13.8316H12.5813C11.4302 13.8316 10.4971 14.7647 10.4971 15.9158V23.4189C10.4971 24.57 11.4302 25.5031 12.5813 25.5031H23.4191C24.5702 25.5031 25.5033 24.57 25.5033 23.4189V21.7516" stroke="#323232" stroke-width="1.5" stroke-linecap="round" stroke-linejoin="round"/>
</svg>
