<svg width="331" height="441" viewBox="0 0 331 441" fill="none" xmlns="http://www.w3.org/2000/svg">
<g filter="url(#filter0_bd_5008_33953)">
<g clip-path="url(#clip0_5008_33953)">
<rect x="28" y="27" width="275" height="385" rx="10" fill="url(#paint0_linear_5008_33953)" fill-opacity="0.5"/>
<path d="M96.1473 224.708L117.859 248.38L156 248.38L156 196.676L134.289 173.005L134.289 224.708L96.1473 224.708Z" fill="url(#paint1_linear_5008_33953)"/>
<path d="M225.56 234.807L203.848 211.136H165.707V262.84L187.418 286.511V234.807H225.56Z" fill="url(#paint2_linear_5008_33953)"/>
<path d="M-24.8371 202.315L-3.12583 225.986L35.0156 225.986L35.0156 174.283L13.3043 150.611L13.3043 202.315L-24.8371 202.315Z" fill="url(#paint3_linear_5008_33953)"/>
<path d="M104.575 212.414L82.8641 188.742H44.7227V240.446L66.4339 264.117V212.414H104.575Z" fill="url(#paint4_linear_5008_33953)"/>
<path d="M217.124 252.27L238.835 275.942L276.977 275.942L276.977 224.238L255.265 200.567L255.265 252.27L217.124 252.27Z" fill="url(#paint5_linear_5008_33953)"/>
<path d="M346.536 262.369L324.825 238.698H286.684V290.401L308.395 314.073V262.369H346.536Z" fill="url(#paint6_linear_5008_33953)"/>
<path d="M35.4465 128.007L13.7352 104.335H-24.4062L-24.4063 156.039L-2.69496 179.71L-2.69496 128.007H35.4465Z" fill="url(#paint7_linear_5008_33953)"/>
<path d="M147.995 167.863L169.706 191.534L207.848 191.534L207.848 139.831L186.136 116.159L186.136 167.863L147.995 167.863Z" fill="url(#paint8_linear_5008_33953)"/>
<path d="M277.407 177.962L255.696 154.291H217.555V205.994L239.266 229.666V177.962H277.407Z" fill="url(#paint9_linear_5008_33953)"/>
<path d="M80.4363 92.069L102.148 115.74L140.289 115.74L140.289 64.0369L118.578 40.3654L118.578 92.069L80.4363 92.069Z" fill="url(#paint10_linear_5008_33953)"/>
<path d="M209.849 102.168L188.138 78.4966H149.996V130.2L171.707 153.872V102.168H209.849Z" fill="url(#paint11_linear_5008_33953)"/>
<path d="M10.3894 11.7492L32.1007 35.4207L70.2422 35.4207L70.2422 -16.2829L48.5309 -39.9544L48.5309 11.7492L10.3894 11.7492Z" fill="url(#paint12_linear_5008_33953)"/>
<path d="M139.802 21.8483L118.091 -1.82324L79.9492 -1.82324V49.8803L101.661 73.5518V21.8483L139.802 21.8483Z" fill="url(#paint13_linear_5008_33953)"/>
<path d="M27.0144 145.469L48.7257 169.141L86.8672 169.141L86.8672 117.437L65.1559 93.7658L65.1559 145.469L27.0144 145.469Z" fill="url(#paint14_linear_5008_33953)"/>
<path d="M156.427 155.568L134.716 131.897H96.5742V183.601L118.286 207.272V155.568H156.427Z" fill="url(#paint15_linear_5008_33953)"/>
<path d="M268.975 195.424L290.687 219.096L328.828 219.096L328.828 167.392L307.117 143.721L307.117 195.424L268.975 195.424Z" fill="url(#paint16_linear_5008_33953)"/>
<path d="M201.413 114.463L223.124 138.134L261.266 138.134L261.266 86.4307L239.554 62.7592L239.554 114.463L201.413 114.463Z" fill="url(#paint17_linear_5008_33953)"/>
<path d="M330.825 124.562L309.114 100.89H270.973V152.594L292.684 176.265V124.562H330.825Z" fill="url(#paint18_linear_5008_33953)"/>
<path d="M252.843 58.9281L274.554 82.5996L312.695 82.5996L312.695 30.8961L290.984 7.22458L290.984 58.9281L252.843 58.9281Z" fill="url(#paint19_linear_5008_33953)"/>
<path d="M131.374 34.143L153.085 57.8144L191.227 57.8145L191.227 6.11092L169.515 -17.5606L169.515 34.143L131.374 34.143Z" fill="url(#paint20_linear_5008_33953)"/>
<path d="M260.786 44.2421L239.075 20.5706L200.934 20.5706V72.2741L222.645 95.9456V44.2421H260.786Z" fill="url(#paint21_linear_5008_33953)"/>
<path d="M90.4348 76.329L68.7235 52.6575H30.582L30.582 104.361L52.2933 128.033V76.329H90.4348Z" fill="url(#paint22_linear_5008_33953)"/>
</g>
</g>
<rect x="29.5" y="28.5" width="272" height="382" rx="8.5" stroke="url(#paint23_linear_5008_33953)" stroke-width="3"/>
<defs>
<filter id="filter0_bd_5008_33953" x="-36.1667" y="-37.1667" width="403.333" height="513.333" filterUnits="userSpaceOnUse" color-interpolation-filters="sRGB">
<feFlood flood-opacity="0" result="BackgroundImageFix"/>
<feGaussianBlur in="BackgroundImage" stdDeviation="32.0833"/>
<feComposite in2="SourceAlpha" operator="in" result="effect1_backgroundBlur_5008_33953"/>
<feColorMatrix in="SourceAlpha" type="matrix" values="0 0 0 0 0 0 0 0 0 0 0 0 0 0 0 0 0 0 127 0" result="hardAlpha"/>
<feOffset dy="1.09689"/>
<feGaussianBlur stdDeviation="13.7111"/>
<feColorMatrix type="matrix" values="0 0 0 0 0.269263 0 0 0 0 0.166562 0 0 0 0 0.4875 0 0 0 0.1 0"/>
<feBlend mode="normal" in2="effect1_backgroundBlur_5008_33953" result="effect2_dropShadow_5008_33953"/>
<feBlend mode="normal" in="SourceGraphic" in2="effect2_dropShadow_5008_33953" result="shape"/>
</filter>
<linearGradient id="paint0_linear_5008_33953" x1="34.7623" y1="36.1233" x2="411.925" y2="143.882" gradientUnits="userSpaceOnUse">
<stop stop-color="#9B9B9B"/>
<stop offset="0.486141" stop-color="white"/>
<stop offset="0.96875" stop-color="white" stop-opacity="0"/>
</linearGradient>
<linearGradient id="paint1_linear_5008_33953" x1="126.074" y1="248.38" x2="126.074" y2="173.005" gradientUnits="userSpaceOnUse">
<stop stop-color="white" stop-opacity="0.19"/>
<stop offset="1" stop-color="white" stop-opacity="0"/>
</linearGradient>
<linearGradient id="paint2_linear_5008_33953" x1="195.633" y1="211.136" x2="195.633" y2="286.511" gradientUnits="userSpaceOnUse">
<stop stop-color="white" stop-opacity="0.19"/>
<stop offset="1" stop-color="white" stop-opacity="0"/>
</linearGradient>
<linearGradient id="paint3_linear_5008_33953" x1="5.08925" y1="225.986" x2="5.08926" y2="150.611" gradientUnits="userSpaceOnUse">
<stop stop-color="white" stop-opacity="0.19"/>
<stop offset="1" stop-color="white" stop-opacity="0"/>
</linearGradient>
<linearGradient id="paint4_linear_5008_33953" x1="74.649" y1="188.742" x2="74.649" y2="264.117" gradientUnits="userSpaceOnUse">
<stop stop-color="white" stop-opacity="0.19"/>
<stop offset="1" stop-color="white" stop-opacity="0"/>
</linearGradient>
<linearGradient id="paint5_linear_5008_33953" x1="247.05" y1="275.942" x2="247.05" y2="200.567" gradientUnits="userSpaceOnUse">
<stop stop-color="white" stop-opacity="0.19"/>
<stop offset="1" stop-color="white" stop-opacity="0"/>
</linearGradient>
<linearGradient id="paint6_linear_5008_33953" x1="316.61" y1="238.698" x2="316.61" y2="314.073" gradientUnits="userSpaceOnUse">
<stop stop-color="white" stop-opacity="0.19"/>
<stop offset="1" stop-color="white" stop-opacity="0"/>
</linearGradient>
<linearGradient id="paint7_linear_5008_33953" x1="5.52012" y1="104.335" x2="5.52012" y2="179.71" gradientUnits="userSpaceOnUse">
<stop stop-color="white" stop-opacity="0.19"/>
<stop offset="1" stop-color="white" stop-opacity="0"/>
</linearGradient>
<linearGradient id="paint8_linear_5008_33953" x1="177.921" y1="191.534" x2="177.921" y2="116.159" gradientUnits="userSpaceOnUse">
<stop stop-color="white" stop-opacity="0.19"/>
<stop offset="1" stop-color="white" stop-opacity="0"/>
</linearGradient>
<linearGradient id="paint9_linear_5008_33953" x1="247.481" y1="154.291" x2="247.481" y2="229.666" gradientUnits="userSpaceOnUse">
<stop stop-color="white" stop-opacity="0.19"/>
<stop offset="1" stop-color="white" stop-opacity="0"/>
</linearGradient>
<linearGradient id="paint10_linear_5008_33953" x1="110.363" y1="115.74" x2="110.363" y2="40.3654" gradientUnits="userSpaceOnUse">
<stop stop-color="white" stop-opacity="0.19"/>
<stop offset="1" stop-color="white" stop-opacity="0"/>
</linearGradient>
<linearGradient id="paint11_linear_5008_33953" x1="179.922" y1="78.4966" x2="179.922" y2="153.872" gradientUnits="userSpaceOnUse">
<stop stop-color="white" stop-opacity="0.19"/>
<stop offset="1" stop-color="white" stop-opacity="0"/>
</linearGradient>
<linearGradient id="paint12_linear_5008_33953" x1="40.3158" y1="35.4207" x2="40.3158" y2="-39.9544" gradientUnits="userSpaceOnUse">
<stop stop-color="white" stop-opacity="0.19"/>
<stop offset="1" stop-color="white" stop-opacity="0"/>
</linearGradient>
<linearGradient id="paint13_linear_5008_33953" x1="109.876" y1="-1.82324" x2="109.876" y2="73.5518" gradientUnits="userSpaceOnUse">
<stop stop-color="white" stop-opacity="0.19"/>
<stop offset="1" stop-color="white" stop-opacity="0"/>
</linearGradient>
<linearGradient id="paint14_linear_5008_33953" x1="56.9408" y1="169.141" x2="56.9408" y2="93.7658" gradientUnits="userSpaceOnUse">
<stop stop-color="white" stop-opacity="0.19"/>
<stop offset="1" stop-color="white" stop-opacity="0"/>
</linearGradient>
<linearGradient id="paint15_linear_5008_33953" x1="126.501" y1="131.897" x2="126.501" y2="207.272" gradientUnits="userSpaceOnUse">
<stop stop-color="white" stop-opacity="0.19"/>
<stop offset="1" stop-color="white" stop-opacity="0"/>
</linearGradient>
<linearGradient id="paint16_linear_5008_33953" x1="298.902" y1="219.096" x2="298.902" y2="143.721" gradientUnits="userSpaceOnUse">
<stop stop-color="white" stop-opacity="0.19"/>
<stop offset="1" stop-color="white" stop-opacity="0"/>
</linearGradient>
<linearGradient id="paint17_linear_5008_33953" x1="231.339" y1="138.134" x2="231.339" y2="62.7592" gradientUnits="userSpaceOnUse">
<stop stop-color="white" stop-opacity="0.19"/>
<stop offset="1" stop-color="white" stop-opacity="0"/>
</linearGradient>
<linearGradient id="paint18_linear_5008_33953" x1="300.899" y1="100.89" x2="300.899" y2="176.265" gradientUnits="userSpaceOnUse">
<stop stop-color="white" stop-opacity="0.19"/>
<stop offset="1" stop-color="white" stop-opacity="0"/>
</linearGradient>
<linearGradient id="paint19_linear_5008_33953" x1="282.769" y1="82.5996" x2="282.769" y2="7.22458" gradientUnits="userSpaceOnUse">
<stop stop-color="white" stop-opacity="0.19"/>
<stop offset="1" stop-color="white" stop-opacity="0"/>
</linearGradient>
<linearGradient id="paint20_linear_5008_33953" x1="161.3" y1="57.8145" x2="161.3" y2="-17.5606" gradientUnits="userSpaceOnUse">
<stop stop-color="white" stop-opacity="0.19"/>
<stop offset="1" stop-color="white" stop-opacity="0"/>
</linearGradient>
<linearGradient id="paint21_linear_5008_33953" x1="230.86" y1="20.5706" x2="230.86" y2="95.9456" gradientUnits="userSpaceOnUse">
<stop stop-color="white" stop-opacity="0.19"/>
<stop offset="1" stop-color="white" stop-opacity="0"/>
</linearGradient>
<linearGradient id="paint22_linear_5008_33953" x1="60.5084" y1="52.6575" x2="60.5084" y2="128.033" gradientUnits="userSpaceOnUse">
<stop stop-color="white" stop-opacity="0.19"/>
<stop offset="1" stop-color="white" stop-opacity="0"/>
</linearGradient>
<linearGradient id="paint23_linear_5008_33953" x1="36.5376" y1="27" x2="308.398" y2="408.15" gradientUnits="userSpaceOnUse">
<stop stop-color="white"/>
<stop offset="0.48239" stop-color="#919191"/>
<stop offset="1" stop-color="#525252"/>
</linearGradient>
<clipPath id="clip0_5008_33953">
<rect x="28" y="27" width="275" height="385" rx="10" fill="white"/>
</clipPath>
</defs>
</svg>
