<svg width="331" height="441" viewBox="0 0 331 441" fill="none" xmlns="http://www.w3.org/2000/svg">
<g filter="url(#filter0_bd_5011_34033)">
<g clip-path="url(#clip0_5011_34033)">
<rect x="27.8984" y="27" width="275" height="385" rx="10" fill="url(#paint0_linear_5011_34033)" fill-opacity="0.5"/>
<path d="M95.3863 222.796L116.888 246.239L154.66 246.239L154.66 195.036L133.159 171.593L133.159 222.796L95.3863 222.796Z" fill="url(#paint1_linear_5011_34033)"/>
<path d="M223.547 232.798L202.046 209.355L164.273 209.355L164.273 260.559L185.775 284.001L185.775 232.798L223.547 232.798Z" fill="url(#paint2_linear_5011_34033)"/>
<path d="M-24.4262 200.619L-2.92492 224.062L34.8477 224.062L34.8477 172.859L13.3463 149.416L13.3463 200.619L-24.4262 200.619Z" fill="url(#paint3_linear_5011_34033)"/>
<path d="M103.735 210.621L82.2335 187.178L44.4609 187.178L44.4609 238.382L65.9622 261.824L65.9622 210.621L103.735 210.621Z" fill="url(#paint4_linear_5011_34033)"/>
<path d="M215.195 250.092L236.696 273.534L274.469 273.534L274.469 222.331L252.967 198.888L252.967 250.092L215.195 250.092Z" fill="url(#paint5_linear_5011_34033)"/>
<path d="M343.356 260.093L321.855 236.65L284.082 236.65L284.082 287.854L305.583 311.296L305.583 260.093L343.356 260.093Z" fill="url(#paint6_linear_5011_34033)"/>
<path d="M35.27 127.03L13.7687 103.587L-24.0039 103.587L-24.0039 154.791L-2.5026 178.233L-2.5026 127.03L35.27 127.03Z" fill="url(#paint7_linear_5011_34033)"/>
<path d="M146.73 166.501L168.231 189.943L206.004 189.943L206.004 138.74L184.503 115.297L184.503 166.501L146.73 166.501Z" fill="url(#paint8_linear_5011_34033)"/>
<path d="M274.891 176.502L253.39 153.06L215.617 153.06L215.617 204.263L237.118 227.706L237.118 176.502L274.891 176.502Z" fill="url(#paint9_linear_5011_34033)"/>
<path d="M79.8238 91.4398L101.325 114.882L139.098 114.882L139.098 63.6788L117.596 40.2363L117.596 91.4398L79.8238 91.4398Z" fill="url(#paint10_linear_5011_34033)"/>
<path d="M207.985 101.441L186.484 77.9985L148.711 77.9985L148.711 129.202L170.212 152.645L170.212 101.441L207.985 101.441Z" fill="url(#paint11_linear_5011_34033)"/>
<path d="M10.4605 11.8965L31.9618 35.3391L69.7344 35.3391L69.7344 -15.8644L48.2331 -39.3069L48.2331 11.8965L10.4605 11.8965Z" fill="url(#paint12_linear_5011_34033)"/>
<path d="M138.622 21.8979L117.12 -1.54468L79.3477 -1.54468L79.3477 49.6588L100.849 73.1014L100.849 21.8979L138.622 21.8979Z" fill="url(#paint13_linear_5011_34033)"/>
<path d="M26.9214 144.324L48.4227 167.766L86.1953 167.766L86.1953 116.563L64.694 93.1201L64.694 144.324L26.9214 144.324Z" fill="url(#paint14_linear_5011_34033)"/>
<path d="M155.082 154.325L133.581 130.882L95.8086 130.882L95.8086 182.086L117.31 205.528L117.31 154.325L155.082 154.325Z" fill="url(#paint15_linear_5011_34033)"/>
<path d="M266.539 193.796L288.04 217.238L325.812 217.238L325.813 166.035L304.311 142.592L304.311 193.796L266.539 193.796Z" fill="url(#paint16_linear_5011_34033)"/>
<path d="M199.632 113.617L221.134 137.06L258.906 137.06L258.906 85.8561L237.405 62.4135L237.405 113.617L199.632 113.617Z" fill="url(#paint17_linear_5011_34033)"/>
<path d="M327.793 123.618L306.292 100.176L268.52 100.176L268.52 151.379L290.021 174.822L290.021 123.618L327.793 123.618Z" fill="url(#paint18_linear_5011_34033)"/>
<path d="M250.566 58.6194L272.067 82.062L309.84 82.062L309.84 30.8585L288.339 7.41595L288.339 58.6194L250.566 58.6194Z" fill="url(#paint19_linear_5011_34033)"/>
<path d="M130.269 34.0738L151.77 57.5164L189.543 57.5164L189.543 6.31286L168.042 -17.1297L168.042 34.0738L130.269 34.0738Z" fill="url(#paint20_linear_5011_34033)"/>
<path d="M258.43 44.0751L236.929 20.6326L199.156 20.6326L199.156 71.8361L220.658 95.2786L220.658 44.0751L258.43 44.0751Z" fill="url(#paint21_linear_5011_34033)"/>
<path d="M89.727 75.852L68.2257 52.4094L30.4531 52.4094L30.4531 103.613L51.9544 127.055L51.9544 75.852L89.727 75.852Z" fill="url(#paint22_linear_5011_34033)"/>
</g>
</g>
<rect x="28.5" y="28.5" width="273" height="382" rx="8.5" stroke="url(#paint23_linear_5011_34033)" stroke-width="3"/>
<defs>
<filter id="filter0_bd_5011_34033" x="-35.6477" y="-36.5461" width="402.092" height="512.092" filterUnits="userSpaceOnUse" color-interpolation-filters="sRGB">
<feFlood flood-opacity="0" result="BackgroundImageFix"/>
<feGaussianBlur in="BackgroundImage" stdDeviation="31.773"/>
<feComposite in2="SourceAlpha" operator="in" result="effect1_backgroundBlur_5011_34033"/>
<feColorMatrix in="SourceAlpha" type="matrix" values="0 0 0 0 0 0 0 0 0 0 0 0 0 0 0 0 0 0 127 0" result="hardAlpha"/>
<feOffset dy="1.08628"/>
<feGaussianBlur stdDeviation="13.5785"/>
<feColorMatrix type="matrix" values="0 0 0 0 0.269263 0 0 0 0 0.166562 0 0 0 0 0.4875 0 0 0 0.1 0"/>
<feBlend mode="normal" in2="effect1_backgroundBlur_5011_34033" result="effect2_dropShadow_5011_34033"/>
<feBlend mode="normal" in="SourceGraphic" in2="effect2_dropShadow_5011_34033" result="shape"/>
</filter>
<linearGradient id="paint0_linear_5011_34033" x1="34.6607" y1="36.1232" x2="407.271" y2="139.384" gradientUnits="userSpaceOnUse">
<stop stop-color="#2FB8FF" stop-opacity="0.55"/>
<stop offset="0.502465" stop-color="#A5E0FF" stop-opacity="0.94"/>
<stop offset="0.96875" stop-color="white" stop-opacity="0"/>
</linearGradient>
<linearGradient id="paint1_linear_5011_34033" x1="125.023" y1="246.239" x2="125.023" y2="171.593" gradientUnits="userSpaceOnUse">
<stop stop-color="white" stop-opacity="0.19"/>
<stop offset="1" stop-color="white" stop-opacity="0"/>
</linearGradient>
<linearGradient id="paint2_linear_5011_34033" x1="193.91" y1="209.355" x2="193.91" y2="284.001" gradientUnits="userSpaceOnUse">
<stop stop-color="white" stop-opacity="0.19"/>
<stop offset="1" stop-color="white" stop-opacity="0"/>
</linearGradient>
<linearGradient id="paint3_linear_5011_34033" x1="5.21071" y1="224.062" x2="5.21072" y2="149.416" gradientUnits="userSpaceOnUse">
<stop stop-color="white" stop-opacity="0.19"/>
<stop offset="1" stop-color="white" stop-opacity="0"/>
</linearGradient>
<linearGradient id="paint4_linear_5011_34033" x1="74.0979" y1="187.178" x2="74.0979" y2="261.824" gradientUnits="userSpaceOnUse">
<stop stop-color="white" stop-opacity="0.19"/>
<stop offset="1" stop-color="white" stop-opacity="0"/>
</linearGradient>
<linearGradient id="paint5_linear_5011_34033" x1="244.832" y1="273.534" x2="244.832" y2="198.888" gradientUnits="userSpaceOnUse">
<stop stop-color="white" stop-opacity="0.19"/>
<stop offset="1" stop-color="white" stop-opacity="0"/>
</linearGradient>
<linearGradient id="paint6_linear_5011_34033" x1="313.719" y1="236.65" x2="313.719" y2="311.296" gradientUnits="userSpaceOnUse">
<stop stop-color="white" stop-opacity="0.19"/>
<stop offset="1" stop-color="white" stop-opacity="0"/>
</linearGradient>
<linearGradient id="paint7_linear_5011_34033" x1="5.63304" y1="103.587" x2="5.63304" y2="178.233" gradientUnits="userSpaceOnUse">
<stop stop-color="white" stop-opacity="0.19"/>
<stop offset="1" stop-color="white" stop-opacity="0"/>
</linearGradient>
<linearGradient id="paint8_linear_5011_34033" x1="176.367" y1="189.943" x2="176.367" y2="115.297" gradientUnits="userSpaceOnUse">
<stop stop-color="white" stop-opacity="0.19"/>
<stop offset="1" stop-color="white" stop-opacity="0"/>
</linearGradient>
<linearGradient id="paint9_linear_5011_34033" x1="245.254" y1="153.06" x2="245.254" y2="227.706" gradientUnits="userSpaceOnUse">
<stop stop-color="white" stop-opacity="0.19"/>
<stop offset="1" stop-color="white" stop-opacity="0"/>
</linearGradient>
<linearGradient id="paint10_linear_5011_34033" x1="109.461" y1="114.882" x2="109.461" y2="40.2363" gradientUnits="userSpaceOnUse">
<stop stop-color="white" stop-opacity="0.19"/>
<stop offset="1" stop-color="white" stop-opacity="0"/>
</linearGradient>
<linearGradient id="paint11_linear_5011_34033" x1="178.348" y1="77.9985" x2="178.348" y2="152.645" gradientUnits="userSpaceOnUse">
<stop stop-color="white" stop-opacity="0.19"/>
<stop offset="1" stop-color="white" stop-opacity="0"/>
</linearGradient>
<linearGradient id="paint12_linear_5011_34033" x1="40.0974" y1="35.3391" x2="40.0974" y2="-39.3069" gradientUnits="userSpaceOnUse">
<stop stop-color="white" stop-opacity="0.19"/>
<stop offset="1" stop-color="white" stop-opacity="0"/>
</linearGradient>
<linearGradient id="paint13_linear_5011_34033" x1="108.985" y1="-1.54468" x2="108.985" y2="73.1014" gradientUnits="userSpaceOnUse">
<stop stop-color="white" stop-opacity="0.19"/>
<stop offset="1" stop-color="white" stop-opacity="0"/>
</linearGradient>
<linearGradient id="paint14_linear_5011_34033" x1="56.5584" y1="167.766" x2="56.5584" y2="93.1201" gradientUnits="userSpaceOnUse">
<stop stop-color="white" stop-opacity="0.19"/>
<stop offset="1" stop-color="white" stop-opacity="0"/>
</linearGradient>
<linearGradient id="paint15_linear_5011_34033" x1="125.446" y1="130.882" x2="125.446" y2="205.528" gradientUnits="userSpaceOnUse">
<stop stop-color="white" stop-opacity="0.19"/>
<stop offset="1" stop-color="white" stop-opacity="0"/>
</linearGradient>
<linearGradient id="paint16_linear_5011_34033" x1="296.176" y1="217.238" x2="296.176" y2="142.592" gradientUnits="userSpaceOnUse">
<stop stop-color="white" stop-opacity="0.19"/>
<stop offset="1" stop-color="white" stop-opacity="0"/>
</linearGradient>
<linearGradient id="paint17_linear_5011_34033" x1="229.269" y1="137.06" x2="229.269" y2="62.4135" gradientUnits="userSpaceOnUse">
<stop stop-color="white" stop-opacity="0.19"/>
<stop offset="1" stop-color="white" stop-opacity="0"/>
</linearGradient>
<linearGradient id="paint18_linear_5011_34033" x1="298.156" y1="100.176" x2="298.156" y2="174.822" gradientUnits="userSpaceOnUse">
<stop stop-color="white" stop-opacity="0.19"/>
<stop offset="1" stop-color="white" stop-opacity="0"/>
</linearGradient>
<linearGradient id="paint19_linear_5011_34033" x1="280.203" y1="82.062" x2="280.203" y2="7.41595" gradientUnits="userSpaceOnUse">
<stop stop-color="white" stop-opacity="0.19"/>
<stop offset="1" stop-color="white" stop-opacity="0"/>
</linearGradient>
<linearGradient id="paint20_linear_5011_34033" x1="159.906" y1="57.5164" x2="159.906" y2="-17.1297" gradientUnits="userSpaceOnUse">
<stop stop-color="white" stop-opacity="0.19"/>
<stop offset="1" stop-color="white" stop-opacity="0"/>
</linearGradient>
<linearGradient id="paint21_linear_5011_34033" x1="228.793" y1="20.6326" x2="228.793" y2="95.2786" gradientUnits="userSpaceOnUse">
<stop stop-color="white" stop-opacity="0.19"/>
<stop offset="1" stop-color="white" stop-opacity="0"/>
</linearGradient>
<linearGradient id="paint22_linear_5011_34033" x1="60.0901" y1="52.4094" x2="60.0901" y2="127.055" gradientUnits="userSpaceOnUse">
<stop stop-color="white" stop-opacity="0.19"/>
<stop offset="1" stop-color="white" stop-opacity="0"/>
</linearGradient>
<linearGradient id="paint23_linear_5011_34033" x1="35.5686" y1="27" x2="307.106" y2="409.082" gradientUnits="userSpaceOnUse">
<stop stop-color="#BCDFFF"/>
<stop offset="0.48239" stop-color="#42A4FF"/>
<stop offset="1" stop-color="#2F4B64"/>
</linearGradient>
<clipPath id="clip0_5011_34033">
<rect x="27.8984" y="27" width="275" height="385" rx="10" fill="white"/>
</clipPath>
</defs>
</svg>
