<svg width="592" height="592" viewBox="0 0 592 592" fill="none" xmlns="http://www.w3.org/2000/svg">
<path d="M482.85 388.714C466.333 421.947 441.264 450.183 410.22 470.519C379.176 490.856 343.277 502.56 306.212 504.427C269.147 506.295 232.253 498.26 199.322 481.148C166.391 464.036 138.61 438.463 118.835 407.059" stroke="white" stroke-opacity="0.3" stroke-width="2"/>
<path d="M162.323 456.608C144.331 441.695 128.966 423.87 116.87 403.875" stroke="white" stroke-width="2"/>
<rect x="118.349" y="398.692" width="8" height="8" transform="rotate(45 118.349 398.692)" fill="#42A4FF"/>
<rect x="118.349" y="391.621" width="18" height="18" transform="rotate(45 118.349 391.621)" stroke="white" stroke-opacity="0.1" stroke-width="10"/>
<rect x="222.349" y="483.692" width="8" height="8" transform="rotate(45 222.349 483.692)" fill="white"/>
<rect x="222.349" y="476.621" width="18" height="18" transform="rotate(45 222.349 476.621)" stroke="white" stroke-opacity="0.1" stroke-width="10"/>
<rect x="380.349" y="478.692" width="8" height="8" transform="rotate(45 380.349 478.692)" fill="white"/>
<rect x="380.349" y="471.621" width="18" height="18" transform="rotate(45 380.349 471.621)" stroke="white" stroke-opacity="0.1" stroke-width="10"/>
<rect x="481.349" y="387.692" width="8" height="8" transform="rotate(45 481.349 387.692)" fill="white"/>
<rect x="481.349" y="380.621" width="18" height="18" transform="rotate(45 481.349 380.621)" stroke="white" stroke-opacity="0.1" stroke-width="10"/>
<path d="M106.388 374.224C104.764 374.224 103.374 373.963 102.216 373.44C101.059 372.899 100.116 372.171 99.3883 371.256C98.6789 370.342 98.1469 369.287 97.7923 368.092C97.4563 366.879 97.2883 365.6 97.2883 364.256V362.66C97.2883 360.794 97.6149 359.104 98.2683 357.592C98.9216 356.08 99.9203 354.876 101.264 353.98C102.608 353.084 104.316 352.636 106.388 352.636C108.46 352.636 110.159 353.084 111.484 353.98C112.828 354.876 113.827 356.08 114.48 357.592C115.134 359.104 115.46 360.794 115.46 362.66V364.256C115.46 365.6 115.283 366.879 114.928 368.092C114.592 369.287 114.06 370.342 113.332 371.256C112.623 372.171 111.69 372.899 110.532 373.44C109.394 373.963 108.012 374.224 106.388 374.224ZM106.388 369.996C107.9 369.996 109.02 369.474 109.748 368.428C110.495 367.364 110.868 365.722 110.868 363.5C110.868 361.148 110.486 359.459 109.72 358.432C108.974 357.387 107.863 356.864 106.388 356.864C104.876 356.864 103.747 357.387 103 358.432C102.254 359.459 101.88 361.13 101.88 363.444C101.88 365.684 102.244 367.336 102.972 368.4C103.719 369.464 104.858 369.996 106.388 369.996ZM122.964 373.692L130.412 353.252H134.164L126.744 373.692H122.964ZM121.564 364.48C120.462 364.48 119.538 364.238 118.792 363.752C118.064 363.248 117.513 362.586 117.14 361.764C116.785 360.924 116.608 360 116.608 358.992V358.264C116.608 357.2 116.794 356.258 117.168 355.436C117.541 354.615 118.101 353.971 118.848 353.504C119.594 353.038 120.5 352.804 121.564 352.804C122.646 352.804 123.552 353.038 124.28 353.504C125.026 353.971 125.586 354.615 125.96 355.436C126.333 356.258 126.52 357.2 126.52 358.264V358.992C126.52 360 126.333 360.924 125.96 361.764C125.605 362.586 125.064 363.248 124.336 363.752C123.608 364.238 122.684 364.48 121.564 364.48ZM121.564 361.484C122.142 361.484 122.562 361.279 122.824 360.868C123.104 360.439 123.244 359.702 123.244 358.656C123.244 357.555 123.104 356.799 122.824 356.388C122.544 355.978 122.124 355.772 121.564 355.772C121.004 355.772 120.584 355.978 120.304 356.388C120.024 356.799 119.884 357.546 119.884 358.628C119.884 359.674 120.024 360.411 120.304 360.84C120.584 361.27 121.004 361.484 121.564 361.484ZM135.48 374.168C134.36 374.168 133.436 373.926 132.708 373.44C131.98 372.955 131.429 372.302 131.056 371.48C130.701 370.64 130.524 369.716 130.524 368.708V367.98C130.524 366.898 130.71 365.946 131.084 365.124C131.457 364.303 132.008 363.659 132.736 363.192C133.482 362.726 134.397 362.492 135.48 362.492C136.562 362.492 137.468 362.726 138.196 363.192C138.924 363.659 139.474 364.303 139.848 365.124C140.221 365.946 140.408 366.898 140.408 367.98V368.708C140.408 369.716 140.221 370.64 139.848 371.48C139.493 372.302 138.952 372.955 138.224 373.44C137.514 373.926 136.6 374.168 135.48 374.168ZM135.48 371.2C136.058 371.2 136.478 370.995 136.74 370.584C137.02 370.155 137.16 369.418 137.16 368.372C137.16 367.252 137.02 366.496 136.74 366.104C136.46 365.694 136.04 365.488 135.48 365.488C134.92 365.488 134.49 365.694 134.192 366.104C133.912 366.496 133.772 367.243 133.772 368.344C133.772 369.39 133.912 370.127 134.192 370.556C134.472 370.986 134.901 371.2 135.48 371.2Z" fill="white"/>
<path opacity="0.4" d="M200.372 457.692V453.492C200.372 452.615 200.512 451.85 200.792 451.196C201.091 450.543 201.558 449.964 202.192 449.46C202.827 448.938 203.667 448.452 204.712 448.004L208.016 446.576C208.856 446.222 209.472 445.783 209.864 445.26C210.275 444.738 210.48 444.075 210.48 443.272C210.48 442.451 210.228 441.779 209.724 441.256C209.22 440.734 208.483 440.472 207.512 440.472C206.542 440.472 205.804 440.743 205.3 441.284C204.796 441.826 204.544 442.554 204.544 443.468H200.092C200.092 442.18 200.372 441.023 200.932 439.996C201.492 438.951 202.323 438.13 203.424 437.532C204.526 436.935 205.888 436.636 207.512 436.636C209.136 436.636 210.49 436.926 211.572 437.504C212.674 438.083 213.504 438.858 214.064 439.828C214.643 440.799 214.932 441.891 214.932 443.104V443.44C214.932 445.008 214.503 446.306 213.644 447.332C212.786 448.34 211.46 449.236 209.668 450.02L206.392 451.448C205.832 451.691 205.431 451.943 205.188 452.204C204.964 452.466 204.852 452.82 204.852 453.268V454.668L203.76 453.744H214.96V457.692H200.372ZM224.512 458.224C222.888 458.224 221.488 457.916 220.312 457.3C219.136 456.666 218.23 455.816 217.596 454.752C216.98 453.688 216.672 452.512 216.672 451.224H221.096C221.096 451.859 221.236 452.419 221.516 452.904C221.814 453.371 222.225 453.744 222.748 454.024C223.27 454.286 223.868 454.416 224.54 454.416C225.286 454.416 225.912 454.267 226.416 453.968C226.938 453.651 227.34 453.231 227.62 452.708C227.9 452.167 228.04 451.56 228.04 450.888C228.04 450.198 227.9 449.591 227.62 449.068C227.358 448.527 226.966 448.098 226.444 447.78C225.94 447.463 225.324 447.304 224.596 447.304C223.924 447.304 223.317 447.444 222.776 447.724C222.234 448.004 221.833 448.359 221.572 448.788H217.26L218.296 437.252H230.7V441.172H220.116L221.88 439.996L221.264 446.632L220.2 446.352C220.76 445.68 221.432 445.12 222.216 444.672C223.018 444.206 224.064 443.972 225.352 443.972C226.845 443.972 228.114 444.28 229.16 444.896C230.224 445.494 231.036 446.306 231.596 447.332C232.174 448.34 232.464 449.47 232.464 450.72V451.084C232.464 452.335 232.156 453.502 231.54 454.584C230.924 455.667 230.018 456.544 228.824 457.216C227.648 457.888 226.21 458.224 224.512 458.224ZM239.319 457.692L246.767 437.252H250.519L243.099 457.692H239.319ZM237.919 448.48C236.818 448.48 235.894 448.238 235.147 447.752C234.419 447.248 233.869 446.586 233.495 445.764C233.141 444.924 232.963 444 232.963 442.992V442.264C232.963 441.2 233.15 440.258 233.523 439.436C233.897 438.615 234.457 437.971 235.203 437.504C235.95 437.038 236.855 436.804 237.919 436.804C239.002 436.804 239.907 437.038 240.635 437.504C241.382 437.971 241.942 438.615 242.315 439.436C242.689 440.258 242.875 441.2 242.875 442.264V442.992C242.875 444 242.689 444.924 242.315 445.764C241.961 446.586 241.419 447.248 240.691 447.752C239.963 448.238 239.039 448.48 237.919 448.48ZM237.919 445.484C238.498 445.484 238.918 445.279 239.179 444.868C239.459 444.439 239.599 443.702 239.599 442.656C239.599 441.555 239.459 440.799 239.179 440.388C238.899 439.978 238.479 439.772 237.919 439.772C237.359 439.772 236.939 439.978 236.659 440.388C236.379 440.799 236.239 441.546 236.239 442.628C236.239 443.674 236.379 444.411 236.659 444.84C236.939 445.27 237.359 445.484 237.919 445.484ZM251.835 458.168C250.715 458.168 249.791 457.926 249.063 457.44C248.335 456.955 247.785 456.302 247.411 455.48C247.057 454.64 246.879 453.716 246.879 452.708V451.98C246.879 450.898 247.066 449.946 247.439 449.124C247.813 448.303 248.363 447.659 249.091 447.192C249.838 446.726 250.753 446.492 251.835 446.492C252.918 446.492 253.823 446.726 254.551 447.192C255.279 447.659 255.83 448.303 256.203 449.124C256.577 449.946 256.763 450.898 256.763 451.98V452.708C256.763 453.716 256.577 454.64 256.203 455.48C255.849 456.302 255.307 456.955 254.579 457.44C253.87 457.926 252.955 458.168 251.835 458.168ZM251.835 455.2C252.414 455.2 252.834 454.995 253.095 454.584C253.375 454.155 253.515 453.418 253.515 452.372C253.515 451.252 253.375 450.496 253.095 450.104C252.815 449.694 252.395 449.488 251.835 449.488C251.275 449.488 250.846 449.694 250.547 450.104C250.267 450.496 250.127 451.243 250.127 452.344C250.127 453.39 250.267 454.127 250.547 454.556C250.827 454.986 251.257 455.2 251.835 455.2Z" fill="white"/>
<path opacity="0.4" d="M355.696 451.692L362.864 435.424L362.556 435.004H352.616V431.252H368.1V434.164L360.568 451.692H355.696ZM352.616 438.308V431.252H356.34V438.308H352.616ZM376.828 452.224C375.204 452.224 373.804 451.916 372.628 451.3C371.452 450.666 370.547 449.816 369.912 448.752C369.296 447.688 368.988 446.512 368.988 445.224H373.412C373.412 445.859 373.552 446.419 373.832 446.904C374.131 447.371 374.541 447.744 375.064 448.024C375.587 448.286 376.184 448.416 376.856 448.416C377.603 448.416 378.228 448.267 378.732 447.968C379.255 447.651 379.656 447.231 379.936 446.708C380.216 446.167 380.356 445.56 380.356 444.888C380.356 444.198 380.216 443.591 379.936 443.068C379.675 442.527 379.283 442.098 378.76 441.78C378.256 441.463 377.64 441.304 376.912 441.304C376.24 441.304 375.633 441.444 375.092 441.724C374.551 442.004 374.149 442.359 373.888 442.788H369.576L370.612 431.252H383.016V435.172H372.432L374.196 433.996L373.58 440.632L372.516 440.352C373.076 439.68 373.748 439.12 374.532 438.672C375.335 438.206 376.38 437.972 377.668 437.972C379.161 437.972 380.431 438.28 381.476 438.896C382.54 439.494 383.352 440.306 383.912 441.332C384.491 442.34 384.78 443.47 384.78 444.72V445.084C384.78 446.335 384.472 447.502 383.856 448.584C383.24 449.667 382.335 450.544 381.14 451.216C379.964 451.888 378.527 452.224 376.828 452.224ZM391.636 451.692L399.084 431.252H402.836L395.416 451.692H391.636ZM390.236 442.48C389.134 442.48 388.21 442.238 387.464 441.752C386.736 441.248 386.185 440.586 385.812 439.764C385.457 438.924 385.28 438 385.28 436.992V436.264C385.28 435.2 385.466 434.258 385.84 433.436C386.213 432.615 386.773 431.971 387.52 431.504C388.266 431.038 389.172 430.804 390.236 430.804C391.318 430.804 392.224 431.038 392.952 431.504C393.698 431.971 394.258 432.615 394.632 433.436C395.005 434.258 395.192 435.2 395.192 436.264V436.992C395.192 438 395.005 438.924 394.632 439.764C394.277 440.586 393.736 441.248 393.008 441.752C392.28 442.238 391.356 442.48 390.236 442.48ZM390.236 439.484C390.814 439.484 391.234 439.279 391.496 438.868C391.776 438.439 391.916 437.702 391.916 436.656C391.916 435.555 391.776 434.799 391.496 434.388C391.216 433.978 390.796 433.772 390.236 433.772C389.676 433.772 389.256 433.978 388.976 434.388C388.696 434.799 388.556 435.546 388.556 436.628C388.556 437.674 388.696 438.411 388.976 438.84C389.256 439.27 389.676 439.484 390.236 439.484ZM404.152 452.168C403.032 452.168 402.108 451.926 401.38 451.44C400.652 450.955 400.101 450.302 399.728 449.48C399.373 448.64 399.196 447.716 399.196 446.708V445.98C399.196 444.898 399.382 443.946 399.756 443.124C400.129 442.303 400.68 441.659 401.408 441.192C402.154 440.726 403.069 440.492 404.152 440.492C405.234 440.492 406.14 440.726 406.868 441.192C407.596 441.659 408.146 442.303 408.52 443.124C408.893 443.946 409.08 444.898 409.08 445.98V446.708C409.08 447.716 408.893 448.64 408.52 449.48C408.165 450.302 407.624 450.955 406.896 451.44C406.186 451.926 405.272 452.168 404.152 452.168ZM404.152 449.2C404.73 449.2 405.15 448.995 405.412 448.584C405.692 448.155 405.832 447.418 405.832 446.372C405.832 445.252 405.692 444.496 405.412 444.104C405.132 443.694 404.712 443.488 404.152 443.488C403.592 443.488 403.162 443.694 402.864 444.104C402.584 444.496 402.444 445.243 402.444 446.344C402.444 447.39 402.584 448.127 402.864 448.556C403.144 448.986 403.573 449.2 404.152 449.2Z" fill="white"/>
<path opacity="0.4" d="M444.62 367.692V350.276L445.852 351.228H440.616V347.252H449.184V367.692H444.62ZM461.365 368.224C459.741 368.224 458.35 367.963 457.193 367.44C456.035 366.899 455.093 366.171 454.365 365.256C453.655 364.342 453.123 363.287 452.769 362.092C452.433 360.879 452.265 359.6 452.265 358.256V356.66C452.265 354.794 452.591 353.104 453.245 351.592C453.898 350.08 454.897 348.876 456.241 347.98C457.585 347.084 459.293 346.636 461.365 346.636C463.437 346.636 465.135 347.084 466.461 347.98C467.805 348.876 468.803 350.08 469.457 351.592C470.11 353.104 470.437 354.794 470.437 356.66V358.256C470.437 359.6 470.259 360.879 469.905 362.092C469.569 363.287 469.037 364.342 468.309 365.256C467.599 366.171 466.666 366.899 465.509 367.44C464.37 367.963 462.989 368.224 461.365 368.224ZM461.365 363.996C462.877 363.996 463.997 363.474 464.725 362.428C465.471 361.364 465.845 359.722 465.845 357.5C465.845 355.148 465.462 353.459 464.697 352.432C463.95 351.387 462.839 350.864 461.365 350.864C459.853 350.864 458.723 351.387 457.977 352.432C457.23 353.459 456.857 355.13 456.857 357.444C456.857 359.684 457.221 361.336 457.949 362.4C458.695 363.464 459.834 363.996 461.365 363.996ZM481.72 368.224C480.096 368.224 478.706 367.963 477.548 367.44C476.391 366.899 475.448 366.171 474.72 365.256C474.011 364.342 473.479 363.287 473.124 362.092C472.788 360.879 472.62 359.6 472.62 358.256V356.66C472.62 354.794 472.947 353.104 473.6 351.592C474.254 350.08 475.252 348.876 476.596 347.98C477.94 347.084 479.648 346.636 481.72 346.636C483.792 346.636 485.491 347.084 486.816 347.98C488.16 348.876 489.159 350.08 489.812 351.592C490.466 353.104 490.792 354.794 490.792 356.66V358.256C490.792 359.6 490.615 360.879 490.26 362.092C489.924 363.287 489.392 364.342 488.664 365.256C487.955 366.171 487.022 366.899 485.864 367.44C484.726 367.963 483.344 368.224 481.72 368.224ZM481.72 363.996C483.232 363.996 484.352 363.474 485.08 362.428C485.827 361.364 486.2 359.722 486.2 357.5C486.2 355.148 485.818 353.459 485.052 352.432C484.306 351.387 483.195 350.864 481.72 350.864C480.208 350.864 479.079 351.387 478.332 352.432C477.586 353.459 477.212 355.13 477.212 357.444C477.212 359.684 477.576 361.336 478.304 362.4C479.051 363.464 480.19 363.996 481.72 363.996ZM498.296 367.692L505.744 347.252H509.496L502.076 367.692H498.296ZM496.896 358.48C495.794 358.48 494.87 358.238 494.124 357.752C493.396 357.248 492.845 356.586 492.472 355.764C492.117 354.924 491.94 354 491.94 352.992V352.264C491.94 351.2 492.126 350.258 492.5 349.436C492.873 348.615 493.433 347.971 494.18 347.504C494.926 347.038 495.832 346.804 496.896 346.804C497.978 346.804 498.884 347.038 499.612 347.504C500.358 347.971 500.918 348.615 501.292 349.436C501.665 350.258 501.852 351.2 501.852 352.264V352.992C501.852 354 501.665 354.924 501.292 355.764C500.937 356.586 500.396 357.248 499.668 357.752C498.94 358.238 498.016 358.48 496.896 358.48ZM496.896 355.484C497.474 355.484 497.894 355.279 498.156 354.868C498.436 354.439 498.576 353.702 498.576 352.656C498.576 351.555 498.436 350.799 498.156 350.388C497.876 349.978 497.456 349.772 496.896 349.772C496.336 349.772 495.916 349.978 495.636 350.388C495.356 350.799 495.216 351.546 495.216 352.628C495.216 353.674 495.356 354.411 495.636 354.84C495.916 355.27 496.336 355.484 496.896 355.484ZM510.812 368.168C509.692 368.168 508.768 367.926 508.04 367.44C507.312 366.955 506.761 366.302 506.388 365.48C506.033 364.64 505.856 363.716 505.856 362.708V361.98C505.856 360.898 506.042 359.946 506.416 359.124C506.789 358.303 507.34 357.659 508.068 357.192C508.814 356.726 509.729 356.492 510.812 356.492C511.894 356.492 512.8 356.726 513.528 357.192C514.256 357.659 514.806 358.303 515.18 359.124C515.553 359.946 515.74 360.898 515.74 361.98V362.708C515.74 363.716 515.553 364.64 515.18 365.48C514.825 366.302 514.284 366.955 513.556 367.44C512.846 367.926 511.932 368.168 510.812 368.168ZM510.812 365.2C511.39 365.2 511.81 364.995 512.072 364.584C512.352 364.155 512.492 363.418 512.492 362.372C512.492 361.252 512.352 360.496 512.072 360.104C511.792 359.694 511.372 359.488 510.812 359.488C510.252 359.488 509.822 359.694 509.524 360.104C509.244 360.496 509.104 361.243 509.104 362.344C509.104 363.39 509.244 364.127 509.524 364.556C509.804 364.986 510.233 365.2 510.812 365.2Z" fill="white"/>
</svg>
