<svg width="27" height="27" viewBox="0 0 27 27" fill="none" xmlns="http://www.w3.org/2000/svg">
<path fill-rule="evenodd" clip-rule="evenodd" d="M0 7.5C0 3.35786 3.35786 0 7.5 0H19.5C23.6421 0 27 3.35786 27 7.5V19.5C27 23.6421 23.6421 27 19.5 27H7.5C3.35786 27 0 23.6421 0 19.5V7.5ZM19.2383 13.8375C19.2383 17.0062 16.6695 19.575 13.5008 19.575C10.332 19.575 7.76325 17.0062 7.76325 13.8375C7.76325 10.6688 10.332 8.10001 13.5008 8.10001C16.6695 8.10001 19.2383 10.6688 19.2383 13.8375ZM21.2629 8.77498C22.9404 8.77498 24.3004 7.41505 24.3004 5.73748C24.3004 4.05992 22.9404 2.69998 21.2629 2.69998C19.5853 2.69998 18.2254 4.05992 18.2254 5.73748C18.2254 7.41505 19.5853 8.77498 21.2629 8.77498Z" fill="white"/>
<circle cx="13.5" cy="14" r="4" fill="white"/>
</svg>
