<svg width="27" height="22" viewBox="0 0 27 22" fill="none" xmlns="http://www.w3.org/2000/svg">
<path d="M8.47488 22C5.35541 22 2.44751 21.1 0 19.5471C2.07804 19.6805 5.74529 19.3611 8.02629 17.2029C4.5949 17.0467 3.04741 14.4361 2.84553 13.3205C3.13709 13.4321 4.52763 13.5659 5.31256 13.2536C1.36531 12.2718 0.759788 8.8357 0.894352 7.78701C1.63446 8.3002 2.89039 8.47868 3.38379 8.43407C-0.294308 5.82353 1.02893 1.89655 1.67932 1.04869C4.31888 4.67613 8.27473 6.71341 13.1686 6.82673C13.0764 6.4253 13.0277 6.00738 13.0277 5.57809C13.0277 2.4974 15.5379 0 18.6345 0C20.2525 0 21.7103 0.68177 22.7337 1.77228C23.8149 1.52098 25.442 0.932685 26.2375 0.42393C25.8365 1.85194 24.5882 3.04315 23.8332 3.48469C23.8395 3.49968 23.827 3.46961 23.8332 3.48469C24.4964 3.38517 26.2911 3.04304 27 2.56593C26.6494 3.36814 25.326 4.70199 24.2399 5.44877C24.442 14.2886 17.6237 22 8.47488 22Z" fill="white"/>
</svg>
