<svg width="37" height="27" viewBox="0 0 37 27" fill="none" xmlns="http://www.w3.org/2000/svg">
<path d="M30.7383 0H6.26134H6.26174C4.60081 0 3.00818 0.695175 1.83404 1.93318C0.659494 3.17078 0 4.8495 0 6.60021V20.4002V20.3998C0 22.1505 0.659525 23.8292 1.83404 25.0668C3.00818 26.3049 4.60081 27 6.26174 27H30.7387H30.7383C32.3992 27 33.9918 26.3048 35.166 25.0668C36.3405 23.8292 37 22.1505 37 20.3998V6.59979V6.60021C37 4.8495 36.3405 3.17078 35.166 1.93318C33.9918 0.695143 32.3992 0 30.7383 0ZM25.7464 13.7636L14.6464 19.7636C14.5583 19.8113 14.453 19.8079 14.3685 19.7539C14.2835 19.7004 14.2315 19.6037 14.2307 19.4995V7.49948C14.2315 7.39527 14.2835 7.29859 14.3685 7.24502C14.453 7.19102 14.5583 7.18768 14.6464 7.23539L25.7464 13.2354C25.8413 13.2869 25.9013 13.3898 25.9013 13.5024C25.9013 13.615 25.8413 13.7179 25.7464 13.7694V13.7636Z" fill="white"/>
</svg>
